<svg width="18" height="18" viewBox="0 0 18 18" fill="none" xmlns="http://www.w3.org/2000/svg">
<g clip-path="url(#clip0_6607_46871)">
<path d="M9 0C4.02945 0 0 4.02945 0 9C0 13.9706 4.02945 18 9 18C13.9706 18 18 13.9706 18 9C17.9944 4.03178 13.9682 0.005625 9 0ZM17.0748 11.3082L16.5111 11.1249L16.3254 11.6949L16.8915 11.8788C16.6574 12.5175 16.3465 13.1253 15.9657 13.689L15.4857 13.341L15.1329 13.8264L15.6093 14.1726C15.1901 14.7077 14.708 15.1905 14.1735 15.6105L13.8273 15.1341L13.3419 15.4869L13.6899 15.9669C13.1263 16.3473 12.5185 16.6577 11.88 16.8915L11.6961 16.3254L11.1261 16.5111L11.3094 17.0748C10.6551 17.2622 9.98025 17.3688 9.3 17.3925V16.8H8.7V17.3925C8.02016 17.3688 7.34576 17.2621 6.6918 17.0748L6.8751 16.5111L6.3051 16.3254L6.12 16.8915C5.48134 16.6574 4.87346 16.3465 4.3098 15.9657L4.6578 15.4857L4.1724 15.1329L3.8262 15.6093C3.29134 15.1896 2.80886 14.7072 2.3892 14.1723L2.8656 13.8261L2.5128 13.3407L2.0328 13.6887C1.65315 13.1253 1.34329 12.518 1.11 11.88L1.6761 11.6961L1.4904 11.1261L0.9267 11.3094C0.738825 10.6551 0.63165 9.98029 0.6075 9.3H1.2V8.7H0.6075C0.631238 8.02016 0.737925 7.34576 0.9252 6.6918L1.4889 6.8751L1.6746 6.3051L1.11 6.12C1.34415 5.48134 1.65503 4.87346 2.0358 4.3098L2.5158 4.6578L2.8686 4.1724L2.3895 3.8265C2.80916 3.29164 3.29164 2.80916 3.8265 2.3895L4.1727 2.8659L4.6581 2.5131L4.3101 2.0331C4.8738 1.65326 5.48156 1.34329 6.12 1.11L6.3039 1.6761L6.8739 1.4904L6.6906 0.9267C7.3449 0.738825 8.01971 0.63165 8.7 0.6075V1.2H9.3V0.6075C9.97984 0.631238 10.6542 0.737925 11.3082 0.9252L11.1249 1.4889L11.6949 1.6746L11.88 1.11C12.5187 1.34415 13.1265 1.65503 13.6902 2.0358L13.3422 2.5158L13.8276 2.8686L14.1738 2.3922C14.7087 2.81186 15.1911 3.29434 15.6108 3.8292L15.1344 4.1754L15.4872 4.6608L15.9672 4.3128C16.3473 4.8756 16.6576 5.48243 16.8915 6.12L16.3254 6.3039L16.5111 6.8739L17.0748 6.6906C17.2622 7.34494 17.3688 8.01975 17.3925 8.7H16.8V9.3H17.3925C17.3688 9.97984 17.2621 10.6542 17.0748 11.3082Z" fill="#7D879C"/>
<path d="M8.99844 2.40039C5.35336 2.40039 2.39844 5.35532 2.39844 9.00039C2.39844 12.6455 5.35336 15.6004 8.99844 15.6004C12.6435 15.6004 15.5984 12.6455 15.5984 9.00039C15.5943 5.35704 12.6418 2.40452 8.99844 2.40039ZM8.99844 15.0004C5.68471 15.0004 2.99844 12.3141 2.99844 9.00039C2.99844 5.68667 5.68471 3.00039 8.99844 3.00039C12.3122 3.00039 14.9984 5.68667 14.9984 9.00039C14.9946 12.3125 12.3106 14.9966 8.99844 15.0004Z" fill="#7D879C"/>
<path d="M8.99844 3.90039C6.18177 3.90039 3.89844 6.18373 3.89844 9.00039C3.89844 11.8171 6.18177 14.1004 8.99844 14.1004C11.8151 14.1004 14.0984 11.8171 14.0984 9.00039C14.0953 6.18504 11.8138 3.90354 8.99844 3.90039ZM12.8561 6.69549C13.2049 7.27449 13.4176 7.92515 13.478 8.59839L11.5991 8.44659C11.434 8.43271 11.3114 8.28759 11.3253 8.12251C11.3319 8.04425 11.369 7.97169 11.4284 7.92039L12.8561 6.69549ZM10.0001 4.61679L9.27534 6.35679C9.21159 6.50972 9.03594 6.58202 8.88301 6.51827C8.81 6.48782 8.75199 6.4298 8.72154 6.35679L7.99674 4.61679C8.65554 4.46158 9.34134 4.46158 10.0001 4.61679ZM5.14074 6.69542L6.56844 7.92039C6.69425 8.0282 6.7088 8.21761 6.60099 8.34339C6.5495 8.40346 6.47634 8.44078 6.39744 8.44719L4.51854 8.59899C4.57899 7.92549 4.79176 7.27456 5.14074 6.69542ZM7.66704 11.3026L7.23144 13.138C6.61077 12.8701 6.05814 12.4664 5.61414 11.9566H5.61324L7.21884 10.9771C7.36025 10.8907 7.54486 10.9354 7.63122 11.0768C7.67251 11.1444 7.68537 11.2255 7.66704 11.3026ZM10.7654 13.138H10.7645L10.328 11.3026C10.2897 11.1414 10.3892 10.9796 10.5504 10.9413C10.6275 10.9229 10.7086 10.9358 10.7762 10.9771L12.3818 11.9566C11.9381 12.4663 11.3858 12.8699 10.7654 13.138ZM11.0894 10.4647C10.6651 10.2058 10.1113 10.3399 9.85239 10.7642C9.72867 10.9669 9.69009 11.2104 9.74514 11.4415L10.1951 13.3339C9.41259 13.5559 8.58369 13.5559 7.80114 13.3339H7.80054L8.25054 11.4415C8.36551 10.9579 8.06671 10.4727 7.58311 10.3577C7.35215 10.3028 7.10889 10.3414 6.90624 10.465L5.24604 11.4784C4.79776 10.8004 4.54284 10.0131 4.50864 9.20109L6.44604 9.04449C6.94141 9.00388 7.31007 8.56933 7.26946 8.07395C7.25007 7.83774 7.13832 7.6187 6.95844 7.46439L5.48244 6.19839C5.98962 5.56382 6.65863 5.07785 7.41894 4.79169L8.16654 6.58659C8.3576 7.04544 8.88447 7.26256 9.34336 7.07147C9.56266 6.98015 9.73692 6.80585 9.82824 6.58659L10.5761 4.79169C11.3364 5.07793 12.0054 5.56389 12.5126 6.19839L11.0384 7.46439C10.6612 7.78805 10.6178 8.35625 10.9414 8.73347C11.0959 8.91354 11.3153 9.02529 11.5517 9.04449L13.4891 9.20109C13.4549 10.0131 13.2 10.8004 12.7517 11.4784L11.0894 10.4647Z" fill="#7D879C"/>
<path d="M9.00078 7.7998C8.33804 7.7998 7.80078 8.33707 7.80078 8.9998C7.80078 9.66254 8.33804 10.1998 9.00078 10.1998C9.66352 10.1998 10.2008 9.66254 10.2008 8.9998C10.2008 8.33707 9.66352 7.7998 9.00078 7.7998ZM9.00078 9.5998C8.66939 9.5998 8.40078 9.33119 8.40078 8.9998C8.40078 8.66842 8.66939 8.3998 9.00078 8.3998C9.33217 8.3998 9.60078 8.66842 9.60078 8.9998C9.60078 9.33119 9.33217 9.5998 9.00078 9.5998Z" fill="#7D879C"/>
</g>
<defs>
<clipPath id="clip0_6607_46871">
<rect width="18" height="18" fill="white"/>
</clipPath>
</defs>
</svg>
