<svg width="19" height="19" viewBox="0 0 19 19" fill="none" xmlns="http://www.w3.org/2000/svg">
<g clip-path="url(#clip0_10062_47505)">
<path d="M7.94965 4.52588C7.94965 4.38026 7.83163 4.26221 7.68597 4.26221C7.54032 4.26221 7.4223 4.38026 7.4223 4.52588V5.24215C7.4223 5.38777 7.54032 5.50582 7.68597 5.50582C7.83163 5.50582 7.94965 5.38777 7.94965 5.24215V4.52588Z" fill="#7D879C"/>
<path d="M11.3032 4.26221C11.1576 4.26221 11.0396 4.38026 11.0396 4.52588V5.24215C11.0396 5.38777 11.1576 5.50582 11.3032 5.50582C11.4489 5.50582 11.5669 5.38777 11.5669 5.24215V4.52588C11.5669 4.38026 11.4489 4.26221 11.3032 4.26221Z" fill="#7D879C"/>
<path d="M10.5198 5.76506C10.1748 5.60256 8.81401 5.60256 8.46905 5.76506C8.20294 5.89043 8.02424 6.12436 7.96588 6.4238C7.91848 6.66687 7.95195 6.9379 8.0601 7.18692C8.20994 7.53198 8.48167 7.79629 8.84597 7.95133C8.96986 8.00403 9.09924 8.0406 9.23076 8.06162V8.44255C9.23076 8.58817 9.34878 8.70623 9.49444 8.70623C9.6401 8.70623 9.75812 8.58817 9.75812 8.44255V8.06162C9.88964 8.0406 10.0191 8.00403 10.1429 7.95133C10.5072 7.79633 10.7789 7.53198 10.9288 7.18695C11.0369 6.93793 11.0704 6.66691 11.023 6.42383C10.9646 6.1244 10.7859 5.89043 10.5198 5.76506ZM10.445 6.97689C10.3487 7.19887 10.1775 7.36347 9.93644 7.46606C9.6556 7.5856 9.33342 7.58563 9.05241 7.46606C8.81134 7.36347 8.64019 7.19887 8.54382 6.97685C8.4476 6.75522 8.40812 6.37669 8.69359 6.24221C8.79836 6.19482 9.14642 6.17112 9.49441 6.17112C9.84232 6.17112 10.1902 6.19482 10.2951 6.24218C10.5807 6.37676 10.5412 6.75526 10.445 6.97689Z" fill="#7D879C"/>
<path d="M15.9683 3.14042C16.1778 2.50485 16.064 1.79809 15.6559 1.20126C15.196 0.528742 14.427 0.0854466 13.6488 0.0443479C12.4754 -0.0173879 11.862 0.593677 11.3922 1.27326C10.7987 1.0908 10.1599 0.991093 9.49452 0.991093C8.8284 0.991093 8.18896 1.09101 7.59491 1.27386C7.33932 0.906294 7.0683 0.591462 6.71845 0.369621C6.5955 0.291608 6.43259 0.328066 6.35454 0.451045C6.27656 0.574024 6.31302 0.736942 6.436 0.814956C6.6776 0.968206 6.88274 1.19187 7.07846 1.45823C5.82142 1.97141 4.81751 2.87186 4.27612 3.97966C3.94216 3.73289 3.6671 3.41665 3.52158 2.97532C3.36158 2.49008 3.44926 1.96579 3.76845 1.49897C4.13757 0.95917 4.75046 0.603627 5.3675 0.571036L5.39 0.569946C5.53552 0.563407 5.64813 0.440181 5.64159 0.294701C5.63505 0.149222 5.51172 0.0367892 5.36638 0.0431174L5.34015 0.0443831C4.56209 0.0854466 3.79303 0.528742 3.33317 1.20126C2.92511 1.79809 2.8112 2.50485 3.02073 3.14039C3.16572 3.5801 3.41393 3.94604 3.77956 4.25908C3.86883 4.33552 3.96498 4.40815 4.06901 4.47896C3.9177 4.91789 3.83606 5.38235 3.83606 5.86302C3.83606 6.9588 4.25872 7.97093 4.97065 8.78563C4.3168 9.25972 3.89326 9.87209 3.76694 10.5357C3.63781 11.2142 3.86057 11.8684 4.39492 12.3915C4.34492 12.6492 4.30291 12.9582 4.28621 13.3136C4.26976 13.6635 4.28045 14.0063 4.31198 14.3397C3.81824 14.7228 3.5026 15.3041 3.5026 15.9539C3.5026 17.087 4.46235 18.0115 5.65312 18.0396C5.65962 18.0401 13.3272 18.0401 13.3325 18.0398C13.8405 18.0284 14.33 17.8519 14.7159 17.5388C14.829 17.447 14.8463 17.281 14.7546 17.1679C14.6629 17.0548 14.4969 17.0375 14.3837 17.1292C14.0782 17.377 13.6863 17.5135 13.2803 17.5135C12.3547 17.5135 11.6016 16.8139 11.6016 15.9539C11.6016 15.8297 11.6174 15.7089 11.647 15.5931C11.8899 15.4002 12.1087 15.2223 12.2716 15.0825C12.5093 14.8785 12.7231 14.6612 12.9125 14.4321C13.0309 14.4073 13.154 14.3942 13.2803 14.3942C14.206 14.3942 14.9591 15.0939 14.9591 15.9539C14.9591 16.0523 14.9492 16.1506 14.9297 16.2462C14.9006 16.3889 14.9927 16.5281 15.1353 16.5572C15.2782 16.5862 15.4173 16.4943 15.4464 16.3516C15.473 16.2214 15.4865 16.0876 15.4865 15.9539C15.4865 15.3035 15.1703 14.7219 14.6759 14.3389C14.7125 13.9523 14.7167 13.6077 14.7029 13.3137C14.6864 12.9627 14.6452 12.657 14.596 12.4012C15.1273 11.8809 15.3497 11.2299 15.2232 10.5539C15.0979 9.88425 14.6727 9.2683 14.0135 8.79129C14.7284 7.97564 15.153 6.96133 15.153 5.86305C15.153 5.38214 15.0713 4.9174 14.9198 4.47825C15.3712 4.16989 15.766 3.75398 15.9683 3.14042ZM4.28502 10.6344C4.419 9.93041 4.9479 9.44293 5.34261 9.16863C5.52603 9.33925 5.72347 9.49854 5.93311 9.64532C5.89089 9.6809 5.84937 9.7174 5.80953 9.75575C5.71359 9.84815 5.56378 9.96898 5.53696 10.1097C5.5166 10.2052 5.5499 10.3082 5.63185 10.3724C5.68441 10.4136 5.74769 10.4314 5.8095 10.4279C6.12088 10.4737 6.43888 10.5561 6.75564 10.674C7.25445 10.8595 7.93516 11.172 8.08771 11.7397C8.1954 12.1404 7.93175 12.6202 7.53466 12.7464C6.72956 13.0023 5.54768 12.7137 4.84405 12.0896C4.51772 11.8001 4.15588 11.3128 4.28502 10.6344ZM5.67495 13.8677C5.37077 13.872 5.08143 13.9348 4.81877 14.0449C4.80379 13.7961 4.80313 13.5695 4.81163 13.3685C4.82099 13.1476 4.84117 12.9462 4.86704 12.7658C4.99241 12.8469 5.12439 12.9206 5.26119 12.9863C5.33031 13.1843 5.40818 13.3647 5.48535 13.5218C5.54304 13.6394 5.60647 13.7546 5.67495 13.8677ZM5.7087 17.5136C4.78302 17.5136 4.02992 16.8139 4.02992 15.9539C4.02992 15.0939 4.78302 14.3942 5.7087 14.3942C5.83527 14.3942 5.95842 14.4078 6.07701 14.4327C6.26622 14.6616 6.47994 14.8787 6.71746 15.0825C6.88038 15.2223 7.0992 15.4002 7.34206 15.5931C7.37177 15.7089 7.38752 15.8297 7.38752 15.9539C7.38749 16.8139 6.63442 17.5136 5.7087 17.5136ZM11.8166 17.5136H7.17243C7.60613 17.1489 7.88714 16.6255 7.91252 16.0405C8.4081 16.425 8.90582 16.8026 9.18999 17.0171C9.27964 17.0848 9.38705 17.1186 9.49452 17.1186C9.60196 17.1186 9.7094 17.0848 9.79909 17.0171C10.0832 16.8026 10.5809 16.4251 11.0765 16.0405C11.1019 16.6255 11.3829 17.1489 11.8166 17.5136ZM13.0304 13.2894C12.7786 13.8021 12.4077 14.2708 11.9281 14.6823C11.3357 15.1908 9.93283 16.2552 9.49449 16.5863C9.05604 16.2552 7.65324 15.1907 7.06088 14.6823C6.58127 14.2708 6.21043 13.8021 5.95856 13.2894C5.95013 13.2722 5.94169 13.2539 5.93322 13.2361C6.24896 13.3212 6.57227 13.3663 6.88344 13.3663C7.16902 13.3663 7.44451 13.3284 7.69427 13.2491C8.35438 13.0393 8.77616 12.27 8.59693 11.6029C8.38113 10.7998 7.54763 10.4061 6.93945 10.1797C6.73951 10.1054 6.53873 10.0439 6.33868 9.99496C6.69394 9.72014 7.13868 9.56548 7.58922 9.56548H7.59407C8.24001 9.56706 8.83332 9.86351 9.22191 10.3788C9.28615 10.4639 9.38803 10.5148 9.49445 10.5148C9.60087 10.5148 9.70276 10.4639 9.76702 10.3787C10.1556 9.86347 10.7489 9.56703 11.3948 9.56545H11.3997C11.8547 9.56545 12.304 9.72299 12.661 10.003C12.4581 10.0516 12.2545 10.113 12.0516 10.1877C11.614 10.349 11.0597 10.5964 10.7015 11.0207C10.5613 11.1868 10.4511 11.3799 10.3897 11.6056C10.2084 12.2722 10.6278 13.0428 11.2872 13.2546C11.5398 13.3358 11.8185 13.3744 12.1079 13.3744C12.4167 13.3744 12.7375 13.3301 13.0509 13.2464C13.0441 13.2608 13.0373 13.2754 13.0304 13.2894ZM14.1696 14.0446C13.9071 13.9348 13.618 13.872 13.3141 13.8677C13.3826 13.7546 13.446 13.6394 13.5037 13.5218C13.5794 13.3679 13.6558 13.1917 13.7239 12.9983C13.8622 12.9322 13.9958 12.8581 14.1224 12.7764C14.1711 13.1243 14.1983 13.5508 14.1696 14.0446ZM14.7048 10.6508C14.8318 11.3296 14.4684 11.8159 14.1412 12.1042C13.4356 12.7262 12.2529 13.0109 11.4485 12.7526C11.0518 12.6251 10.7897 12.1445 10.8986 11.7441C11.053 11.1768 11.7347 10.8666 12.234 10.6826C12.5678 10.5596 12.9029 10.4754 13.2301 10.4323C13.3089 10.4219 13.3799 10.3755 13.4211 10.3075C13.4801 10.2104 13.4718 10.0913 13.4019 10.0021C13.3335 9.91487 13.2586 9.83201 13.1795 9.75579C13.1396 9.71743 13.0982 9.68097 13.056 9.6454C13.2634 9.50013 13.4589 9.34259 13.6407 9.17394C14.0453 9.45442 14.5726 9.94433 14.7048 10.6508ZM12.5839 9.3294C12.2199 9.14068 11.8117 9.03813 11.3997 9.03813C11.3977 9.03813 11.3956 9.03813 11.3936 9.03813C10.6595 9.03992 9.97944 9.34452 9.49452 9.8814C9.0096 9.34452 8.32949 9.03992 7.59544 9.03813C7.59337 9.03813 7.5914 9.03813 7.58932 9.03813C7.17746 9.03813 6.76929 9.14064 6.40534 9.3293C5.16598 8.53545 4.36342 7.27725 4.36342 5.86302C4.36342 3.46738 6.66522 1.51841 9.49452 1.51841C12.3238 1.51841 14.6256 3.46738 14.6256 5.86302C14.6256 7.27725 13.8232 8.53556 12.5839 9.3294ZM14.7117 3.97709C14.1701 2.87045 13.1667 1.97103 11.9107 1.45823C12.3481 0.862559 12.7962 0.527476 13.621 0.570966C14.2385 0.603556 14.8514 0.959135 15.2206 1.49894C15.5397 1.96575 15.6274 2.49005 15.4674 2.97529C15.3624 3.29395 15.187 3.63005 14.7117 3.97709Z" fill="#7D879C"/>
</g>
<defs>
<clipPath id="clip0_10062_47505">
<rect width="18" height="18" fill="white" transform="translate(0.494629 0.0400391)"/>
</clipPath>
</defs>
</svg>
