<svg width="19" height="19" viewBox="0 0 19 19" fill="none" xmlns="http://www.w3.org/2000/svg">
<g clip-path="url(#clip0_10062_47350)">
<path d="M4.93424 14.8165C5.27357 14.8165 5.27413 14.2891 4.93424 14.2891C4.59495 14.2891 4.59439 14.8165 4.93424 14.8165Z" fill="#7D879C"/>
<path d="M9.49469 14.8165C9.83402 14.8165 9.83458 14.2891 9.49469 14.2891C9.15539 14.2891 9.15479 14.8165 9.49469 14.8165Z" fill="#7D879C"/>
<path d="M14.0552 14.8165C14.3945 14.8165 14.3951 14.2891 14.0552 14.2891C13.7159 14.2891 13.7153 14.8165 14.0552 14.8165Z" fill="#7D879C"/>
<path d="M6.10322 9.8443C6.44254 9.8443 6.44311 9.31696 6.10322 9.31696C5.76389 9.31696 5.76333 9.8443 6.10322 9.8443Z" fill="#7D879C"/>
<path d="M9.49469 9.8443C9.83402 9.8443 9.83458 9.31696 9.49469 9.31696C9.15539 9.31696 9.15479 9.8443 9.49469 9.8443Z" fill="#7D879C"/>
<path d="M12.8862 9.8443C13.2256 9.8443 13.2261 9.31696 12.8862 9.31696C12.5469 9.31696 12.5463 9.8443 12.8862 9.8443Z" fill="#7D879C"/>
<path d="M12.928 3.45609C13.0615 3.45609 13.1923 3.32166 13.1917 3.19126L13.1898 2.77456C13.1883 2.44349 12.6609 2.42939 12.6625 2.77688L12.6643 3.19358C12.665 3.33881 12.7829 3.45609 12.928 3.45609Z" fill="#7D879C"/>
<path d="M11.8231 3.77483C12.0652 4.01431 12.4365 3.63997 12.194 3.39999L11.8976 3.10665C11.6553 2.86688 11.2844 3.24168 11.5267 3.48148L11.8231 3.77483Z" fill="#7D879C"/>
<path d="M11.2209 4.78128H11.2221L11.6394 4.77942C11.9724 4.77794 11.9628 4.25208 11.6371 4.25208L11.2197 4.25394C10.8795 4.25545 10.8808 4.78128 11.2209 4.78128Z" fill="#7D879C"/>
<path d="M11.8467 5.2479L11.5529 5.54384C11.3127 5.78565 11.6867 6.15753 11.9271 5.91537L12.2209 5.61943C12.4611 5.37755 12.0868 5.00588 11.8467 5.2479Z" fill="#7D879C"/>
<path d="M13.6956 5.22308C13.5932 5.32658 13.594 5.4935 13.6975 5.59594L13.994 5.88929C14.2361 6.12877 14.6074 5.75443 14.3649 5.51445C14.2368 5.34426 13.9154 5.00099 13.6956 5.22308Z" fill="#7D879C"/>
<path d="M13.9897 4.48136C13.9903 4.61207 14.1213 4.74387 14.2545 4.74387L14.6719 4.742C15.0049 4.74053 14.9953 4.21466 14.6695 4.21466L14.2522 4.21652C14.1066 4.21719 13.9891 4.33577 13.9897 4.48136Z" fill="#7D879C"/>
<path d="M13.8578 3.82591C13.9256 3.82591 13.9934 3.79993 14.0449 3.74801L14.3387 3.45206C14.5789 3.21012 14.2046 2.83855 13.9644 3.08053L13.6707 3.37648C13.515 3.53331 13.637 3.82591 13.8578 3.82591Z" fill="#7D879C"/>
<path d="M6.02564 1.59794C6.15912 1.59794 6.28994 1.4635 6.28934 1.33311L6.28748 0.916402C6.286 0.585335 5.75859 0.571237 5.76014 0.918722L5.762 1.33543C5.76267 1.48066 5.88055 1.59794 6.02564 1.59794Z" fill="#7D879C"/>
<path d="M4.9208 1.91663C5.16289 2.15611 5.53421 1.78177 5.29174 1.54179L4.9953 1.24845C4.753 1.00865 4.38207 1.38348 4.62436 1.62328L4.9208 1.91663Z" fill="#7D879C"/>
<path d="M4.31851 2.92313H4.31971L4.73705 2.92126C5.07005 2.91979 5.06045 2.39392 4.73473 2.39392L4.31739 2.39578C3.97711 2.39733 3.97841 2.92313 4.31851 2.92313Z" fill="#7D879C"/>
<path d="M4.94433 3.3898L4.65057 3.68574C4.41048 3.92758 4.78441 4.29943 5.02481 4.05727L5.31857 3.76133C5.55876 3.51938 5.18449 3.14782 4.94433 3.3898Z" fill="#7D879C"/>
<path d="M6.79324 3.36493C6.6908 3.46843 6.69168 3.63538 6.79521 3.73779L7.09165 4.0311C7.33366 4.27069 7.70509 3.89621 7.46258 3.65627L7.16614 3.36296C7.06261 3.26048 6.89569 3.26139 6.79324 3.36493Z" fill="#7D879C"/>
<path d="M7.0874 2.6232C7.08807 2.76843 7.20595 2.88571 7.35104 2.88571H7.35224L7.76957 2.88385C8.10257 2.88237 8.09297 2.35651 7.76725 2.35651L7.34991 2.35837C7.2043 2.359 7.08677 2.47758 7.0874 2.6232Z" fill="#7D879C"/>
<path d="M6.95544 1.96772C7.02322 1.96772 7.091 1.94174 7.14254 1.88982L7.43634 1.59387C7.67656 1.35196 7.30222 0.980291 7.0621 1.22234L6.7683 1.51829C6.6126 1.67512 6.73466 1.96772 6.95544 1.96772Z" fill="#7D879C"/>
<path d="M18.231 16.8187H16.5929V13.928C16.5929 12.9664 15.8139 12.1835 14.8538 12.1769V9.22349C14.8538 8.29375 14.1254 7.53121 13.2094 7.47566V4.33864C13.2094 4.19298 13.0914 4.07497 12.9458 4.07497C12.8001 4.07497 12.6821 4.19298 12.6821 4.33864V7.47208H10.7213V4.51614C10.7213 4.37049 10.6033 4.25247 10.4577 4.25247H9.75405V3.31471C10.8038 3.02668 10.4313 1.97445 10.0867 1.31643C9.90547 0.970352 9.72705 0.678344 9.71952 0.666074C9.56962 0.498027 9.41968 0.498027 9.26977 0.666074C9.26225 0.678344 9.08383 0.970352 8.90263 1.31643C8.55877 1.97301 8.18126 3.01514 9.22674 3.31229V4.25247H8.53166C8.38601 4.25247 8.26799 4.37049 8.26799 4.51614V7.47208H6.30722V2.48045C6.30722 2.13954 5.77988 2.13954 5.77988 2.48045V7.47566C4.86385 7.53125 4.13555 8.29375 4.13555 9.22349V12.1769C3.17547 12.1835 2.39641 12.9664 2.39641 13.928V16.8187H0.758301C0.612648 16.8187 0.494629 16.9367 0.494629 17.0824C0.494629 17.8861 1.14854 18.54 1.95228 18.54H17.037C17.8407 18.54 18.4946 17.8861 18.4946 17.0824C18.4946 16.9368 18.3766 16.8187 18.231 16.8187ZM9.04136 2.37034C9.04136 2.03249 9.34005 1.60671 9.49505 1.32708C9.64461 1.59599 10.0059 2.11423 9.93036 2.44973C9.818 2.94877 9.04136 2.94592 9.04136 2.37034ZM8.79527 5.86312H10.194V6.38874H8.79527V5.86312ZM10.194 4.77981V5.33577H8.7953V4.77981H10.194ZM8.79527 6.91608H10.194V7.47204H8.79527V6.91608ZM5.88689 7.99942H13.1024C13.7193 7.99942 14.2308 8.45825 14.3142 9.05249C13.9176 9.16728 13.6947 9.52921 13.5095 9.83036C13.2945 10.1799 13.1494 10.3941 12.8862 10.3941C12.6229 10.3941 12.4778 10.1799 12.2628 9.83032C12.0395 9.4673 11.7616 9.01547 11.1902 9.01547C10.6189 9.01547 10.3411 9.4673 10.1177 9.83036C9.90276 10.1799 9.75767 10.3941 9.49445 10.3941C9.23127 10.3941 9.08615 10.1799 8.87117 9.83036C8.64789 9.4673 8.37002 9.01547 7.79869 9.01547C7.55921 9.01547 7.34324 9.0989 7.15674 9.26346C6.90112 9.48903 7.24997 9.88447 7.50563 9.6589C7.59661 9.57864 7.687 9.54282 7.79869 9.54282C8.06187 9.54282 8.207 9.75706 8.42198 10.1066C8.64525 10.4696 8.92313 10.9215 9.49445 10.9215C10.0658 10.9215 10.3437 10.4696 10.567 10.1066C10.7819 9.75706 10.927 9.54282 11.1902 9.54282C11.4535 9.54282 11.5986 9.75706 11.8136 10.1066C12.0369 10.4696 12.3148 10.9215 12.8862 10.9215C13.4575 10.9215 13.7354 10.4696 13.9587 10.1066C14.0933 9.88777 14.2005 9.72201 14.3265 9.6286V12.1765H4.66282V9.62863C4.78875 9.72204 4.89595 9.8878 5.03052 10.1066C5.2538 10.4697 5.53168 10.9215 6.103 10.9215C6.38274 10.9215 6.62085 10.813 6.83102 10.5899C7.06477 10.3417 6.68083 9.98013 6.44711 10.2283C6.33767 10.3446 6.23473 10.3942 6.103 10.3942C5.83982 10.3942 5.6947 10.1799 5.47971 9.83039C5.29455 9.52928 5.07159 9.16735 4.67502 9.05253C4.75845 8.45821 5.26997 7.99942 5.88689 7.99942ZM4.14779 12.7039H4.39912H14.5901H14.8414C15.4407 12.7039 15.9405 13.1369 16.0451 13.7064C15.5155 13.832 15.2255 14.3028 14.9654 14.7256C14.6591 15.2237 14.4447 15.5261 14.0509 15.5261C13.7882 15.5261 13.5955 15.4723 13.1363 14.7256C12.8331 14.2327 12.4895 13.674 11.7725 13.674C11.0556 13.674 10.7119 14.2327 10.4088 14.7256C10.1024 15.2237 9.88803 15.5262 9.49428 15.5262C9.23159 15.5262 9.039 15.4723 8.57979 14.7256C8.27664 14.2327 7.93306 13.674 7.21612 13.674C6.49918 13.674 6.15563 14.2327 5.85248 14.7256C5.54616 15.2237 5.33174 15.5262 4.93806 15.5262C4.67537 15.5262 4.48279 15.4723 4.02358 14.7256C3.76356 14.3028 3.47356 13.832 2.94404 13.7065C3.04873 13.1369 3.54848 12.7039 4.14779 12.7039ZM17.037 18.0127H1.95228C1.53086 18.0127 1.17395 17.731 1.06001 17.3461H13.3791C13.7201 17.3461 13.7201 16.8187 13.3791 16.8187H2.92368V14.2482C3.08955 14.3233 3.27549 14.5157 3.57449 15.0018C3.87764 15.4948 4.22123 16.0535 4.93817 16.0535C5.65507 16.0535 5.99862 15.4948 6.30177 15.0018C6.60809 14.5037 6.82251 14.2013 7.21622 14.2013C7.47891 14.2013 7.6715 14.2552 8.13071 15.0018C8.43386 15.4948 8.77744 16.0535 9.49438 16.0535C10.2113 16.0535 10.5549 15.4948 10.8581 15.0018C11.1644 14.5037 11.3789 14.2013 11.7726 14.2013C12.0353 14.2013 12.228 14.2552 12.6872 15.0018C12.9904 15.4948 13.334 16.0534 14.051 16.0534C14.768 16.0534 15.1115 15.4947 15.4147 15.0018C15.6452 14.6271 15.8237 14.3632 16.0656 14.2554V16.8187H14.7146C14.3737 16.8187 14.3737 17.3461 14.7146 17.3461H17.9293C17.8153 17.731 17.4584 18.0127 17.037 18.0127Z" fill="#7D879C"/>
</g>
<defs>
<clipPath id="clip0_10062_47350">
<rect width="18" height="18" fill="white" transform="translate(0.494629 0.540039)"/>
</clipPath>
</defs>
</svg>
