<svg width="19" height="19" viewBox="0 0 19 19" fill="none" xmlns="http://www.w3.org/2000/svg">
<g clip-path="url(#clip0_9470_85029)">
<path d="M17.7368 7.29857C17.7368 6.7314 17.2754 6.26997 16.7084 6.26997H15.9499C15.3828 6.26997 14.9213 6.7314 14.9213 7.29857V8.56584L14.9212 10.8275C14.9212 10.8569 14.8974 10.8807 14.868 10.8807H14.5665C14.4252 10.6063 14.139 10.4181 13.8095 10.4181H10.2491V9.60172H11.8673C12.4386 9.60172 12.9848 9.35754 13.3658 8.93182C13.7467 8.5061 13.929 7.93633 13.866 7.36847L13.2496 1.82861C13.136 0.808945 12.2769 0.0400391 11.2511 0.0400391H7.71883C6.69284 0.0400391 5.83371 0.808945 5.72028 1.82861L5.62634 2.67278C5.61028 2.81752 5.71451 2.94785 5.85925 2.96405C6.004 2.98012 6.13446 2.87575 6.15053 2.73114L6.24432 1.88684C6.32809 1.13469 6.96187 0.567383 7.71883 0.567383H11.2511C12.0079 0.567383 12.6418 1.13469 12.7254 1.88684L13.3418 7.42683C13.3883 7.84569 13.2539 8.26605 12.9728 8.58012C12.6918 8.8942 12.2889 9.07437 11.8673 9.07437H7.10249C6.68103 9.07437 6.27811 8.8942 5.99699 8.58012C5.71588 8.26605 5.58144 7.84569 5.62799 7.42683L6.0338 3.77924C6.04987 3.63463 5.94563 3.50417 5.80089 3.4881C5.65642 3.47203 5.52582 3.57626 5.50975 3.72101L5.10394 7.36847C5.04077 7.93633 5.22301 8.5061 5.6041 8.93182C5.98505 9.35754 6.5312 9.60172 7.10249 9.60172H8.72078V10.4181H5.16025C4.83093 10.4181 4.5446 10.6063 4.40329 10.8807H4.10172C4.07246 10.8807 4.04857 10.8569 4.04857 10.8275L4.04843 8.56584V7.29857C4.04843 6.7314 3.58701 6.26997 3.01984 6.26997H2.26151C1.69434 6.26997 1.23291 6.7314 1.23291 7.29857C1.23291 8.06075 1.79294 8.69466 2.52312 8.81056V10.8275C2.52312 11.698 3.23132 12.4061 4.10172 12.4061H4.83231C5.09515 12.6324 5.43683 12.7693 5.80995 12.7693H8.72078V15.0831H6.25105C5.04187 15.0831 4.05818 16.0668 4.05818 17.2759C4.05818 17.6973 4.40096 18.04 4.82228 18.04C5.24374 18.04 5.58652 17.6973 5.58652 17.2759C5.58652 16.9094 5.88452 16.6113 6.25105 16.6113H8.72078V17.2759C8.72078 17.6973 9.06355 18.04 9.48488 18.04C9.90634 18.04 10.2491 17.6973 10.2491 17.2759V16.6113H12.7188C13.0852 16.6113 13.3834 16.9094 13.3834 17.2758C13.3834 17.6971 13.7262 18.04 14.1475 18.04C14.5689 18.04 14.9117 17.6971 14.9117 17.2758C14.9117 16.0666 13.9279 15.0829 12.7188 15.0829H10.2491V12.7692H10.7634C10.9091 12.7692 11.0271 12.6512 11.0271 12.5055C11.0271 12.36 10.9091 12.2419 10.7634 12.2419H5.80995C5.27341 12.2419 4.83684 11.8053 4.83684 11.2688C4.83684 11.0905 4.98199 10.9453 5.16025 10.9453H13.8095C13.9879 10.9453 14.1329 11.0905 14.1329 11.2688C14.1329 11.8053 13.6965 12.2419 13.1598 12.2419H11.8191C11.6735 12.2419 11.5554 12.36 11.5554 12.5055C11.5554 12.6512 11.6735 12.7692 11.8191 12.7692H13.1598C13.5329 12.7692 13.8747 12.6323 14.1375 12.4061H14.868C15.7386 12.4061 16.4466 11.6979 16.4466 10.8275V8.81042C17.177 8.69466 17.7368 8.06075 17.7368 7.29857ZM9.98544 15.6104H12.7188C13.6372 15.6104 14.3844 16.3575 14.3844 17.2759C14.3844 17.4065 14.2781 17.5127 14.1475 17.5127C14.0169 17.5127 13.9107 17.4065 13.9107 17.2759C13.9107 16.6187 13.376 16.0839 12.7188 16.0839H9.98544C9.83974 16.0839 9.72177 16.202 9.72177 16.3476V17.2759C9.72177 17.4065 9.61548 17.5127 9.48488 17.5127C9.35428 17.5127 9.24812 17.4065 9.24812 17.2759V16.3476C9.24812 16.202 9.13002 16.0839 8.98445 16.0839H6.25105C5.5938 16.0839 5.05917 16.6187 5.05917 17.2758C5.05917 17.4064 4.95288 17.5127 4.82228 17.5127C4.69168 17.5127 4.58553 17.4064 4.58553 17.2758C4.58553 16.3575 5.3326 15.6103 6.25105 15.6103H8.98445C9.13002 15.6103 9.24812 15.4923 9.24812 15.3466V12.7692H9.72177V15.3466C9.72177 15.4923 9.83974 15.6104 9.98544 15.6104ZM1.76025 7.29857C1.76025 7.02213 1.98506 6.79732 2.26151 6.79732H3.01984C3.29628 6.79732 3.52109 7.02213 3.52109 7.29857V8.30217H2.76385C2.21042 8.30217 1.76025 7.85187 1.76025 7.29857ZM3.05046 10.8275V8.82951H3.52122V10.8275C3.52122 11.1476 3.7816 11.408 4.10172 11.408H4.31595C4.33133 11.5743 4.3739 11.7327 4.43913 11.8789H4.10172C3.52205 11.8788 3.05046 11.4072 3.05046 10.8275ZM9.24812 9.60172H9.72177V10.4181H9.24812V9.60172ZM14.868 11.8788H14.5306C14.5959 11.7327 14.6386 11.5742 14.6539 11.408H14.868C15.1882 11.408 15.4485 11.1476 15.4485 10.8275L15.4487 8.82938H15.9193V10.8275C15.9193 11.4072 15.4477 11.8788 14.868 11.8788ZM16.2059 8.30217H15.4487V7.29857C15.4487 7.02213 15.6735 6.79732 15.9498 6.79732H16.7083C16.9847 6.79732 17.2095 7.02213 17.2095 7.29857C17.2095 7.85187 16.7593 8.30217 16.2059 8.30217Z" fill="#7D879C"/>
</g>
<defs>
<clipPath id="clip0_9470_85029">
<rect width="18" height="18" fill="white" transform="translate(0.494629 0.0400391)"/>
</clipPath>
</defs>
</svg>
