<svg width="19" height="19" viewBox="0 0 19 19" fill="none" xmlns="http://www.w3.org/2000/svg">
<g clip-path="url(#clip0_10062_47379)">
<path d="M13.4621 10.5853C13.9392 10.5853 14.3272 10.1971 14.3272 9.72009C14.3272 9.57444 14.2092 9.45642 14.0636 9.45642C13.918 9.45642 13.7999 9.57444 13.7999 9.72009C13.7999 9.90639 13.6483 10.0579 13.4621 10.0579C13.2758 10.0579 13.1243 9.90635 13.1243 9.72009C13.1243 9.57444 13.0062 9.45642 12.8606 9.45642C12.715 9.45642 12.5969 9.57444 12.5969 9.72009C12.5969 10.1971 12.985 10.5853 13.4621 10.5853Z" fill="#7D879C"/>
<path d="M14.8445 9.10628C14.9902 9.10628 15.1082 8.98826 15.1082 8.84261V8.56709C15.2384 8.55095 15.3392 8.43996 15.3392 8.30542C15.3392 8.15977 15.2211 8.04175 15.0755 8.04175H14.8445C14.6989 8.04175 14.5809 8.15977 14.5809 8.30542V8.84261C14.5809 8.98826 14.6989 9.10628 14.8445 9.10628Z" fill="#7D879C"/>
<path d="M11.8159 8.56709V8.84261C11.8159 8.98826 11.934 9.10628 12.0796 9.10628C12.2252 9.10628 12.3433 8.98826 12.3433 8.84261V8.30542C12.3433 8.15977 12.2252 8.04175 12.0796 8.04175H11.8486C11.703 8.04175 11.585 8.15977 11.585 8.30542C11.585 8.43993 11.6858 8.55095 11.8159 8.56709Z" fill="#7D879C"/>
<path d="M17.4029 8.88998C17.4777 8.7316 17.5198 8.55484 17.5198 8.36837C17.5198 8.05804 17.4036 7.77447 17.2127 7.55833C17.243 7.51541 17.261 7.46317 17.261 7.4066C17.261 6.62782 17.2998 6.16597 17.0656 5.4961C17.0175 5.35864 16.8671 5.28605 16.7296 5.33424C16.5921 5.3823 16.5197 5.53274 16.5678 5.6702C16.7592 6.21762 16.7336 6.59734 16.7336 7.14293C16.3973 7.14293 15.4913 7.14293 15.1093 7.14293C14.3464 7.14293 13.7257 6.52228 13.7257 5.75939C13.7257 5.61374 13.6076 5.49572 13.462 5.49572C13.3164 5.49572 13.1983 5.61374 13.1983 5.75939C13.1983 6.52228 12.5777 7.14293 11.8147 7.14293H10.6691H10.1904V6.65172C10.1904 5.01309 11.5236 3.67997 13.1622 3.67997C13.1821 3.67997 13.1983 3.69618 13.1983 3.71611C13.1983 3.86173 13.3164 3.97975 13.462 3.97975C13.6076 3.97975 13.7257 3.86173 13.7257 3.71611C13.7257 3.69618 13.7419 3.67997 13.7618 3.67997C14.6209 3.68 15.4376 4.05167 16.0026 4.69967C16.0983 4.80947 16.2649 4.82079 16.3746 4.72516C16.4844 4.62943 16.4958 4.4629 16.4001 4.35314C15.7349 3.59025 14.7733 3.15269 13.7619 3.15266C13.6517 3.15266 13.5489 3.18441 13.462 3.23921C13.3752 3.18441 13.2723 3.15266 13.1622 3.15266C11.2328 3.15266 9.66313 4.72235 9.66313 6.65176V7.40663C9.66313 7.46316 9.6811 7.51544 9.71137 7.55837C9.62284 7.6586 9.55035 7.77324 9.49818 7.89847C9.4665 7.50964 9.27033 7.16817 8.97745 6.94479V5.94027C8.97745 3.96252 7.36845 2.35352 5.3907 2.35352C4.89964 2.35352 5.09641 2.34505 4.41719 2.39814C3.48027 2.47126 2.64183 2.97262 2.13428 3.7526L1.34024 3.49881C1.17571 3.44607 1.00489 3.56399 0.99659 3.73738C0.992828 3.81683 0.91327 5.58259 1.23523 6.81246C0.796586 7.03247 0.494629 7.4863 0.494629 8.0096C0.494629 8.68861 1.00285 9.25118 1.6589 9.33689C1.82403 10.0454 2.21412 10.6885 2.77216 11.1654C2.91848 11.2905 3.07461 11.4018 3.23808 11.4996H2.68325C1.77161 11.4996 1.02995 12.2413 1.02995 13.1529V15.4635C1.02995 15.6091 1.14801 15.7271 1.29362 15.7271H1.73164C1.87725 15.7271 1.99531 15.6091 1.99531 15.4635C1.99531 15.3178 1.87725 15.1998 1.73164 15.1998H1.5573V13.1529C1.5573 12.532 2.06239 12.0269 2.68325 12.0269H3.45029C3.58131 12.8044 4.28444 13.3889 5.10586 13.3359C5.84945 13.288 6.4386 12.7285 6.55697 12.0269H7.32412C7.94498 12.0269 8.4501 12.532 8.4501 13.1529V15.1998H2.96214C2.81652 15.1998 2.69847 15.3178 2.69847 15.4635C2.69847 15.6091 2.81652 15.7271 2.96214 15.7271H8.71381C8.85943 15.7271 8.97748 15.6091 8.97748 15.4635V13.1529C8.97748 12.9333 8.9341 12.7238 8.85605 12.532H9.27968C9.54494 12.532 9.79792 12.479 10.0291 12.3836C9.86648 12.6351 9.77162 12.9344 9.77162 13.2556V15.4635C9.77162 15.6091 9.88968 15.7271 10.0353 15.7271H16.9066C17.0522 15.7271 17.1703 15.6091 17.1703 15.4635V13.2556C17.1703 12.9384 17.0777 12.6425 16.9187 12.3929C17.1435 12.4823 17.3883 12.532 17.6446 12.532H18.231C18.3766 12.532 18.4946 12.4139 18.4946 12.2683V10.6534C18.4946 9.90227 18.0593 9.21932 17.4029 8.88998ZM11.8148 7.67031C12.5156 7.67031 13.1295 7.29118 13.4621 6.72717C13.7947 7.29118 14.4086 7.67031 15.1094 7.67031H16.2944C16.6793 7.67031 16.9924 7.98344 16.9924 8.36837C16.9924 8.55659 16.9172 8.72731 16.7957 8.85296C16.6569 8.9964 16.4644 9.07371 16.2664 9.06566C16.133 9.0595 16.0171 9.15432 15.9952 9.28559C15.7946 10.4849 14.7571 11.4272 13.4621 11.4272C12.5471 11.4272 11.6924 10.9435 11.2325 10.139C11.2283 10.1281 11.2233 10.1175 11.2176 10.1072C11.1102 9.91464 11.0288 9.71119 10.9745 9.50012C10.9734 9.4959 10.9725 9.49161 10.9714 9.48739C10.9565 9.42791 10.9422 9.3648 10.929 9.28556C10.9071 9.1546 10.7907 9.05957 10.6578 9.06562C10.2632 9.08165 9.93173 8.76331 9.93173 8.3683C9.93173 7.98337 10.2449 7.67024 10.6298 7.67024C10.6394 7.67024 10.6489 7.67066 10.6585 7.67101C10.6697 7.67147 10.6808 7.67118 10.6918 7.67024H11.8148V7.67031ZM13.4664 13.0637C12.9647 13.0637 12.5566 12.6555 12.5566 12.1538V11.9083V11.8197C12.8558 11.9115 13.1683 11.9546 13.462 11.9546C13.7654 11.9546 14.0813 11.9085 14.3762 11.8171V12.1538C14.3762 12.6398 13.9932 13.0381 13.5131 13.0625C13.4977 13.0633 13.4821 13.0637 13.4664 13.0637ZM11.3822 11.6446C11.3822 11.6446 11.382 11.6446 11.3819 11.6446C11.2012 11.6447 11.0275 11.6752 10.8652 11.7304C11.0281 11.5101 11.1462 11.2548 11.2061 10.978C11.2834 11.0604 11.3652 11.1391 11.4517 11.213C11.6299 11.3653 11.8239 11.4956 12.0292 11.6028V11.6446H11.3822ZM14.9036 11.5985C15.2021 11.4415 15.4752 11.2367 15.7181 10.978C15.7773 11.2515 15.8933 11.504 16.0533 11.7224C15.7523 11.6252 15.5952 11.6446 14.9036 11.6446V11.5985H14.9036ZM1.51472 4.10817L2.17246 4.31837C2.29231 4.35658 2.4226 4.30494 2.48349 4.19476C2.88747 3.46393 3.62571 2.9888 4.45825 2.92386C5.12112 2.87211 4.92013 2.88083 5.3907 2.88083C7.07764 2.88083 8.4501 4.25326 8.4501 5.94023V6.70189C8.21969 6.65229 8.29257 6.67204 4.67639 6.67204C4.4135 6.67204 4.16167 6.61362 3.93477 6.50811C3.43559 6.27601 3.05703 5.81606 2.94614 5.24927C2.90378 5.03271 2.63723 4.96757 2.49484 5.11976C2.11449 5.52637 1.84857 6.00805 1.70418 6.50794C1.52288 5.68781 1.50822 4.64124 1.51472 4.10817ZM2.13702 9.03992C2.11568 8.91241 2.00533 8.81974 1.87708 8.81974C1.87353 8.81974 1.86994 8.81981 1.86636 8.81995C1.85535 8.82041 1.84435 8.82083 1.83324 8.82083C1.38591 8.82083 1.02197 8.45693 1.02197 8.0096C1.02197 7.56979 1.37255 7.21429 1.80378 7.19907C1.80483 7.19904 1.80592 7.19904 1.80698 7.199C1.82659 7.1984 1.84621 7.1984 1.86572 7.19921C1.86614 7.19921 1.86657 7.19921 1.86699 7.19925C1.8678 7.19928 1.86861 7.19918 1.86941 7.19921C2.00093 7.20329 2.11526 7.10932 2.13702 6.97927C2.19654 6.62339 2.32152 6.28483 2.50483 5.97792C2.53102 5.93408 2.55841 5.89087 2.58695 5.84837C2.94991 6.65447 3.76142 7.19942 4.67639 7.19942H8.20239H8.20257C8.33057 7.20533 8.46388 7.24397 8.57881 7.31242C8.58085 7.31365 8.58303 7.31445 8.5851 7.31561C8.82002 7.45768 8.97569 7.71502 8.97569 8.00956C8.97569 8.45689 8.61175 8.82079 8.16442 8.82079C8.15331 8.82079 8.14227 8.82034 8.13127 8.81991C7.99863 8.81517 7.88254 8.90886 7.8606 9.03989C7.62164 10.4688 6.39209 11.4594 4.99881 11.4594C3.59481 11.4594 2.37429 10.4586 2.13702 9.03992ZM4.95079 12.8109C4.43484 12.7851 4.01416 12.3837 3.96135 11.8719C3.96096 11.8681 3.96075 11.8642 3.9604 11.8603C3.95935 11.8489 3.95847 11.8375 3.9578 11.826C4.30504 11.9368 4.66711 11.9867 4.99888 11.9867C5.33691 11.9867 5.7019 11.935 6.04998 11.8227C6.0181 12.397 5.5258 12.8396 4.95079 12.8109ZM7.32415 11.4996H6.75965C6.92313 11.4018 7.07925 11.2905 7.22557 11.1654C7.78357 10.6885 8.1737 10.0454 8.3388 9.33689C8.82891 9.27287 9.23644 8.94264 9.41124 8.49658C9.42579 8.63594 9.4638 8.76841 9.52124 8.88998C8.8648 9.21932 8.42946 9.90223 8.42946 10.6534V11.9246C8.1364 11.6606 7.74877 11.4996 7.32415 11.4996ZM8.95684 12.0046V10.6534C8.95684 10.0667 9.31931 9.5365 9.85414 9.31695C10.0293 9.45997 10.2402 9.54983 10.4511 9.5808C10.5119 9.83516 10.6078 10.0836 10.7236 10.3026V10.5606C10.7236 11.3568 10.0758 12.0046 9.27961 12.0046H8.95684V12.0046ZM16.6429 15.1998H10.2989V13.2556C10.2989 12.6581 10.7851 12.172 11.3826 12.172H12.0294C12.0391 12.9506 12.6756 13.591 13.4664 13.591C14.2482 13.591 14.8936 12.9604 14.9035 12.172H15.5592C16.1567 12.172 16.6428 12.6581 16.6428 13.2556V15.1998H16.6429ZM17.9673 12.0046H17.6445C16.8483 12.0046 16.2005 11.3568 16.2005 10.5606V10.3026C16.318 10.0804 16.4129 9.83196 16.473 9.58084C16.6711 9.55176 16.8709 9.47125 17.0446 9.33629C17.053 9.32978 17.0617 9.32374 17.07 9.31702C17.6048 9.53654 17.9673 10.0667 17.9673 10.6534V12.0046Z" fill="#7D879C"/>
<path d="M4.99887 10.4609C5.51496 10.4609 5.93483 10.0411 5.93483 9.52496C5.93483 9.37931 5.81678 9.26129 5.67116 9.26129C5.52554 9.26129 5.40749 9.37931 5.40749 9.52496C5.40749 9.75028 5.22418 9.93358 4.99887 9.93358C4.77355 9.93358 4.59021 9.75028 4.59021 9.52496C4.59021 9.37931 4.47216 9.26129 4.32654 9.26129C4.18092 9.26129 4.06287 9.37931 4.06287 9.52496C4.0629 10.041 4.48277 10.4609 4.99887 10.4609Z" fill="#7D879C"/>
<path d="M3.45367 7.68878C3.30806 7.68878 3.19 7.8068 3.19 7.95245V8.53541C3.19 8.68107 3.30806 8.79909 3.45367 8.79909C3.59929 8.79909 3.71735 8.68107 3.71735 8.53541V7.95245C3.71735 7.80684 3.59929 7.68878 3.45367 7.68878Z" fill="#7D879C"/>
<path d="M6.54401 8.79909C6.68962 8.79909 6.80768 8.68107 6.80768 8.53541V7.95245C6.80768 7.8068 6.68962 7.68878 6.54401 7.68878C6.39839 7.68878 6.28033 7.8068 6.28033 7.95245V8.53541C6.28033 8.68107 6.39839 8.79909 6.54401 8.79909Z" fill="#7D879C"/>
</g>
<defs>
<clipPath id="clip0_10062_47379">
<rect width="18" height="18" fill="white" transform="translate(0.494629 0.0400391)"/>
</clipPath>
</defs>
</svg>
