<svg width="19" height="19" viewBox="0 0 19 19" fill="none" xmlns="http://www.w3.org/2000/svg">
<g clip-path="url(#clip0_10062_47399)">
<path d="M12.4953 14.9216C13.0769 14.9216 13.55 14.4484 13.55 13.8669C13.55 13.2853 13.0769 12.8122 12.4953 12.8122C11.9137 12.8122 11.4406 13.2853 11.4406 13.8669C11.4406 14.4484 11.9137 14.9216 12.4953 14.9216ZM12.4953 13.5153C12.6892 13.5153 12.8469 13.673 12.8469 13.8669C12.8469 14.0607 12.6892 14.2184 12.4953 14.2184C12.3014 14.2184 12.1437 14.0607 12.1437 13.8669C12.1437 13.673 12.3014 13.5153 12.4953 13.5153Z" fill="#7D879C"/>
<path d="M11.4406 10.5298C11.4406 9.94829 10.9675 9.47516 10.3859 9.47516C9.80437 9.47516 9.33124 9.94829 9.33124 10.5298C9.33124 11.1114 9.80437 11.5845 10.3859 11.5845C10.9675 11.5845 11.4406 11.1114 11.4406 10.5298ZM10.0344 10.5298C10.0344 10.336 10.1921 10.1783 10.3859 10.1783C10.5798 10.1783 10.7375 10.336 10.7375 10.5298C10.7375 10.7237 10.5798 10.8814 10.3859 10.8814C10.1921 10.8814 10.0344 10.7237 10.0344 10.5298Z" fill="#7D879C"/>
<path d="M9.52732 13.6183C9.46193 13.6837 9.42432 13.7744 9.42432 13.8668C9.42432 13.9593 9.46193 14.05 9.52732 14.1154C9.59271 14.1808 9.68342 14.2184 9.77588 14.2184C9.86834 14.2184 9.95904 14.1808 10.0244 14.1154C10.0898 14.05 10.1274 13.9593 10.1274 13.8668C10.1274 13.7744 10.0898 13.6837 10.0244 13.6183C9.95904 13.5529 9.86834 13.5153 9.77588 13.5153C9.68342 13.5153 9.59271 13.5529 9.52732 13.6183Z" fill="#7D879C"/>
<path d="M11.2532 4.95227C11.1607 4.95227 11.07 4.98954 11.0046 5.05528C10.9392 5.12067 10.9016 5.21102 10.9016 5.30383C10.9016 5.39629 10.9392 5.487 11.0046 5.55239C11.07 5.61778 11.1607 5.6554 11.2532 5.6554C11.3456 5.6554 11.4363 5.61778 11.5017 5.55239C11.5671 5.487 11.6047 5.39629 11.6047 5.30383C11.6047 5.21102 11.5671 5.12067 11.5017 5.05528C11.4363 4.98954 11.3456 4.95227 11.2532 4.95227Z" fill="#7D879C"/>
<path d="M3.65869 5.65529C3.69585 5.65529 3.72609 5.68552 3.72609 5.72268C3.72609 5.91685 3.88348 6.07424 4.07765 6.07424C4.27182 6.07424 4.42921 5.91685 4.42921 5.72268C4.42921 5.68552 4.45945 5.65529 4.49661 5.65529C4.69077 5.65529 4.84817 5.49789 4.84817 5.30372C4.84817 5.10955 4.69077 4.95216 4.49661 4.95216C4.45945 4.95216 4.42921 4.92193 4.42921 4.88477C4.42921 4.6906 4.27182 4.5332 4.07765 4.5332C3.88348 4.5332 3.72609 4.6906 3.72609 4.88477C3.72609 4.92193 3.69585 4.95216 3.65869 4.95216C3.46452 4.95216 3.30713 5.10955 3.30713 5.30372C3.30713 5.49789 3.46452 5.65529 3.65869 5.65529Z" fill="#7D879C"/>
<path d="M18.1431 9.10939C18.1059 9.10939 18.0757 9.07915 18.0757 9.04199C18.0757 8.84782 17.9183 8.69043 17.7241 8.69043C17.53 8.69043 17.3726 8.84782 17.3726 9.04199C17.3726 9.07915 17.3423 9.10939 17.3052 9.10939C17.111 9.10939 16.9536 9.26678 16.9536 9.46095C16.9536 9.65512 17.111 9.81251 17.3052 9.81251C17.3423 9.81251 17.3726 9.84275 17.3726 9.87991C17.3726 10.0741 17.53 10.2315 17.7241 10.2315C17.9183 10.2315 18.0757 10.0741 18.0757 9.87991C18.0757 9.84275 18.1059 9.81251 18.1431 9.81251C18.3373 9.81251 18.4947 9.65512 18.4947 9.46095C18.4947 9.26678 18.3373 9.10939 18.1431 9.10939Z" fill="#7D879C"/>
<path d="M14.3764 12.3451H15.108C15.2336 12.3451 15.3496 12.2781 15.4124 12.1694C15.4752 12.0606 15.4752 11.9266 15.4124 11.8178L14.7411 10.6551C14.644 10.4869 14.429 10.4293 14.2609 10.5265C14.0927 10.6235 14.0351 10.8385 14.1322 11.0067L14.499 11.642H13.7674C13.6418 11.642 13.5258 11.709 13.463 11.8178C13.4002 11.9266 13.4002 12.0606 13.463 12.1694L15.6357 15.9326H12.5181H11.4634V15.4404C11.4634 15.2463 11.306 15.0889 11.1118 15.0889H9.49463H8.08838H7.02958L8.71518 12.1694C8.778 12.0606 8.778 11.9266 8.71518 11.8178C8.65239 11.709 8.53634 11.642 8.41073 11.642H7.67909L10.2628 7.16697C10.3256 7.0582 10.3256 6.92418 10.2628 6.81541C10.2 6.70663 10.0839 6.63963 9.9583 6.63963H8.8293L10.5549 3.65078C10.5795 3.63767 10.6036 3.62304 10.6266 3.6062L11.0891 3.26867L11.5515 3.6062C11.5746 3.62304 11.5986 3.6377 11.6233 3.65082L13.3489 6.63966H12.2199C12.0943 6.63966 11.9782 6.70667 11.9154 6.81544C11.8526 6.92422 11.8526 7.05823 11.9154 7.167L12.5503 8.26673C12.6154 8.37951 12.7336 8.44254 12.8551 8.44254C12.9147 8.44254 12.9752 8.42736 13.0306 8.3954C13.1987 8.29833 13.2563 8.08332 13.1592 7.91516L12.8288 7.34279H13.9578C14.0834 7.34279 14.1994 7.27578 14.2622 7.167C14.3251 7.05823 14.3251 6.92422 14.2622 6.81544L12.3528 3.50819C12.4818 3.35448 12.5257 3.14302 12.461 2.94544L12.2829 2.40133L12.7491 2.06421C12.9573 1.91364 13.044 1.64821 12.9649 1.40373C12.8858 1.15926 12.66 0.995008 12.403 0.995008H11.8269L11.651 0.451C11.572 0.206348 11.3462 0.0419922 11.0891 0.0419922C10.832 0.0419922 10.6062 0.206348 10.5271 0.450965L10.3512 0.994973H9.77518C9.51822 0.994973 9.29241 1.15922 9.21327 1.4037C9.13414 1.64818 9.22087 1.91361 9.42906 2.06418L9.89523 2.40129L9.71713 2.94541C9.65244 3.14298 9.69635 3.35448 9.82538 3.50819L7.91594 6.81544C7.85311 6.92422 7.85311 7.05823 7.91594 7.167C7.97873 7.27578 8.09478 7.34279 8.22039 7.34279H9.3494L6.76573 11.8178C6.70291 11.9266 6.70291 12.0606 6.76573 12.1694C6.82852 12.2782 6.94457 12.3452 7.07018 12.3452H7.80178L6.82275 14.0409V12.9092C6.82275 12.715 6.66536 12.5576 6.47119 12.5576H5.6202C5.69234 12.4025 5.73291 12.2299 5.73291 12.0479C5.73291 11.3791 5.1888 10.835 4.52002 10.835C4.1835 10.835 3.87863 10.9728 3.65869 11.1949C3.43875 10.9728 3.13388 10.835 2.79736 10.835C2.12859 10.835 1.58447 11.3791 1.58447 12.0479C1.58447 12.2299 1.62504 12.4025 1.69718 12.5576H0.846191C0.652023 12.5576 0.494629 12.715 0.494629 12.9092V14.3154V17.6904C0.494629 17.8846 0.652023 18.042 0.846191 18.042H2.95557H4.36182H6.47119H8.08838H9.49463H11.1118H12.5181H14.7095C14.9036 18.042 15.061 17.8846 15.061 17.6904C15.061 17.4963 14.9036 17.3389 14.7095 17.3389H12.8696V16.6357H16.2446C16.3702 16.6357 16.4863 16.5687 16.5491 16.46C16.6119 16.3512 16.6119 16.2172 16.5491 16.1084L14.3764 12.3451ZM10.6071 1.6981C10.7596 1.6981 10.8947 1.59977 10.9416 1.45468L11.0891 0.998383L11.2365 1.45468C11.2834 1.59977 11.4186 1.6981 11.5711 1.6981H12.0554L11.6629 1.98195C11.5391 2.07153 11.4873 2.23093 11.5348 2.37619L11.6842 2.83266L11.2963 2.54951C11.2345 2.50444 11.1618 2.48191 11.089 2.48191C11.0162 2.48191 10.9435 2.50444 10.8817 2.54951L10.4938 2.83266L10.6432 2.37619C10.6907 2.23093 10.639 2.07153 10.5151 1.98195L10.1226 1.6981H10.6071ZM10.7603 16.2842V17.3389H9.84619V15.792H10.7603V16.2842ZM6.11963 15.4404V17.3389H4.71338V14.667H6.11963V15.4404ZM6.11963 13.9639H4.71338V13.2607H6.11963V13.9639ZM3.30713 13.2607H3.65869H4.01025V13.9639H3.30713V13.2607ZM4.52002 11.5381C4.80109 11.5381 5.02978 11.7668 5.02978 12.0479C5.02978 12.3289 4.80109 12.5576 4.52002 12.5576H4.36182H4.01025V12.0479C4.01025 11.7668 4.23895 11.5381 4.52002 11.5381ZM2.2876 12.0479C2.2876 11.7668 2.51629 11.5381 2.79736 11.5381C3.07844 11.5381 3.30713 11.7668 3.30713 12.0479V12.5576H2.95557H2.79736C2.51629 12.5576 2.2876 12.3289 2.2876 12.0479ZM1.19775 13.2607H2.604V13.9639H1.19775V13.2607ZM1.19775 14.667H2.604V17.3389H1.19775V14.667ZM3.30713 17.3389V14.667H4.01025V17.3389H3.30713ZM6.82275 15.792H7.73682V17.3389H6.82275V15.792ZM8.43994 17.3389V15.792H9.14307V17.3389H8.43994ZM11.4634 17.3389V16.6357H12.1665V17.3389H11.4634Z" fill="#7D879C"/>
<path d="M13.8944 9.70961C13.9598 9.64422 13.9974 9.55352 13.9974 9.46106C13.9974 9.36825 13.9598 9.2779 13.8944 9.2125C13.829 9.14676 13.7383 9.1095 13.6459 9.1095C13.5531 9.1095 13.4627 9.14676 13.3973 9.2125C13.3319 9.2779 13.2943 9.36825 13.2943 9.46106C13.2943 9.55352 13.3319 9.64422 13.3973 9.70961C13.4627 9.775 13.5531 9.81262 13.6459 9.81262C13.7383 9.81262 13.829 9.775 13.8944 9.70961Z" fill="#7D879C"/>
</g>
<defs>
<clipPath id="clip0_10062_47399">
<rect width="18" height="18" fill="white" transform="translate(0.494629 0.0419922)"/>
</clipPath>
</defs>
</svg>
