<svg width="19" height="19" viewBox="0 0 19 19" fill="none" xmlns="http://www.w3.org/2000/svg">
<g clip-path="url(#clip0_9470_85033)">
<path d="M3.81689 2.98024C3.9626 2.98024 4.08057 2.86214 4.08057 2.71657V1.08496C4.08057 1.07535 4.08853 1.06738 4.09814 1.06738H11.6677C11.6773 1.06738 11.6853 1.07535 11.6853 1.08496V6.42336C11.6853 6.56906 11.8033 6.68703 11.949 6.68703C12.0945 6.68703 12.2126 6.56906 12.2126 6.42336V1.08496C12.2126 0.784485 11.9682 0.540039 11.6677 0.540039H4.09814C3.79767 0.540039 3.55322 0.784485 3.55322 1.08496V2.71657C3.55322 2.86214 3.67119 2.98024 3.81689 2.98024Z" fill="#7D879C"/>
<path d="M16.1875 8.68929C15.8677 8.30119 15.3446 8.08696 14.8549 8.14436C14.3679 8.20108 13.9154 8.50568 13.674 8.93895C13.6102 9.05307 13.5623 9.16348 13.5159 9.27032C13.4865 9.33775 13.459 9.40106 13.4299 9.45984C13.2552 9.30727 13.091 9.13176 13.0392 8.9281C13.0145 8.83142 13.0126 8.71854 13.0105 8.59906C13.0081 8.46118 13.0053 8.30504 12.9655 8.14835C12.8924 7.86298 12.6987 7.60233 12.4336 7.43327C12.144 7.24898 11.7799 7.17812 11.4391 7.23195V6.79428C11.4392 6.78865 11.4392 6.78288 11.4391 6.77725V1.57715C11.4391 1.43144 11.321 1.31348 11.1754 1.31348H4.59033C4.44463 1.31348 4.32666 1.43144 4.32666 1.57715V10.0796C4.32666 10.2253 4.44463 10.3433 4.59033 10.3433H10.0504C10.196 10.3433 10.3141 10.2253 10.3141 10.0796C10.3141 9.93404 10.196 9.81593 10.0504 9.81593H4.854V9.3817C5.21394 9.28172 5.59668 9.31537 6.00194 9.35107C6.16344 9.36536 6.33043 9.38005 6.49673 9.38582C7.28143 9.41246 7.90944 9.17186 8.31236 8.6897C8.46397 8.50815 8.58372 8.30957 8.69949 8.11758C8.86374 7.84526 9.01878 7.58804 9.24634 7.40759C9.59831 7.1284 10.1445 7.00604 10.9117 7.03516V7.44234C10.5168 7.72729 10.3566 8.23308 10.5389 8.67995C10.6551 8.96188 10.886 9.15085 10.973 9.34531C11.1231 9.68245 10.7844 10.0366 10.801 10.5894H4.09814C4.08853 10.5894 4.08057 10.5814 4.08057 10.5718V3.77126C4.08057 3.62555 3.96246 3.50758 3.81689 3.50758C3.67119 3.50758 3.55322 3.62555 3.55322 3.77126V10.5718C3.55322 10.8723 3.79767 11.1167 4.09814 11.1167H10.9158C11.1294 11.6243 11.5509 11.8267 11.6015 12.2929C11.6394 12.6437 11.5851 12.9811 11.7721 13.452C11.7777 13.5433 11.7904 13.6342 11.8104 13.7236C11.8148 13.7438 11.8197 13.7639 11.825 13.7839H11.501C11.3232 13.7839 11.154 13.8607 11.037 13.9947C10.92 14.1286 10.8665 14.3065 10.8904 14.4828L11.3537 17.901C11.403 18.2654 11.7174 18.54 12.0849 18.54H14.2398C14.6074 18.54 14.9217 18.2654 14.9712 17.901L15.4342 14.4828C15.4581 14.3065 15.4047 14.1286 15.2877 13.9947C15.0768 13.7533 14.7837 13.7868 14.7681 13.7839C14.7903 13.584 14.7675 13.4057 14.7411 13.2089C14.6295 12.3766 14.8613 12.5051 15.3457 12.2701C15.4768 12.2066 15.5315 12.0489 15.4679 11.9179C15.4043 11.7869 15.2467 11.7321 15.1156 11.7957C15.0598 11.8229 14.9977 11.8463 14.9319 11.8712C14.6773 11.9672 14.3288 12.0989 14.2178 12.5583C14.156 12.8138 14.1892 13.061 14.2185 13.2791C14.2361 13.41 14.2527 13.5336 14.2492 13.6502C14.2479 13.6947 14.2433 13.7394 14.2355 13.7839H13.6069C13.5493 12.4326 14.0431 11.0604 14.9526 10.0715C15.0512 9.96439 15.0442 9.79753 14.937 9.69893C14.8299 9.60046 14.663 9.60733 14.5644 9.71458C13.5667 10.7995 13.0223 12.3021 13.0792 13.7839H12.3787C12.3091 13.6055 12.3059 13.4904 12.296 13.3719C12.275 12.5631 12.878 12.4391 12.9283 11.8656C12.9685 11.4083 12.5742 11.0761 12.6002 10.8316C12.6288 10.5583 13.1602 10.4253 13.4354 10.2455C13.8753 9.95779 13.946 9.53358 14.1346 9.19589C14.295 8.90791 14.5943 8.70563 14.916 8.66814C15.2272 8.63188 15.5749 8.77512 15.7807 9.02492C15.9333 9.20976 15.9599 9.5079 15.8427 9.71829C15.6665 10.0344 15.2252 10.2429 15.3042 10.9924C15.309 11.0372 15.3152 11.0832 15.3214 11.1303L15.3267 11.1707C15.3457 11.3152 15.4782 11.4166 15.6224 11.398C15.7667 11.3792 15.8685 11.2468 15.8497 11.1023L15.8442 11.0607C15.7551 10.392 16.032 10.4618 16.3033 9.97496C16.5277 9.57245 16.48 9.04373 16.1875 8.68929ZM14.9117 14.4119L14.4485 17.8302C14.4345 17.9341 14.3447 18.0127 14.2398 18.0127H12.0849C11.98 18.0127 11.8902 17.9343 11.8762 17.8302C11.4127 14.2639 11.3788 14.4051 11.4343 14.3416C11.4895 14.2783 11.3612 14.3306 14.8237 14.3111C14.8774 14.3111 14.9189 14.3585 14.9117 14.4119ZM8.91867 6.99437C8.61641 7.23415 8.42909 7.54492 8.24796 7.8454C8.13754 8.02832 8.03331 8.20122 7.90779 8.35146C7.60855 8.70947 7.14053 8.87962 6.51486 8.85875C6.3627 8.85353 6.20999 8.84007 6.04822 8.82579C5.65916 8.79146 5.25816 8.7563 4.854 8.83939V1.84082H10.9117V6.50768C10.0228 6.47733 9.36897 6.63731 8.91867 6.99437ZM12.5951 10.0789C12.5391 9.95093 12.4813 9.82115 12.4221 9.69055C12.3619 9.55803 12.2056 9.49925 12.0731 9.5594C11.9405 9.61955 11.8817 9.7757 11.9418 9.90836C12.0262 10.0946 12.1077 10.2789 12.1849 10.4582C12.1246 10.5576 12.0874 10.6648 12.0759 10.7764C12.0474 11.0431 12.1654 11.2605 12.2694 11.4523C12.3428 11.5878 12.4122 11.7156 12.403 11.8194C12.3939 11.9227 12.3048 12.0345 12.2104 12.1527C12.1833 12.1868 12.1554 12.2218 12.1281 12.2581C12.1274 12.2508 12.1267 12.2435 12.1259 12.2362C12.0619 11.6471 11.6767 11.3914 11.4588 11.0251C11.0464 10.3324 11.7796 9.86043 11.4545 9.13066C11.3315 8.85518 11.1063 8.67294 11.0268 8.48C11.0173 8.45679 11.0098 8.43275 11.004 8.4079C10.9359 8.11401 11.1451 7.86957 11.3766 7.78896C11.625 7.70216 11.9289 7.73705 12.1502 7.87794C12.3034 7.97572 12.4144 8.12184 12.4545 8.27881C12.4792 8.37576 12.4811 8.48865 12.4832 8.60812C12.4857 8.746 12.4884 8.90215 12.5282 9.05829C12.6136 9.39447 12.839 9.64276 13.0726 9.84807C13.0087 9.88281 12.9391 9.91399 12.8665 9.94653C12.7779 9.98608 12.6863 10.0271 12.5951 10.0789Z" fill="#7D879C"/>
<path d="M8.00708 11.8543H3.67503C3.04565 11.8543 2.53369 12.3664 2.53369 12.9957C2.53369 13.625 3.04565 14.137 3.67503 14.137H3.96164L3.72516 15.0704C3.7242 15.0734 3.72351 15.0765 3.72282 15.0796L3.37181 16.4646C3.36961 16.4719 3.36783 16.4793 3.36618 16.4867L2.9292 18.2115C2.89336 18.3527 2.97877 18.4962 3.12009 18.5319C3.14178 18.5374 3.16348 18.54 3.18504 18.54C3.30273 18.54 3.41013 18.4605 3.44034 18.341L3.84532 16.7431L5.84099 16.0574L7.83693 16.7432L8.24178 18.341C8.27199 18.4605 8.37938 18.54 8.49721 18.54C8.51863 18.54 8.54047 18.5374 8.56216 18.5319C8.70334 18.4961 8.78876 18.3527 8.75305 18.2115L8.31442 16.4808C8.3136 16.4774 8.31277 16.4738 8.31181 16.4705L7.72047 14.137H8.00708C8.63646 14.137 9.14842 13.625 9.14842 12.9957C9.14842 12.3664 8.63646 11.8543 8.00708 11.8543ZM3.99995 16.1324L4.16502 15.4814L5.02965 15.7786L3.99995 16.1324ZM6.65233 15.7786L7.51709 15.4814L7.68202 16.1324L6.65233 15.7786ZM7.38718 14.9685L5.84099 15.4997L4.29494 14.9685L4.5056 14.137H7.17638L7.38718 14.9685ZM8.00708 13.6096H4.30537C4.30222 13.6095 4.29919 13.6096 4.29617 13.6096H3.67503C3.33638 13.6096 3.06104 13.3342 3.06104 12.9957C3.06104 12.6571 3.33638 12.3817 3.67503 12.3817H8.00708C8.3456 12.3817 8.62108 12.6571 8.62108 12.9957C8.62108 13.3342 8.3456 13.6096 8.00708 13.6096Z" fill="#7D879C"/>
<path d="M6.48862 2.19501C5.91032 2.19501 5.4397 2.66563 5.4397 3.24393C5.4397 3.82222 5.91032 4.29271 6.48862 4.29271C7.06691 4.29271 7.5374 3.82222 7.5374 3.24393C7.5374 2.66563 7.06691 2.19501 6.48862 2.19501ZM6.48862 3.76537C6.20105 3.76537 5.96704 3.53149 5.96704 3.24393C5.96704 2.95636 6.20105 2.72235 6.48862 2.72235C6.77618 2.72235 7.01006 2.95636 7.01006 3.24393C7.01006 3.53149 6.77618 3.76537 6.48862 3.76537Z" fill="#7D879C"/>
</g>
<defs>
<clipPath id="clip0_9470_85033">
<rect width="18" height="18" fill="white" transform="translate(0.494629 0.540039)"/>
</clipPath>
</defs>
</svg>
