<svg width="18" height="18" viewBox="0 0 18 18" fill="none" xmlns="http://www.w3.org/2000/svg">
<path d="M9.12607 10.5126C9.08061 10.5127 9.03558 10.5038 8.99358 10.4864C8.95157 10.469 8.91342 10.4434 8.88131 10.4112L7.58576 9.11569C7.52084 9.05078 7.48438 8.96273 7.48438 8.87093C7.48438 8.77912 7.52084 8.69108 7.58576 8.62616L11.7033 4.50863C11.7354 4.47648 11.7736 4.45098 11.8156 4.43358C11.8576 4.41618 11.9026 4.40723 11.9481 4.40723C11.9935 4.40723 12.0386 4.41618 12.0806 4.43358C12.1226 4.45098 12.1607 4.47648 12.1929 4.50863L13.4884 5.80414C13.5205 5.83629 13.546 5.87445 13.5634 5.91645C13.5808 5.95845 13.5898 6.00346 13.5898 6.04893C13.5898 6.09439 13.5808 6.1394 13.5634 6.1814C13.546 6.2234 13.5205 6.26156 13.4884 6.29371L9.37084 10.4112C9.33873 10.4434 9.30057 10.469 9.25857 10.4864C9.21657 10.5038 9.17154 10.5127 9.12607 10.5126ZM8.32009 8.87093L9.12607 9.67691L12.754 6.04894L11.9481 5.24296L8.32009 8.87093Z" fill="#7D879C"/>
<path d="M16.1649 1.8334C15.6996 1.36913 15.0691 1.1084 14.4118 1.1084C13.7544 1.1084 13.1239 1.36913 12.6586 1.8334L6.23578 8.25618C5.7784 8.71339 5.4572 9.28881 5.30809 9.9181L5.0942 10.8205C4.97471 11.3249 4.71727 11.7861 4.35067 12.1526L1.41614 15.087C1.21914 15.2855 1.10883 15.5541 1.10938 15.8337C1.10992 16.1134 1.22127 16.3815 1.41904 16.5793C1.61681 16.7771 1.88489 16.8884 2.16458 16.8889C2.44427 16.8895 2.71278 16.7792 2.91132 16.5822L5.84577 13.6477C6.21229 13.281 6.67358 13.0236 7.17805 12.9041L8.08044 12.6901C8.70972 12.541 9.28512 12.2198 9.74232 11.7624L16.1649 5.33973C16.6292 4.8744 16.89 4.2439 16.89 3.58657C16.89 2.92923 16.6292 2.29874 16.1649 1.8334ZM2.4219 16.0926C2.35344 16.1611 2.26061 16.1995 2.1638 16.1995C2.067 16.1995 1.97416 16.1611 1.90571 16.0926C1.83726 16.0242 1.79881 15.9313 1.79881 15.8345C1.79881 15.7377 1.83726 15.6449 1.90571 15.5764L2.67071 14.8114L3.18676 15.3275L2.4219 16.0926ZM9.25259 11.273C8.88612 11.6396 8.42491 11.897 7.92052 12.0166L7.01813 12.2305C6.38884 12.3796 5.81343 12.7008 5.35624 13.1582L3.67622 14.8382L3.16017 14.3221L4.84016 12.6421C5.29755 12.1849 5.61876 11.6095 5.76785 10.9802L5.98181 10.0778C6.10131 9.57342 6.35875 9.11221 6.72535 8.74575L12.6452 2.8259L15.1724 5.35316L9.25259 11.273ZM15.6754 4.8502L15.662 4.86363L13.1347 2.33637L13.1481 2.32294C13.4835 1.98906 13.9377 1.80186 14.4109 1.8024C14.8842 1.80293 15.3379 1.99117 15.6725 2.32581C16.0072 2.66045 16.1954 3.11416 16.1959 3.58741C16.1965 4.06066 16.0093 4.5148 15.6754 4.8502Z" fill="#7D879C"/>
<path d="M13.3696 4.97551C13.5608 4.97551 13.7157 4.82053 13.7157 4.62936C13.7157 4.43818 13.5608 4.2832 13.3696 4.2832C13.1784 4.2832 13.0234 4.43818 13.0234 4.62936C13.0234 4.82053 13.1784 4.97551 13.3696 4.97551Z" fill="#7D879C"/>
</svg>
