<svg width="19" height="19" viewBox="0 0 19 19" fill="none" xmlns="http://www.w3.org/2000/svg">
<path d="M17.6562 4.62589C17.482 4.60416 17.3233 4.72772 17.3015 4.9017L16.6302 10.272H14.1529L13.8256 8.41615C13.7989 8.26435 13.667 8.15358 13.5127 8.15358H5.49887C5.34497 8.15358 5.21313 8.26391 5.1861 8.41549L4.85458 10.2718H2.36382L1.69251 4.9017C1.67077 4.72761 1.51191 4.60416 1.33782 4.62589C1.16373 4.64763 1.04017 4.80649 1.06201 4.98058L1.76808 10.6291C1.78794 10.7881 1.92308 10.9075 2.08327 10.9075H2.64967L1.98166 14.9151C1.95287 15.0882 2.06981 15.2518 2.2428 15.2808C2.41601 15.3096 2.57973 15.1926 2.60852 15.0195L3.29396 10.9075H4.74139L3.77397 16.3236C3.75235 16.4441 3.8021 16.5665 3.9015 16.6378L3.90901 16.6432C4.84123 17.3113 6.08424 17.352 7.05817 16.7461C8.33428 17.3479 9.81338 17.345 11.0873 16.7381C11.6567 17.0357 12.2877 17.1964 12.9301 17.2076C12.9527 17.208 12.9752 17.2081 12.9979 17.2081C13.6761 17.2077 14.3439 17.0404 14.9423 16.7209L15.0568 16.6597C15.1779 16.5948 15.2437 16.4596 15.2199 16.3243L14.2649 10.9075H15.7002L16.3855 15.0195C16.4031 15.1325 16.48 15.2274 16.5869 15.268C16.6939 15.3084 16.8143 15.2884 16.9023 15.2152C16.9902 15.1423 17.0324 15.0277 17.0123 14.9151L16.3443 10.9075H16.9107C17.071 10.9075 17.2061 10.7881 17.226 10.6291L17.932 4.98058C17.9538 4.80649 17.8302 4.64774 17.6562 4.62589ZM11.4122 16.1904V12.1078C11.4122 11.9324 11.27 11.79 11.0944 11.79C10.919 11.79 10.7767 11.9324 10.7767 12.1078V16.1815C9.69092 16.6854 8.4382 16.6854 7.3523 16.1815V13.3434C7.3523 13.168 7.21009 13.0257 7.03457 13.0257C6.85915 13.0257 6.71684 13.168 6.71684 13.3434V16.2097C6.01959 16.6406 5.14076 16.6481 4.43635 16.2291L5.76486 8.78926H13.2462L14.5542 16.2065C13.5646 16.7041 12.3967 16.6981 11.4122 16.1904Z" fill="#7D879C"/>
<path d="M7.20225 7.74421H11.4386C11.6142 7.74421 11.7564 7.60201 11.7564 7.42648C11.7547 6.20477 10.8494 5.17282 9.63818 5.01208V4.71531C9.63818 4.53979 9.49597 4.39758 9.32045 4.39758C9.14504 4.39758 9.00272 4.53979 9.00272 4.71531V5.01208C7.79171 5.17282 6.88618 6.20477 6.88452 7.42648C6.88452 7.60201 7.02684 7.74421 7.20225 7.74421ZM9.32045 5.62602C10.1919 5.62735 10.9378 6.25133 11.0927 7.10875H7.54822C7.70323 6.25133 8.44901 5.62735 9.32045 5.62602Z" fill="#7D879C"/>
<path d="M10.3796 4.30571C10.5551 4.30571 10.6973 4.1634 10.6973 3.98798V3.17601C10.6973 3.00059 10.5551 2.85828 10.3796 2.85828C10.2041 2.85828 10.0618 3.00059 10.0618 3.17601V3.98798C10.0618 4.1634 10.2041 4.30571 10.3796 4.30571Z" fill="#7D879C"/>
<path d="M8.93211 3.70558C9.10763 3.70558 9.24983 3.56326 9.24983 3.38785V2.11693C9.24983 1.94151 9.10763 1.79919 8.93211 1.79919C8.75669 1.79919 8.61438 1.94151 8.61438 2.11693V3.38785C8.61438 3.56326 8.75669 3.70558 8.93211 3.70558Z" fill="#7D879C"/>
<path d="M7.59056 4.55293C7.76608 4.55293 7.90829 4.41061 7.90829 4.2352V3.56443C7.90829 3.38902 7.76608 3.2467 7.59056 3.2467C7.41514 3.2467 7.27283 3.38902 7.27283 3.56443V4.2352C7.27283 4.41061 7.41514 4.55293 7.59056 4.55293Z" fill="#7D879C"/>
</svg>
