<svg width="18" height="18" viewBox="0 0 18 18" fill="none" xmlns="http://www.w3.org/2000/svg">
<g clip-path="url(#clip0_6607_46873)">
<path d="M16.6715 10.1296C16.1341 9.06787 15.6 8.38178 15.4076 8.14951V6.58251L17.9038 4.36667C17.9632 4.31387 17.9984 4.23569 18 4.15253C18.0017 4.06937 17.9697 3.98959 17.9124 3.9341L16.0238 2.104C15.9153 1.99894 15.7486 2.00883 15.6514 2.126C15.5542 2.24322 15.5633 2.42346 15.6718 2.52855L17.3316 4.13691L15.4077 5.84473V4.67894C15.4077 4.52151 15.2897 4.39388 15.144 4.39388C14.9983 4.39388 14.8803 4.52151 14.8803 4.67894L14.8802 8.01975C12.9975 8.34917 11.092 8.34913 9.20926 8.01968V4.67894C9.20926 4.52151 9.09123 4.39388 8.94558 4.39388C8.79992 4.39388 8.68189 4.52151 8.68189 4.67894V5.84485L6.75786 4.13691L8.81046 2.14767C9.11243 1.85493 9.5024 1.73327 9.87767 1.78146C9.95495 2.14033 10.1324 2.89309 10.405 3.64299C10.8528 4.87526 11.3752 5.61193 11.9575 5.83249C11.9858 5.84317 12.0152 5.84853 12.0447 5.84853C12.0741 5.84853 12.1036 5.84317 12.1318 5.83249C12.7142 5.61193 13.2366 4.87526 13.6845 3.64303C13.9566 2.89453 14.1339 2.14375 14.2115 1.78401C14.4438 1.75398 14.6837 1.78758 14.9068 1.89081C15.0407 1.9528 15.1957 1.88564 15.253 1.74094C15.3103 1.59621 15.2482 1.42867 15.1144 1.36671C14.437 1.05318 13.6473 1.1972 13.1023 1.73346L12.859 1.97291C12.3947 2.42992 11.6948 2.42992 11.2308 1.97291L10.9875 1.73346C10.269 1.02635 9.18169 1.02198 8.4584 1.72323L6.17698 3.93417C6.11968 3.98966 6.08768 4.06948 6.08937 4.1526C6.09102 4.23577 6.12622 4.31395 6.18563 4.36674L8.68182 6.58259V8.14936C8.50895 8.35734 8.0647 8.9253 7.5912 9.79622C7.19019 9.56521 6.76608 9.33712 6.33649 9.10622C5.96108 8.9044 5.58296 8.70113 5.21999 8.4947C5.57473 8.01447 5.84837 7.47088 5.96829 6.83359C6.15153 5.85971 5.88349 4.98977 5.2329 4.44683C4.61613 3.93212 3.76675 3.81737 3.11925 4.16131C2.77218 4.34565 2.18993 4.8241 2.18993 5.95689C2.18993 6.67396 2.61116 7.35184 3.47776 8.02929C3.74882 8.24119 4.05357 8.44643 4.37793 8.6467C3.9758 9.07433 3.51429 9.45495 3.0783 9.81443C2.13962 10.5884 1.24904 11.3234 1.22602 12.3135C0.651752 12.4624 0.20866 12.9801 0.131525 13.6322C-0.0438416 15.1168 -0.0438416 16.6223 0.131525 18.107C0.220122 18.8555 0.791257 19.4276 1.48963 19.4672C2.88989 19.5461 4.29999 19.5856 5.71013 19.5856C7.12023 19.5856 8.53043 19.5461 9.93073 19.4672C10.6293 19.4276 11.2002 18.8554 11.2884 18.107C11.3409 17.6631 11.3774 17.2173 11.3985 16.7708C11.6131 16.7778 11.8294 16.7815 12.0447 16.7815C15.487 16.7815 17.7328 15.9108 17.8268 15.8737C17.9308 15.8327 18 15.7257 18 15.606C18.0001 13.2494 17.2776 11.3272 16.6715 10.1296ZM10.8757 2.39427C11.542 3.05063 12.5474 3.05063 13.2141 2.39434L13.4574 2.15493C13.5068 2.10628 13.5591 2.06215 13.6136 2.02255C13.522 2.4002 13.3816 2.91806 13.1938 3.4344C12.7543 4.64356 12.3393 5.09665 12.0448 5.25443C11.7503 5.09665 11.3353 4.64356 10.8959 3.4344C10.7082 2.91798 10.5677 2.39978 10.4761 2.02198C10.5304 2.06162 10.5827 2.10586 10.6325 2.15489L10.8757 2.39427ZM2.71744 5.95674C2.71744 5.33728 2.93682 4.89331 3.35193 4.67282C3.52554 4.58062 3.72393 4.53588 3.92813 4.53588C4.26937 4.53588 4.62671 4.66089 4.91078 4.89795C5.19602 5.13595 5.64554 5.68916 5.45165 6.71976C5.34536 7.28471 5.08534 7.7762 4.746 8.21683C3.60636 7.52641 2.71744 6.79342 2.71744 5.95674ZM1.51712 12.8414C1.98714 12.8151 2.45734 12.793 2.91467 12.7759C3.06022 12.7704 3.1741 12.6385 3.16904 12.4812C3.16398 12.3238 3.04286 12.2012 2.89639 12.2061C2.52344 12.2201 2.14194 12.2375 1.75901 12.2576C1.82693 11.5638 2.56137 10.9576 3.39823 10.2676C3.88984 9.8622 4.41172 9.43187 4.8603 8.93355C5.26436 9.16635 5.68625 9.39318 6.10178 9.61656C6.5177 9.84016 6.93699 10.0656 7.33465 10.295C7.07343 10.8315 6.81654 11.4559 6.6039 12.1594C5.71688 12.1487 4.83133 12.1528 3.95238 12.1737C3.80676 12.1772 3.69134 12.3075 3.69454 12.465C3.69774 12.6224 3.81773 12.7485 3.96392 12.7437C5.92958 12.697 7.9279 12.73 9.90337 12.8414C10.3469 12.8663 10.7095 13.2291 10.7654 13.7043C10.8025 14.0172 10.8309 14.331 10.8518 14.6454C10.8305 14.9608 10.8016 15.274 10.7654 15.577C10.7095 16.0518 10.3469 16.4144 9.90295 16.4393C9.30591 16.4731 8.70612 16.4993 8.1148 16.5185C8.12746 16.116 8.11927 15.7117 8.08942 15.3115C8.04909 14.7701 7.64285 14.3396 7.14452 14.3101C6.29128 14.2596 5.42605 14.2596 4.57302 14.3101C4.07466 14.3396 3.66845 14.7701 3.62809 15.3115C3.59803 15.7148 3.58991 16.1221 3.60299 16.5277C2.90859 16.5078 2.20853 16.4785 1.51712 16.4393C1.07336 16.4145 0.710676 16.0518 0.654776 15.5769C0.619407 15.2775 0.590402 14.9653 0.568323 14.6488C0.589207 14.3333 0.617684 14.0183 0.654776 13.7043C0.710957 13.2292 1.07364 12.8663 1.51712 12.8414ZM7.7987 10.5715C8.65292 11.1 9.34314 11.6528 9.57507 12.2538C8.77116 12.2123 7.96426 12.1836 7.1576 12.1679C7.3477 11.5728 7.57137 11.0378 7.7987 10.5715ZM7.56374 16.9598C7.54447 17.2183 7.35185 17.4237 7.11569 17.4377C7.11566 17.4377 7.11566 17.4377 7.11566 17.4377C6.28161 17.487 5.4359 17.487 4.60178 17.4377C4.36563 17.4237 4.173 17.2183 4.15373 16.9598C4.11411 16.4281 4.11411 15.8889 4.15373 15.3573C4.173 15.0988 4.36563 14.8934 4.60182 14.8794C5.01882 14.8547 5.43878 14.8423 5.85874 14.8423C6.27869 14.8423 6.69865 14.8547 7.11569 14.8794C7.35185 14.8934 7.54447 15.0988 7.56374 15.3573C7.60336 15.8889 7.60336 16.4281 7.56374 16.9598ZM9.9033 18.8977C7.12096 19.0545 4.29953 19.0545 1.5173 18.8977C1.07375 18.8726 0.710957 18.5095 0.654776 18.0345C0.596625 17.5422 0.558866 17.0474 0.540584 16.552C0.786195 16.8182 1.12009 16.988 1.4897 17.0087C2.20203 17.0491 2.92367 17.079 3.63895 17.0991C3.71627 17.5958 4.10374 17.9792 4.57299 18.007C4.99959 18.0322 5.42918 18.0448 5.85874 18.0448C6.28829 18.0448 6.71792 18.0322 7.14445 18.007C7.61658 17.9791 8.00581 17.5911 8.07978 17.09C8.69135 17.0706 9.31237 17.0436 9.9303 17.0087C10.3001 16.988 10.6342 16.8181 10.8798 16.5518C10.8615 17.0473 10.8237 17.5422 10.7654 18.0347C10.7094 18.5096 10.3469 18.8726 9.9033 18.8977ZM16.6073 15.6558C16.5531 14.7988 16.4529 13.945 16.3084 13.1128C16.2815 12.9581 16.1438 12.8563 16.0005 12.8853C15.8574 12.9143 15.7632 13.0633 15.7901 13.218C15.9356 14.0561 16.0346 14.9171 16.0861 15.7807C15.8831 15.8256 15.6528 15.8723 15.3981 15.9178C15.3662 14.7714 15.253 13.6299 15.0604 12.5198C15.0335 12.3651 14.8957 12.2633 14.7526 12.2922C14.6095 12.3212 14.5152 12.4702 14.5421 12.6249C14.7335 13.7282 14.8445 14.8635 14.8729 16.0035C14.0867 16.1202 13.1265 16.2113 12.0447 16.2113C11.8356 16.2113 11.6254 16.2078 11.417 16.201C11.4319 15.3431 11.3893 14.4842 11.2885 13.6322C11.2094 12.961 10.7423 12.4322 10.1434 12.3015C9.94982 11.4304 9.12256 10.7307 8.05626 10.0728C8.4777 9.3017 8.87199 8.78152 9.04416 8.5681C10.0401 8.74727 11.0425 8.83712 12.0449 8.83712C13.0472 8.83712 14.0495 8.74731 15.0454 8.56814C15.2433 8.81276 15.733 9.45951 16.2174 10.4204C16.7724 11.5213 17.4307 13.2664 17.4707 15.401C17.2992 15.4595 17.0052 15.5531 16.6073 15.6558Z" fill="#7D879C"/>
<path d="M6.91854 15.312C6.56633 15.2942 6.21036 15.2852 5.86043 15.2852C5.51047 15.2852 5.15447 15.2942 4.80226 15.312C4.66774 15.3188 4.5596 15.4341 4.55137 15.5794C4.52975 15.9638 4.52975 16.3537 4.55137 16.7382C4.55956 16.8835 4.66774 16.9988 4.80226 17.0056C5.15419 17.0234 5.51023 17.0324 5.86043 17.0324C6.2106 17.0324 6.56661 17.0234 6.91854 17.0056C7.05305 16.9988 7.1612 16.8835 7.16942 16.7382C7.19104 16.3537 7.19104 15.9639 7.16942 15.5794C7.16123 15.4341 7.05309 15.3188 6.91854 15.312ZM6.65405 16.4468C6.12404 16.4674 5.59675 16.4674 5.06682 16.4468C5.06116 16.2551 5.06116 16.0625 5.06682 15.8708C5.5971 15.8502 6.12376 15.8502 6.65405 15.8708C6.65971 16.0625 6.65971 16.2551 6.65405 16.4468Z" fill="#7D879C"/>
</g>
<defs>
<clipPath id="clip0_6607_46873">
<rect width="18" height="18" fill="white"/>
</clipPath>
</defs>
</svg>
