<svg width="19" height="19" viewBox="0 0 19 19" fill="none" xmlns="http://www.w3.org/2000/svg">
<g clip-path="url(#clip0_10062_47414)">
<path d="M5.7444 12.2099C4.40909 11.0187 3.81829 9.54109 3.55768 8.5115C3.2727 7.38503 3.30853 6.5308 3.30891 6.52229L3.02805 6.50879L2.74712 6.49512C2.74532 6.53259 2.70595 7.42623 3.00748 8.62952C3.28606 9.74145 3.92207 11.338 5.36998 12.6297L5.7444 12.2099Z" fill="#7D879C"/>
<path d="M16.2464 6.49512L15.6846 6.52247C15.6849 6.52785 15.7092 7.06996 15.5723 7.86744L16.1267 7.96265C16.2739 7.10494 16.2476 6.51962 16.2464 6.49512Z" fill="#7D879C"/>
<path d="M11.7408 13.2429C11.7448 13.2017 11.7468 13.1602 11.7468 13.1183C11.7468 12.8679 11.6726 12.6233 11.5335 12.4151C11.3945 12.207 11.1968 12.0448 10.9655 11.949C10.7343 11.8532 10.4798 11.8281 10.2343 11.877C9.98878 11.9258 9.76326 12.0463 9.58626 12.2233L9.49683 12.3128L9.40739 12.2233C9.23039 12.0463 9.00487 11.9258 8.75937 11.877C8.51386 11.8281 8.25938 11.8532 8.02812 11.949C7.79685 12.0448 7.59919 12.207 7.46012 12.4151C7.32105 12.6233 7.24682 12.8679 7.24683 13.1183C7.24683 13.1601 7.24883 13.2016 7.25284 13.2427C6.91577 13.0685 6.59233 12.8691 6.28527 12.6462L5.9541 13.1009C6.48229 13.4826 7.05321 13.8015 7.65527 14.0509L7.87412 14.2698C7.78722 14.3573 7.69158 14.4356 7.58869 14.5036C7.37258 14.6471 7.13331 14.7567 6.87994 14.8727C6.71119 14.95 6.53653 15.0299 6.36665 15.1218C5.79656 15.4302 5.43473 15.8158 5.29126 16.2676L5.82739 16.4379C5.92527 16.1296 6.19674 15.8532 6.6343 15.6165C6.78769 15.5335 6.9462 15.461 7.11404 15.3842C7.37603 15.2643 7.64694 15.1403 7.89992 14.9722C7.95465 14.9359 8.00752 14.8976 8.05855 14.8574L7.59537 16.1646C7.54277 16.3131 7.52657 16.472 7.54815 16.6281C7.56972 16.7841 7.62842 16.9327 7.71933 17.0613C7.81024 17.19 7.93069 17.2949 8.07057 17.3674C8.21046 17.4398 8.36568 17.4776 8.52321 17.4776H9.21343V16.9151H8.52321C8.45569 16.9151 8.38916 16.8989 8.3292 16.8679C8.26925 16.8368 8.21762 16.7919 8.17866 16.7367C8.1397 16.6816 8.11454 16.6179 8.1053 16.551C8.09606 16.4841 8.10301 16.416 8.12556 16.3524L8.60467 15.0003L9.29795 15.6936C9.32406 15.7197 9.35507 15.7404 9.38919 15.7546C9.42332 15.7687 9.45989 15.776 9.49683 15.776C9.53376 15.776 9.57034 15.7687 9.60446 15.7546C9.63858 15.7404 9.66959 15.7197 9.6957 15.6936L10.389 15.0003L10.8681 16.3524C10.8906 16.416 10.8976 16.4841 10.8884 16.551C10.8791 16.6179 10.854 16.6816 10.815 16.7367C10.776 16.7919 10.7244 16.8368 10.6644 16.8679C10.6045 16.8989 10.538 16.9151 10.4704 16.9151H9.77593V17.4776H10.4704C10.628 17.4776 10.7832 17.4398 10.9231 17.3674C11.063 17.2949 11.1835 17.19 11.2744 17.0613C11.3653 16.9326 11.424 16.784 11.4456 16.628C11.4671 16.4719 11.4509 16.313 11.3983 16.1645L10.9351 14.8574C10.9859 14.8973 11.0388 14.9355 11.0937 14.9721C11.3469 15.1402 11.6176 15.2642 11.8796 15.3841C12.0474 15.4609 12.206 15.5335 12.3594 15.6164C12.7969 15.8531 13.0684 16.1295 13.1663 16.4378L13.7024 16.2675C13.5589 15.8157 13.1971 15.4301 12.627 15.1217C12.4571 15.0298 12.2825 14.9499 12.1137 14.8726C11.8603 14.7566 11.621 14.6471 11.4049 14.5035C11.302 14.4356 11.2063 14.3573 11.1194 14.2698L11.3384 14.0508C14.411 12.7661 15.5736 10.3497 16.0073 8.54321L15.4603 8.41187C15.0877 9.96415 14.1367 12.0005 11.7408 13.2429ZM9.49683 15.097L8.01527 13.6154C7.94878 13.5504 7.89584 13.4729 7.85953 13.3873C7.82321 13.3016 7.80425 13.2097 7.80372 13.1167C7.80319 13.0237 7.82112 12.9315 7.85647 12.8455C7.89181 12.7595 7.94387 12.6813 8.00962 12.6155C8.07538 12.5498 8.15353 12.4977 8.23954 12.4624C8.32556 12.427 8.41773 12.4091 8.51073 12.4096C8.60373 12.4101 8.6957 12.4291 8.78132 12.4654C8.86694 12.5017 8.9445 12.5546 9.00953 12.6211L9.29781 12.9094C9.32392 12.9355 9.35493 12.9562 9.38905 12.9703C9.42318 12.9845 9.45975 12.9918 9.49669 12.9918C9.53362 12.9918 9.57019 12.9845 9.60432 12.9703C9.63844 12.9562 9.66945 12.9355 9.69556 12.9094L9.98385 12.6211C10.1157 12.4892 10.2946 12.4151 10.481 12.4151C10.6675 12.4151 10.8464 12.4892 10.9782 12.6211C11.1101 12.7529 11.1842 12.9318 11.1842 13.1182C11.1842 13.3047 11.1101 13.4836 10.9783 13.6154L9.49683 15.097Z" fill="#7D879C"/>
<path d="M3.28756 6.20179C3.53121 6.53479 3.84518 6.81006 4.20717 7.00807C4.15952 7.15636 4.14317 7.31293 4.15915 7.46788C4.17514 7.62282 4.22311 7.77275 4.30004 7.9082C4.37697 8.04364 4.48117 8.16163 4.60606 8.25472C4.73095 8.34781 4.8738 8.41396 5.02558 8.44898C5.08305 8.69676 5.22265 8.91782 5.42168 9.0762C5.62071 9.23459 5.86746 9.32098 6.12182 9.32135H6.12277C6.14053 10.002 6.38318 10.6576 6.81285 11.1858C6.85119 11.2332 6.90386 11.2668 6.96294 11.2816C7.02202 11.2965 7.08432 11.2917 7.14047 11.2681C7.74947 11.0113 8.26077 10.567 8.60013 9.99987C8.70993 10.1452 8.85339 10.2617 9.01818 10.3392C9.18297 10.4168 9.36414 10.4532 9.5461 10.4452C9.72807 10.4373 9.90537 10.3852 10.0628 10.2936C10.2201 10.2019 10.3529 10.0734 10.4496 9.91901C10.787 10.5244 11.3174 10.9993 11.9562 11.2681C12.0123 11.2917 12.0746 11.2965 12.1337 11.2817C12.1928 11.2668 12.2455 11.2332 12.2838 11.1859C12.7147 10.6565 12.9575 9.99909 12.9741 9.31678C13.2099 9.29487 13.4329 9.19925 13.6113 9.0435C13.7898 8.88775 13.9146 8.67977 13.9682 8.44905C14.1213 8.41373 14.2652 8.34678 14.3908 8.25249C14.5164 8.1582 14.6209 8.03867 14.6975 7.90158C14.7742 7.7645 14.8213 7.61289 14.8358 7.45651C14.8503 7.30013 14.8319 7.14244 14.7819 6.99358C15.1989 6.75948 15.5493 6.42298 15.8002 6.01585C16.0511 5.60872 16.1941 5.14438 16.2157 4.66666C16.2178 4.61776 16.2072 4.56915 16.1848 4.52563C16.1624 4.4821 16.1291 4.44517 16.088 4.41849C15.7028 4.1689 15.2625 4.0171 14.8054 3.97626C14.87 3.72433 14.8453 3.4578 14.7356 3.222C14.6259 2.98619 14.4379 2.79565 14.2036 2.68279C14.3612 2.48505 14.4728 2.25462 14.53 2.00829C14.5873 1.76197 14.5888 1.50596 14.5346 1.25896C14.492 1.06776 14.4164 0.885467 14.3111 0.720297C14.2889 0.685521 14.2594 0.656041 14.2246 0.633945C14.1898 0.611849 14.1505 0.597677 14.1096 0.592433C13.6886 0.53874 13.2629 0.645513 12.917 0.891508C12.5711 1.1375 12.3306 1.50469 12.2432 1.92C12.0069 2.07949 11.8398 2.32249 11.7754 2.60017C11.6625 2.62631 11.5543 2.66969 11.4546 2.72881C11.4938 2.44995 11.4272 2.1665 11.2677 1.93438C11.1083 1.70226 10.8676 1.53832 10.5932 1.47493C10.5361 1.22697 10.3965 1.00571 10.1974 0.847278C9.99826 0.688844 9.75131 0.602587 9.49684 0.602587C9.24238 0.602587 8.99542 0.688844 8.79629 0.847278C8.59717 1.00571 8.45762 1.22697 8.40044 1.47493C8.12637 1.53831 7.88595 1.70198 7.72649 1.93372C7.56702 2.16546 7.50007 2.4485 7.5388 2.72712C7.43917 2.66824 7.33099 2.62521 7.21813 2.59958C7.1536 2.32212 6.9865 2.07935 6.75038 1.92C6.66297 1.50469 6.4224 1.1375 6.07655 0.891508C5.73069 0.645513 5.3049 0.53874 4.8839 0.592433C4.843 0.597691 4.80377 0.611868 4.76896 0.633963C4.73415 0.656058 4.70462 0.685531 4.68245 0.720297C4.49325 1.01773 4.4018 1.3669 4.42093 1.7189C4.44006 2.0709 4.5688 2.4081 4.78912 2.68328C4.55552 2.79608 4.36807 2.98611 4.25846 3.22122C4.14885 3.45633 4.12381 3.72208 4.18759 3.97352C3.71972 4.00993 3.2684 4.16284 2.87475 4.41832C2.83372 4.445 2.80036 4.48193 2.77797 4.52545C2.75559 4.56897 2.74494 4.61759 2.7471 4.66648C2.77124 5.22048 2.95934 5.75483 3.28756 6.20179ZM5.55932 8.19635C5.55932 8.12176 5.52969 8.05022 5.47694 7.99747C5.4242 7.94473 5.35266 7.9151 5.27807 7.9151C5.12889 7.9151 4.98581 7.85584 4.88032 7.75035C4.77483 7.64486 4.71557 7.50178 4.71557 7.3526C4.71557 7.20341 4.77483 7.06034 4.88032 6.95485C4.98581 6.84936 5.12889 6.7901 5.27807 6.7901C5.35266 6.7901 5.4242 6.76047 5.47694 6.70772C5.52969 6.65498 5.55932 6.58344 5.55932 6.50885C5.55932 6.35966 5.61858 6.21659 5.72407 6.1111C5.82956 6.00561 5.97264 5.94635 6.12182 5.94635C6.27101 5.94635 6.41408 6.00561 6.51957 6.1111C6.62506 6.21659 6.68432 6.35966 6.68432 6.50885C6.68432 6.58344 6.71395 6.65498 6.7667 6.70772C6.81944 6.76047 6.89098 6.7901 6.96557 6.7901C6.97506 6.7901 6.98456 6.79034 6.99398 6.79084C7.05859 7.10468 7.22835 7.38708 7.4752 7.59138C7.42969 7.68814 7.35759 7.76995 7.26733 7.82727C7.17706 7.88459 7.07236 7.91505 6.96543 7.9151C6.89084 7.9151 6.8193 7.94473 6.76656 7.99747C6.71381 8.05022 6.68418 8.12176 6.68418 8.19635C6.68418 8.34553 6.62492 8.48861 6.51943 8.5941C6.41394 8.69959 6.27087 8.75885 6.12168 8.75885C5.9725 8.75885 5.82942 8.69959 5.72393 8.5941C5.61844 8.48861 5.55918 8.34553 5.55918 8.19635H5.55932ZM7.52895 5.38385C7.3381 5.52712 7.18659 5.71634 7.08851 5.9339C6.98619 5.76263 6.84047 5.62139 6.66608 5.52447C6.88807 5.40113 7.06214 5.20673 7.1603 4.97252C7.255 5.13249 7.38027 5.27226 7.52895 5.38385ZM11.8332 4.97252C11.9314 5.20676 12.1056 5.40116 12.3276 5.52447C12.1532 5.62139 12.0075 5.76262 11.9051 5.9339C11.8071 5.71634 11.6556 5.52712 11.4647 5.38385C11.6133 5.27224 11.7385 5.13248 11.8332 4.97252ZM8.37182 7.3526C8.16948 7.35265 7.97385 7.27997 7.82061 7.14783C7.66737 7.01569 7.56673 6.83288 7.53702 6.63272C7.50731 6.43257 7.55052 6.22841 7.65878 6.05745C7.76703 5.8865 7.93311 5.76014 8.12675 5.70141C8.18665 5.95751 8.31694 6.19177 8.50292 6.37775C8.6889 6.56373 8.92316 6.69402 9.17926 6.75392C9.12647 6.92699 9.01955 7.07855 8.8742 7.18632C8.72885 7.29409 8.55276 7.35237 8.37182 7.3526ZM10.8669 5.70141C11.0064 5.74376 11.1325 5.82151 11.233 5.92709C11.3334 6.03267 11.4048 6.16248 11.4402 6.30386C11.4756 6.44525 11.4738 6.59339 11.4349 6.73386C11.396 6.87433 11.3214 7.00232 11.2184 7.10538C11.1153 7.20844 10.9873 7.28305 10.8468 7.32193C10.7064 7.36082 10.5582 7.36265 10.4168 7.32726C10.2755 7.29186 10.1457 7.22045 10.0401 7.11997C9.93449 7.01949 9.85674 6.89338 9.81439 6.75392C10.0705 6.69402 10.3048 6.56373 10.4907 6.37775C10.6767 6.19177 10.807 5.95751 10.8669 5.70141ZM11.4656 4.25885C11.4654 4.43979 11.4071 4.61588 11.2993 4.76122C11.1915 4.90657 11.04 5.0135 10.8669 5.06628C10.807 4.81018 10.6767 4.57592 10.4907 4.38994C10.3048 4.20397 10.0705 4.07367 9.81439 4.01377C9.87312 3.82014 9.99948 3.65405 10.1704 3.5458C10.3414 3.43755 10.5455 3.39433 10.7457 3.42404C10.9459 3.45375 11.1287 3.5544 11.2608 3.70764C11.393 3.86088 11.4656 4.0565 11.4656 4.25885ZM9.07354 4.65372C9.25059 4.55111 9.45891 4.51638 9.65968 4.556C9.86044 4.59562 10.0399 4.70689 10.1647 4.86906C10.2895 5.03123 10.3511 5.23325 10.338 5.43747C10.3249 5.64168 10.2379 5.83415 10.0934 5.97902C9.94887 6.12388 9.7566 6.21125 9.55241 6.22484C9.34823 6.23843 9.14607 6.17732 8.98361 6.05289C8.82116 5.92846 8.70948 5.74921 8.6694 5.54854C8.62933 5.34787 8.66358 5.13947 8.76579 4.96218L8.27887 4.68051C8.20933 4.80086 8.15809 4.93088 8.12682 5.06632C7.98735 5.02397 7.86123 4.94623 7.76075 4.84065C7.66026 4.73507 7.58884 4.60526 7.55344 4.46387C7.51804 4.32249 7.51987 4.17434 7.55875 4.03387C7.59764 3.8934 7.67225 3.76539 7.77531 3.66233C7.87837 3.55927 8.00637 3.48466 8.14684 3.44578C8.28732 3.4069 8.43546 3.40507 8.57685 3.44046C8.71824 3.47586 8.84805 3.54729 8.95363 3.64777C9.05921 3.74825 9.13695 3.87437 9.17929 4.01384C9.04285 4.04534 8.9119 4.09711 8.79082 4.16744L9.07354 4.65372ZM7.1198 10.6563C6.82225 10.2189 6.67021 9.69869 6.68531 9.16983C6.81866 9.09242 6.93475 8.98851 7.0264 8.86452C7.11806 8.74053 7.18335 8.59907 7.21824 8.44888C7.33117 8.42279 7.43938 8.37938 7.53904 8.3202C7.50431 8.56717 7.55257 8.81868 7.67623 9.03526C7.79989 9.25184 7.99197 9.42123 8.2223 9.51685C7.98567 10.0045 7.59937 10.4037 7.1198 10.6563ZM10.0593 9.32135C10.0593 9.47053 10.0001 9.61361 9.89457 9.7191C9.78908 9.82459 9.64601 9.88385 9.49683 9.88385C9.34764 9.88385 9.20457 9.82459 9.09908 9.7191C8.99359 9.61361 8.93432 9.47053 8.93432 9.32135C8.93432 9.24676 8.90469 9.17522 8.85195 9.12248C8.7992 9.06973 8.72767 9.0401 8.65307 9.0401C8.50389 9.0401 8.36082 8.98084 8.25533 8.87535C8.14984 8.76986 8.09057 8.62678 8.09057 8.4776C8.09057 8.32841 8.14984 8.18534 8.25533 8.07985C8.36082 7.97436 8.50389 7.9151 8.65307 7.9151V7.88697C8.99026 7.81769 9.2904 7.62733 9.49683 7.35186C9.70325 7.62733 10.0034 7.81769 10.3406 7.88697V7.9151C10.4898 7.9151 10.6328 7.97436 10.7383 8.07985C10.8438 8.18534 10.9031 8.32841 10.9031 8.4776C10.9031 8.62678 10.8438 8.76986 10.7383 8.87535C10.6328 8.98084 10.4898 9.0401 10.3406 9.0401C10.266 9.0401 10.1944 9.06973 10.1417 9.12248C10.089 9.17522 10.0593 9.24676 10.0593 9.32135ZM11.9767 10.6564C11.4837 10.3972 11.0898 9.98291 10.8556 9.47755C11.0633 9.3705 11.2325 9.20151 11.3398 8.99399C11.4471 8.78648 11.4872 8.55072 11.4545 8.3194C11.5542 8.37875 11.6624 8.42234 11.7754 8.44863C11.8147 8.61807 11.8927 8.77613 12.0032 8.91048C12.1137 9.04483 12.2537 9.15184 12.4124 9.22316C12.4162 9.73407 12.2642 10.234 11.9767 10.6564ZM13.7156 7.9151C13.641 7.9151 13.5694 7.94473 13.5167 7.99747C13.464 8.05022 13.4343 8.12176 13.4343 8.19635C13.4343 8.34553 13.3751 8.48861 13.2696 8.5941C13.1641 8.69959 13.021 8.75885 12.8718 8.75885C12.7226 8.75885 12.5796 8.69959 12.4741 8.5941C12.3686 8.48861 12.3093 8.34553 12.3093 8.19635C12.3093 8.12176 12.2797 8.05022 12.227 7.99747C12.1742 7.94473 12.1027 7.9151 12.0281 7.9151C11.9212 7.91484 11.8166 7.88428 11.7264 7.82697C11.6363 7.76966 11.5642 7.68794 11.5186 7.59131C11.7654 7.387 11.9351 7.10461 11.9997 6.7908C12.0091 6.79034 12.0186 6.7901 12.0281 6.7901C12.1027 6.7901 12.1742 6.76047 12.227 6.70772C12.2797 6.65498 12.3093 6.58344 12.3093 6.50885C12.3093 6.35966 12.3686 6.21659 12.4741 6.1111C12.5796 6.00561 12.7226 5.94635 12.8718 5.94635C13.021 5.94635 13.1641 6.00561 13.2696 6.1111C13.3751 6.21659 13.4343 6.35966 13.4343 6.50885C13.4343 6.58344 13.464 6.65498 13.5167 6.70772C13.5694 6.76047 13.641 6.7901 13.7156 6.7901C13.8648 6.7901 14.0078 6.84936 14.1133 6.95485C14.2188 7.06034 14.2781 7.20341 14.2781 7.3526C14.2781 7.50178 14.2188 7.64486 14.1133 7.75035C14.0078 7.85584 13.8648 7.9151 13.7156 7.9151ZM15.2214 5.86946C15.0236 6.13979 14.7679 6.36256 14.4731 6.52154C14.3304 6.39114 14.1565 6.29974 13.9682 6.25618C13.9325 6.10239 13.8648 5.95782 13.7697 5.83179C13.6746 5.70575 13.5541 5.60106 13.416 5.52447C13.5541 5.44788 13.6746 5.34319 13.7697 5.21716C13.8648 5.09113 13.9325 4.94655 13.9682 4.79276C14.1559 4.74934 14.3292 4.65842 14.4716 4.52874C14.8793 4.51169 15.2837 4.60736 15.6406 4.80525C15.5953 5.19029 15.4509 5.55699 15.2214 5.86946ZM13.6498 1.16861C13.7329 1.15034 13.8176 1.14118 13.9027 1.14129C13.9868 1.31745 14.0236 1.51245 14.0096 1.70715C13.9955 1.90184 13.9311 2.08954 13.8226 2.25181C13.7244 2.09636 13.5896 1.96733 13.43 1.87601C13.2704 1.78469 13.0909 1.73387 12.9071 1.72798C12.984 1.58725 13.09 1.46455 13.2181 1.36809C13.3461 1.27162 13.4933 1.20361 13.6498 1.16861ZM12.0281 3.13385C12.1027 3.13385 12.1742 3.10421 12.227 3.05147C12.2797 2.99872 12.3093 2.92719 12.3093 2.8526C12.3093 2.70341 12.3686 2.56034 12.4741 2.45485C12.5796 2.34936 12.7226 2.29009 12.8718 2.29009C13.021 2.29009 13.1641 2.34936 13.2696 2.45485C13.3751 2.56034 13.4343 2.70341 13.4343 2.8526C13.4343 2.92719 13.464 2.99872 13.5167 3.05147C13.5694 3.10421 13.641 3.13385 13.7156 3.13385C13.8648 3.13385 14.0078 3.19311 14.1133 3.2986C14.2188 3.40409 14.2781 3.54716 14.2781 3.69635C14.2781 3.84553 14.2188 3.9886 14.1133 4.09409C14.0078 4.19958 13.8648 4.25885 13.7156 4.25885C13.641 4.25885 13.5694 4.28848 13.5167 4.34122C13.464 4.39397 13.4343 4.4655 13.4343 4.5401C13.4343 4.68928 13.3751 4.83236 13.2696 4.93784C13.1641 5.04333 13.021 5.1026 12.8718 5.1026C12.7226 5.1026 12.5796 5.04333 12.4741 4.93784C12.3686 4.83236 12.3093 4.68928 12.3093 4.5401C12.3093 4.4655 12.2797 4.39397 12.227 4.34122C12.1742 4.28848 12.1027 4.25885 12.0281 4.25885C12.0283 3.89777 11.8892 3.55052 11.6397 3.28952C11.7444 3.18971 11.8834 3.13398 12.0281 3.13385ZM8.65307 2.00884C8.72767 2.00884 8.7992 1.97921 8.85195 1.92647C8.90469 1.87372 8.93432 1.80219 8.93432 1.72759C8.93432 1.57841 8.99359 1.43534 9.09908 1.32985C9.20457 1.22436 9.34764 1.16509 9.49683 1.16509C9.64601 1.16509 9.78908 1.22436 9.89457 1.32985C10.0001 1.43534 10.0593 1.57841 10.0593 1.72759C10.0593 1.80219 10.089 1.87372 10.1417 1.92647C10.1944 1.97921 10.266 2.00884 10.3406 2.00884C10.4407 2.00883 10.539 2.03553 10.6253 2.0862C10.7117 2.13687 10.783 2.20966 10.8318 2.29707C10.8806 2.38447 10.9052 2.48333 10.903 2.58342C10.9009 2.68351 10.8721 2.78122 10.8195 2.86645C10.5701 2.83117 10.3157 2.86356 10.083 2.96023C9.85031 3.0569 9.64787 3.2143 9.49683 3.41597C9.34578 3.2143 9.14332 3.0569 8.91063 2.96023C8.67794 2.86356 8.42356 2.83117 8.17407 2.86645C8.12155 2.78121 8.09272 2.6835 8.09057 2.58341C8.08843 2.48331 8.11303 2.38446 8.16185 2.29705C8.21068 2.20964 8.28194 2.13685 8.36829 2.08619C8.45465 2.03552 8.55296 2.00882 8.65307 2.00884ZM5.008 1.38173C5.0265 1.29871 5.05434 1.21805 5.09097 1.14129C5.17601 1.14109 5.26081 1.15025 5.34385 1.16861C5.50029 1.2037 5.64745 1.27176 5.7755 1.36825C5.90355 1.46474 6.00953 1.58744 6.08638 1.72816C5.90245 1.73407 5.72278 1.78499 5.5631 1.87646C5.40342 1.96793 5.2686 2.09716 5.17046 2.25283C5.08562 2.12629 5.02746 1.98378 4.99952 1.83401C4.97159 1.68424 4.97448 1.53035 5.008 1.38173ZM5.27807 3.13385C5.35266 3.13385 5.4242 3.10421 5.47694 3.05147C5.52969 2.99872 5.55932 2.92719 5.55932 2.8526C5.55932 2.70341 5.61858 2.56034 5.72407 2.45485C5.82956 2.34936 5.97264 2.29009 6.12182 2.29009C6.27101 2.29009 6.41408 2.34936 6.51957 2.45485C6.62506 2.56034 6.68432 2.70341 6.68432 2.8526C6.68432 2.92719 6.71395 2.99872 6.7667 3.05147C6.81944 3.10421 6.89098 3.13385 6.96557 3.13385C7.11035 3.1334 7.24966 3.18907 7.35426 3.28917C7.10455 3.55021 6.9653 3.8976 6.96557 4.25885C6.89098 4.25885 6.81944 4.28848 6.7667 4.34122C6.71395 4.39397 6.68432 4.4655 6.68432 4.5401C6.68432 4.68928 6.62506 4.83236 6.51957 4.93784C6.41408 5.04333 6.27101 5.1026 6.12182 5.1026C5.97264 5.1026 5.82956 5.04333 5.72407 4.93784C5.61858 4.83236 5.55932 4.68928 5.55932 4.5401C5.55932 4.4655 5.52969 4.39397 5.47694 4.34122C5.4242 4.28848 5.35266 4.25885 5.27807 4.25885C5.12889 4.25885 4.98581 4.19958 4.88032 4.09409C4.77483 3.9886 4.71557 3.84553 4.71557 3.69635C4.71557 3.54716 4.77483 3.40409 4.88032 3.2986C4.98581 3.19311 5.12889 3.13385 5.27807 3.13385ZM4.5239 4.53039C4.66594 4.65923 4.8386 4.74956 5.02544 4.79276C5.06121 4.94656 5.12884 5.09114 5.22395 5.21717C5.31907 5.3432 5.43955 5.44789 5.57764 5.52447C5.43955 5.60105 5.31907 5.70574 5.22395 5.83177C5.12884 5.95781 5.06121 6.10239 5.02544 6.25618C4.83207 6.30093 4.654 6.39609 4.50934 6.53198C4.18641 6.3619 3.90964 6.1159 3.70286 5.81515C3.49607 5.5144 3.36545 5.16791 3.32226 4.80549C3.68943 4.60383 4.10556 4.50856 4.5239 4.53039Z" fill="#7D879C"/>
<path d="M5.84058 3.41504H6.40308V3.97754H5.84058V3.41504Z" fill="#7D879C"/>
<path d="M12.5906 3.41504H13.1531V3.97754H12.5906V3.41504Z" fill="#7D879C"/>
<path d="M9.21558 2.29004H9.77808V2.85254H9.21558V2.29004Z" fill="#7D879C"/>
<path d="M5.84058 7.07129H6.40308V7.63379H5.84058V7.07129Z" fill="#7D879C"/>
<path d="M12.5906 7.07129H13.1531V7.63379H12.5906V7.07129Z" fill="#7D879C"/>
<path d="M9.21558 8.19629H9.77808V8.75879H9.21558V8.19629Z" fill="#7D879C"/>
</g>
<defs>
<clipPath id="clip0_10062_47414">
<rect width="18" height="18" fill="white" transform="translate(0.494629 0.0400391)"/>
</clipPath>
</defs>
</svg>
