<svg width="19" height="19" viewBox="0 0 19 19" fill="none" xmlns="http://www.w3.org/2000/svg">
<g clip-path="url(#clip0_10062_47499)">
<path d="M6.1082 0.698636C4.99171 1.1513 3.98987 1.81686 3.1308 2.67567C2.27147 3.53473 1.60665 4.53681 1.15373 5.65304C0.716486 6.73147 0.494629 7.87108 0.494629 9.04004C0.494629 10.2088 0.716486 11.3484 1.15373 12.4263C1.60665 13.5428 2.27172 14.5448 3.1308 15.4037C3.98987 16.263 4.99146 16.928 6.1082 17.3807C7.18665 17.8184 8.32603 18.0395 9.495 18.0395C10.664 18.0395 11.8031 17.8177 12.8816 17.3807C13.9978 16.928 15.0001 16.263 15.859 15.4037C16.7183 14.5448 17.3834 13.5433 17.836 12.4263C18.2733 11.3484 18.4946 10.2088 18.4946 9.04004C18.4946 7.87108 18.273 6.73147 17.836 5.65304C17.3834 4.53681 16.7178 3.53448 15.859 2.67567C15.0001 1.81686 13.9988 1.1513 12.8816 0.698636C11.8031 0.261644 10.664 0.0400391 9.495 0.0400391C8.32603 0.0400391 7.18665 0.261644 6.1082 0.698636ZM2.74404 12.8287C2.31052 12.5566 1.91108 12.2432 1.5574 11.8741C1.01719 10.354 0.925658 8.70825 1.28356 7.14607C1.45195 6.81404 1.64346 6.49519 1.86009 6.18977C1.927 6.0955 1.98893 5.99726 2.06056 5.90573L4.09159 7.10752C4.09159 7.12344 4.09159 7.14085 4.09159 7.15851C4.08637 8.25087 4.1973 9.33526 4.41816 10.404C4.41891 10.409 4.41965 10.4117 4.42065 10.4162L2.84552 12.8859C2.81119 12.8685 2.77712 12.8496 2.74404 12.8287ZM8.78292 17.0039C9.13337 17.1827 9.49376 17.3337 9.8641 17.4566C8.29096 17.525 6.70214 17.1564 5.29763 16.3505L8.70234 16.9571C8.72845 16.9738 8.75506 16.9897 8.78292 17.0039ZM8.77048 16.3893L4.75269 15.6733C4.28261 15.1025 3.85979 14.4986 3.49641 13.8532C3.40389 13.689 3.30067 13.5296 3.22232 13.3582L4.79597 10.891C4.83079 10.8997 4.86959 10.9089 4.91361 10.9206C5.89804 11.184 6.89987 11.3712 7.90868 11.518C7.96762 11.5262 8.01687 11.5334 8.0589 11.5379L9.94518 14.7993C9.61787 15.2594 9.28682 15.717 8.94857 16.1697C8.89236 16.2451 8.83266 16.3174 8.77048 16.3893ZM15.455 15C15.1352 15.3201 14.7957 15.6086 14.4403 15.8658C14.3813 15.3947 14.2796 14.9331 14.1361 14.4822L16.1487 10.7276C16.7031 10.4751 17.2379 10.1889 17.7343 9.83394C17.7992 9.78792 17.8532 9.73644 17.895 9.68023C17.7492 11.6205 16.9359 13.5194 15.455 15ZM15.3658 10.1307C15.4406 10.2734 15.5145 10.4177 15.5886 10.5639L13.6446 14.1902C13.6334 14.1927 13.6227 14.1952 13.6115 14.1966C12.5607 14.3929 11.5014 14.4973 10.4332 14.5023L8.49316 11.1479C8.79511 10.5873 9.09432 10.0245 9.39104 9.46136C9.5925 9.07934 9.79048 8.69482 9.98821 8.31056L14.0033 7.89819C14.495 8.61946 14.9608 9.35616 15.3658 10.1307ZM14.5512 5.82938C14.3607 6.33253 14.1567 6.83046 13.954 7.32938L10.0427 7.73105C9.99592 7.66937 9.94742 7.60868 9.89643 7.55073C9.43456 7.02769 8.96971 6.50787 8.5056 5.98657C8.50983 5.98134 8.51406 5.97736 8.51828 5.97264C8.331 5.7856 8.14322 5.59857 7.95593 5.41104L9.04482 2.13273C9.11993 2.11283 9.19555 2.09617 9.2719 2.08796C9.86385 2.02777 10.4565 1.95962 11.05 1.9253C11.4134 1.9049 11.7787 1.89321 12.1483 1.91933L14.8424 4.95589C14.7497 5.24888 14.6591 5.54261 14.5512 5.82938ZM15.455 3.07958C16.1982 3.82324 16.7737 4.67186 17.1806 5.57842C16.6772 5.23196 16.139 4.94694 15.5732 4.71464C15.4851 4.67832 15.3949 4.64624 15.3031 4.61465L12.6512 1.62585C12.6696 1.49676 12.6793 1.36743 12.6833 1.2371C13.6921 1.64773 14.6378 2.26256 15.455 3.07958ZM6.79566 1.08017C6.80611 1.08788 6.81108 1.09434 6.81705 1.09608C7.42318 1.3055 7.97459 1.61391 8.49441 1.97977L7.47715 5.04319C7.47193 5.04468 7.46695 5.04617 7.46198 5.04841C7.2538 5.13447 7.04164 5.21157 6.8367 5.30484C5.9923 5.6886 5.16904 6.11366 4.39354 6.62328L2.38613 5.43566C2.38912 5.37299 2.39981 5.30931 2.4212 5.25261C2.55601 4.89346 2.68857 4.53233 2.84104 4.1804C2.95843 3.9093 3.09224 3.6474 3.23824 3.39147C3.33375 3.28602 3.43274 3.18156 3.53471 3.07958C4.48805 2.12651 5.61475 1.44976 6.81431 1.04957C6.8081 1.05927 6.80163 1.06947 6.79566 1.08017Z" fill="#7D879C"/>
</g>
<defs>
<clipPath id="clip0_10062_47499">
<rect width="18" height="18" fill="white" transform="translate(0.494629 0.0400391)"/>
</clipPath>
</defs>
</svg>
