<svg width="19" height="19" viewBox="0 0 19 19" fill="none" xmlns="http://www.w3.org/2000/svg">
<g clip-path="url(#clip0_9470_85043)">
<path d="M18.2043 9.91938H17.4708V0.91194C17.4708 0.813306 17.4402 0.718711 17.3857 0.648966C17.3313 0.579221 17.2574 0.540039 17.1804 0.540039H1.80882C1.73182 0.540039 1.65798 0.579221 1.60353 0.648966C1.54909 0.718711 1.5185 0.813306 1.5185 0.91194V9.91938H0.784951C0.707953 9.91938 0.634108 9.95856 0.579662 10.0283C0.525216 10.0981 0.494629 10.1926 0.494629 10.2913L0.494629 15.5425C0.49514 15.6407 0.525953 15.7347 0.580344 15.8039C0.634734 15.8731 0.708287 15.9119 0.784951 15.9119H3.01076V18.1681C3.01076 18.2668 3.04135 18.3614 3.09579 18.4311C3.15024 18.5009 3.22408 18.54 3.30108 18.54H5.34302C5.42001 18.54 5.49386 18.5009 5.54831 18.4311C5.60275 18.3614 5.63334 18.2668 5.63334 18.1681V15.9119H13.2514V18.1681C13.2514 18.2668 13.282 18.3614 13.3364 18.4311C13.3909 18.5009 13.4647 18.54 13.5417 18.54H15.5914C15.6684 18.54 15.7422 18.5009 15.7967 18.4311C15.8511 18.3614 15.8817 18.2668 15.8817 18.1681V15.9119H18.2043C18.2813 15.9119 18.3551 15.8728 18.4096 15.803C18.464 15.7333 18.4946 15.6387 18.4946 15.54V10.2913C18.4946 10.1926 18.464 10.0981 18.4096 10.0283C18.3551 9.95856 18.2813 9.91938 18.2043 9.91938ZM3.89334 6.16318C3.89385 5.91417 3.9713 5.67554 4.10875 5.49946C4.24621 5.32338 4.43249 5.22416 4.62689 5.22351H7.70237C7.88323 5.22296 8.05787 5.30802 8.19276 5.46235C8.32765 5.61668 8.41328 5.82941 8.4332 6.05968C8.45312 6.28995 8.40593 6.52153 8.30069 6.70995C8.19545 6.89837 8.03958 7.03035 7.86302 7.08053H4.46624C4.30375 7.03336 4.15859 6.91691 4.05451 6.75025C3.95043 6.58359 3.8936 6.37661 3.89334 6.16318ZM3.8585 7.82434H4.41398C4.48431 7.84002 4.55551 7.84831 4.62689 7.84913H7.70237C7.77375 7.84831 7.84495 7.84002 7.91527 7.82434H11.0759C11.1462 7.84002 11.2174 7.84831 11.2888 7.84913H14.3624C14.4337 7.84831 14.505 7.84002 14.5753 7.82434H15.1308C15.5481 7.8228 15.9523 8.01114 16.2713 8.35578C16.5903 8.70042 16.8034 9.17898 16.8727 9.70616H2.13011C2.21144 9.18924 2.42611 8.72237 2.73959 8.38061C3.05307 8.03885 3.44716 7.84206 3.8585 7.82186V7.82434ZM10.5591 6.16318C10.5597 5.91417 10.6371 5.67554 10.7746 5.49946C10.912 5.32338 11.0983 5.22416 11.2927 5.22351H14.3624C14.5432 5.22296 14.7179 5.30802 14.8528 5.46235C14.9877 5.61668 15.0733 5.82941 15.0932 6.05968C15.1131 6.28995 15.0659 6.52153 14.9607 6.70995C14.8555 6.89837 14.6996 7.03035 14.523 7.08053H11.1282C10.9664 7.03239 10.8221 6.91552 10.7188 6.74895C10.6155 6.58239 10.5592 6.37593 10.5591 6.16318ZM16.8901 1.28384V8.10698C16.5187 7.56431 16.0065 7.21207 15.4482 7.11525C15.5831 6.86225 15.6615 6.56688 15.6751 6.26099C15.6886 5.95509 15.6368 5.65025 15.525 5.37934C15.4133 5.10842 15.246 4.8817 15.0411 4.7236C14.8362 4.56551 14.6016 4.48204 14.3624 4.48219H11.2869C11.0504 4.48234 10.8183 4.56424 10.6151 4.71926C10.4119 4.87428 10.2451 5.09668 10.1323 5.36299C10.0196 5.6293 9.965 5.92965 9.97437 6.23238C9.98374 6.53511 10.0567 6.82898 10.1856 7.08301H8.80366C8.93254 6.82898 9.00551 6.53511 9.01489 6.23238C9.02426 5.92965 8.96968 5.6293 8.85692 5.36299C8.74415 5.09668 8.57737 4.87428 8.37417 4.71926C8.17097 4.56424 7.93888 4.48234 7.70237 4.48219H4.62689C4.38756 4.48218 4.15277 4.5659 3.94786 4.7243C3.74295 4.8827 3.57569 5.10977 3.46414 5.38101C3.3526 5.65225 3.30099 5.95737 3.31489 6.26343C3.32879 6.56949 3.40767 6.86488 3.54302 7.11773C2.98155 7.23288 2.4704 7.60025 2.10108 8.15409V1.28384H16.8901ZM5.05269 17.7962H3.5914V15.9119H5.06044L5.05269 17.7962ZM15.2991 17.7962H13.832V15.9119H15.3011L15.2991 17.7962ZM17.914 15.1681H1.07527V10.6632H17.914V15.1681Z" fill="#4BB4B4"/>
</g>
<defs>
<clipPath id="clip0_9470_85043">
<rect width="18" height="18" fill="white" transform="translate(0.494629 0.540039)"/>
</clipPath>
</defs>
</svg>
