<svg width="19" height="19" viewBox="0 0 19 19" fill="none" xmlns="http://www.w3.org/2000/svg">
<g clip-path="url(#clip0_9470_85039)">
<path d="M8.08836 5.60442C8.12534 5.60451 8.16198 5.59729 8.19617 5.5832C8.23036 5.5691 8.26143 5.5484 8.28761 5.52228C8.31379 5.49616 8.33456 5.46513 8.34874 5.43097C8.36291 5.39681 8.3702 5.3602 8.3702 5.32321C8.3702 5.28623 8.36291 5.24961 8.34874 5.21545C8.33456 5.18129 8.31379 5.15026 8.28761 5.12414C8.26143 5.09802 8.23036 5.07732 8.19617 5.06323C8.16198 5.04913 8.12534 5.04192 8.08836 5.042H6.73436L5.41491 2.65632C5.39638 2.62281 5.37121 2.59344 5.34093 2.57001C5.31065 2.54657 5.27591 2.52957 5.23883 2.52003C5.20174 2.5105 5.16311 2.50864 5.12528 2.51457C5.08745 2.52049 5.05124 2.53408 5.01885 2.5545L4.14145 3.10738C4.08129 3.14528 4.03772 3.20457 4.01953 3.27331C4.00133 3.34206 4.00986 3.41514 4.0434 3.47784L4.87959 5.042H4.01024V2.5107C4.01022 2.43612 3.98059 2.36459 3.92784 2.31185C3.8751 2.25912 3.80357 2.22949 3.72899 2.22949H2.60398C2.5294 2.22949 2.45787 2.25912 2.40513 2.31185C2.35238 2.36459 2.32275 2.43612 2.32273 2.5107V5.042H0.77586C0.738877 5.04192 0.702242 5.04913 0.668051 5.06323C0.633861 5.07732 0.602786 5.09802 0.576606 5.12414C0.550427 5.15026 0.529656 5.18129 0.515485 5.21545C0.501313 5.24961 0.494019 5.28623 0.494019 5.32321C0.494019 5.3602 0.501313 5.39681 0.515485 5.43097C0.529656 5.46513 0.550427 5.49616 0.576606 5.52228C0.602786 5.5484 0.633861 5.5691 0.668051 5.5832C0.702242 5.59729 0.738877 5.60451 0.77586 5.60442H8.08836ZM3.44774 5.042H2.88524V2.79191H3.44774V5.042ZM5.51739 5.042L4.66289 3.44358L5.06678 3.18908L6.09163 5.042H5.51739ZM14.8384 7.01074C15.339 7.01074 15.8284 6.86229 16.2447 6.58415C16.6609 6.30601 16.9853 5.91069 17.1769 5.44816C17.3685 4.98564 17.4186 4.47669 17.321 3.98567C17.2233 3.49466 16.9822 3.04363 16.6282 2.68963C16.2742 2.33563 15.8232 2.09455 15.3322 1.99688C14.8412 1.89921 14.3322 1.94934 13.8697 2.14092C13.4072 2.33251 13.0118 2.65694 12.7337 3.07321C12.4556 3.48947 12.3071 3.97886 12.3071 4.47949C12.3079 5.15059 12.5748 5.79397 13.0493 6.26851C13.5239 6.74304 14.1673 7.00998 14.8384 7.01074ZM14.8384 2.51074C15.2277 2.51074 15.6084 2.62621 15.9321 2.84254C16.2559 3.05887 16.5082 3.36634 16.6573 3.72609C16.8063 4.08583 16.8452 4.48168 16.7693 4.86358C16.6933 5.24548 16.5058 5.59628 16.2305 5.87161C15.9551 6.14694 15.6043 6.33445 15.2224 6.41041C14.8405 6.48638 14.4447 6.44739 14.085 6.29838C13.7252 6.14937 13.4177 5.89703 13.2014 5.57327C12.9851 5.24951 12.8696 4.86888 12.8696 4.47949C12.8702 3.95753 13.0778 3.45711 13.4469 3.08802C13.816 2.71894 14.3164 2.51133 14.8384 2.51074ZM4.43211 13.7607H0.77586C0.732965 13.7607 0.690638 13.7705 0.652117 13.7894C0.613596 13.8083 0.579903 13.8357 0.553615 13.8696C0.527327 13.9035 0.509142 13.943 0.50045 13.985C0.491759 14.027 0.492791 14.0704 0.503469 14.112L1.13017 16.5508C1.16944 16.7147 1.26188 16.861 1.39305 16.9668C1.52423 17.0726 1.68676 17.132 1.85527 17.1357H3.3527C3.52121 17.132 3.68374 17.0726 3.81492 16.9668C3.94609 16.861 4.03854 16.7147 4.0778 16.5508L4.7045 14.112C4.71518 14.0704 4.71621 14.027 4.70752 13.985C4.69883 13.943 4.68064 13.9035 4.65435 13.8696C4.62807 13.8357 4.59437 13.8083 4.55585 13.7894C4.51733 13.7705 4.475 13.7607 4.43211 13.7607ZM3.52814 16.4312C3.51663 16.4698 3.49372 16.504 3.46241 16.5294C3.4311 16.5547 3.39286 16.57 3.3527 16.5732H1.85527C1.81511 16.57 1.77687 16.5547 1.74556 16.5294C1.71425 16.504 1.69134 16.4698 1.67983 16.4312C1.67887 16.4264 1.13855 14.3232 1.13855 14.3232H4.06942C4.06942 14.3232 3.5291 16.4264 3.52814 16.4312ZM0.52029 11.4568C0.514244 11.4877 0.376919 12.222 0.811085 12.8099C1.09219 13.1905 1.53536 13.4152 2.12821 13.4779C2.1975 13.4847 2.26687 13.4657 2.32311 13.4247C2.37935 13.3836 2.41853 13.3234 2.43322 13.2553C2.43981 13.2235 2.5895 12.4696 2.14895 11.8786C1.86653 11.4998 1.41945 11.2817 0.820287 11.2305C0.751174 11.2246 0.682295 11.2444 0.62691 11.2861C0.571525 11.3279 0.533548 11.3887 0.52029 11.4568ZM1.69562 12.2117C1.82957 12.4044 1.90098 12.6337 1.90017 12.8684C1.64991 12.8165 1.42563 12.6789 1.26612 12.4792C1.13435 12.2899 1.06212 12.0655 1.05869 11.8349C1.30926 11.8802 1.53526 12.0139 1.69562 12.2117ZM2.77475 13.2553C2.79015 13.323 2.82951 13.3828 2.88558 13.4237C2.94164 13.4646 3.01061 13.4839 3.07976 13.4779C3.67261 13.4152 4.11577 13.1905 4.39689 12.8099C4.83105 12.222 4.69372 11.4877 4.68768 11.4568C4.6743 11.3887 4.63629 11.328 4.58094 11.2863C4.52558 11.2445 4.45677 11.2247 4.38769 11.2305C3.78852 11.2817 3.34144 11.4998 3.05903 11.8786C2.61848 12.4696 2.76816 13.2235 2.77475 13.2553ZM3.51002 12.2149C3.67036 12.0153 3.89737 11.8804 4.14928 11.8349C4.14577 12.0641 4.07447 12.2871 3.94439 12.4758C3.78494 12.6773 3.55961 12.8163 3.30794 12.8683C3.30723 12.635 3.37772 12.4071 3.51001 12.2149H3.51002ZM2.40438 8.6407C2.37808 8.66721 1.76023 9.29885 1.76023 10.1045C1.76023 10.9101 2.37808 11.5418 2.40438 11.5683C2.43053 11.5946 2.46162 11.6155 2.49588 11.6298C2.53014 11.644 2.56688 11.6514 2.60399 11.6514C2.64109 11.6514 2.67783 11.644 2.71209 11.6298C2.74635 11.6155 2.77745 11.5946 2.80359 11.5683C2.82989 11.5418 3.44774 10.9101 3.44774 10.1045C3.44774 9.29885 2.82989 8.66721 2.80359 8.6407C2.74974 8.58952 2.67828 8.56098 2.60398 8.56098C2.52969 8.56098 2.45823 8.58952 2.40438 8.6407ZM2.60398 10.9169C2.4342 10.6787 2.33657 10.3967 2.32273 10.1045C2.33658 9.8123 2.43421 9.53027 2.60398 9.29205C2.77377 9.53026 2.8714 9.8123 2.88524 10.1045C2.87139 10.3967 2.77376 10.6787 2.60398 10.9169Z" fill="#7D879C"/>
<path d="M14.6833 4.72957L15.5271 5.29207C15.5896 5.33204 15.6651 5.34624 15.7378 5.3317C15.8105 5.31715 15.8748 5.27499 15.9171 5.21407C15.9585 5.152 15.9735 5.07605 15.9588 5.00291C15.9442 4.92977 15.9011 4.86544 15.8391 4.82405L15.1196 4.3444V3.35449C15.1196 3.2799 15.09 3.20836 15.0373 3.15562C14.9845 3.10287 14.913 3.07324 14.8384 3.07324C14.7638 3.07324 14.6922 3.10287 14.6395 3.15562C14.5868 3.20836 14.5571 3.2799 14.5571 3.35449V4.47949C14.5571 4.48408 14.5583 4.48834 14.5585 4.49286C14.5579 4.5396 14.5691 4.58572 14.5909 4.62706C14.6127 4.66839 14.6445 4.70363 14.6833 4.72957ZM13.7134 11.2295H12.5884C12.5138 11.2295 12.4422 11.2591 12.3895 11.3119C12.3368 11.3646 12.3071 11.4361 12.3071 11.5107C12.3071 11.5853 12.3368 11.6569 12.3895 11.7096C12.4422 11.7624 12.5138 11.792 12.5884 11.792H13.7134C13.788 11.792 13.8595 11.7624 13.9123 11.7096C13.965 11.6569 13.9946 11.5853 13.9946 11.5107C13.9946 11.4361 13.965 11.3646 13.9123 11.3119C13.8595 11.2591 13.788 11.2295 13.7134 11.2295Z" fill="#7D879C"/>
<path d="M18.2134 14.042C18.288 14.042 18.3595 14.0124 18.4123 13.9596C18.465 13.9069 18.4946 13.8353 18.4946 13.7607C18.4946 13.6862 18.465 13.6146 18.4123 13.5619C18.3595 13.5091 18.288 13.4795 18.2134 13.4795H16.8071V9.40137H18.2134C18.288 9.40137 18.3595 9.37174 18.4123 9.31899C18.465 9.26625 18.4946 9.19471 18.4946 9.12012C18.4946 9.04553 18.465 8.97399 18.4123 8.92124C18.3595 8.8685 18.288 8.83887 18.2134 8.83887H7.37894C7.11963 8.83916 6.87103 8.9423 6.68767 9.12566C6.50432 9.30902 6.40118 9.55762 6.40088 9.81693V10.8318C6.16877 10.8734 5.95812 10.9939 5.80443 11.1727C5.65074 11.3516 5.5634 11.578 5.55713 11.8137V14.864C5.56694 15.1399 5.6856 15.4006 5.88714 15.5891C6.08868 15.7776 6.3567 15.8787 6.63255 15.8701H7.99297C7.98666 15.9167 7.98332 15.9637 7.98298 16.0107C7.98332 16.3089 8.102 16.5947 8.31294 16.8054C8.52389 17.0162 8.80986 17.1345 9.10802 17.1345C9.40618 17.1345 9.69214 17.0162 9.90309 16.8054C10.114 16.5947 10.2327 16.3089 10.2331 16.0107C10.2327 15.9637 10.2294 15.9167 10.2231 15.8701H18.2134C18.288 15.8701 18.3595 15.8405 18.4123 15.7877C18.465 15.735 18.4946 15.6635 18.4946 15.5889C18.4946 15.5143 18.465 15.4427 18.4123 15.39C18.3595 15.3372 18.288 15.3076 18.2134 15.3076H7.80713V14.042H18.2134ZM8.56549 15.8701H9.65054C9.66332 15.9159 9.67005 15.9632 9.67055 16.0107C9.67055 16.1599 9.61128 16.303 9.50578 16.4085C9.40029 16.514 9.25721 16.5733 9.10801 16.5733C8.95882 16.5733 8.81574 16.514 8.71024 16.4085C8.60474 16.303 8.54548 16.1599 8.54548 16.0107C8.54598 15.9632 8.5527 15.9159 8.56549 15.8701ZM10.0571 9.40137H16.2446V13.4795H10.0571V9.40137ZM7.24463 15.3076H6.63255C6.5059 15.316 6.38106 15.2741 6.28505 15.1911C6.18905 15.1081 6.12962 14.9906 6.11963 14.864V13.0513H7.24463V15.3076ZM7.24463 12.4888H6.11963V11.8137C6.12962 11.6872 6.18905 11.5697 6.28505 11.4866C6.38106 11.4036 6.5059 11.3617 6.63255 11.3701H6.73191C6.85853 11.3618 6.98334 11.4037 7.07931 11.4867C7.17527 11.5697 7.23467 11.6872 7.24463 11.8137V12.4888ZM6.96338 10.8317V9.81693C6.96351 9.70675 7.00733 9.60113 7.08523 9.52322C7.16314 9.44532 7.26876 9.40149 7.37894 9.40137H9.49463V13.4795H7.80713V11.8137C7.80087 11.5779 7.71354 11.3516 7.55985 11.1727C7.40615 10.9938 7.1955 10.8734 6.96338 10.8317Z" fill="#7D879C"/>
</g>
<defs>
<clipPath id="clip0_9470_85039">
<rect width="18" height="18" fill="white" transform="translate(0.494629 0.541992)"/>
</clipPath>
</defs>
</svg>
