<svg width="19" height="19" viewBox="0 0 19 19" fill="none" xmlns="http://www.w3.org/2000/svg">
<g clip-path="url(#clip0_9470_85063)">
<path d="M17.9321 11.79H16.8071V10.1025C16.8071 10.0279 16.7775 9.95641 16.7248 9.90367C16.672 9.85092 16.6005 9.82129 16.5259 9.82129H9.21338C9.13879 9.82129 9.06725 9.85092 9.0145 9.90367C8.96176 9.95641 8.93213 10.0279 8.93213 10.1025V11.79H7.80713C7.73254 11.79 7.661 11.8197 7.60825 11.8724C7.55551 11.9252 7.52588 11.9967 7.52588 12.0713V15.4463C7.52588 15.5209 7.55551 15.5924 7.60825 15.6452C7.661 15.6979 7.73254 15.7275 7.80713 15.7275H8.08838V16.29H4.99463V16.8525H17.9321V16.29H17.6509V15.7275H17.9321C18.0067 15.7275 18.0783 15.6979 18.131 15.6452C18.1837 15.5924 18.2134 15.5209 18.2134 15.4463V12.0713C18.2134 11.9967 18.1837 11.9252 18.131 11.8724C18.0783 11.8197 18.0067 11.79 17.9321 11.79ZM9.49463 13.4775H16.2446V14.04H9.49463V13.4775ZM16.2446 12.0713V12.915H13.1509V10.3838H16.2446V12.0713ZM9.49463 10.3838H12.5884V12.915H9.49463V10.3838ZM8.65088 16.29V15.7275H9.21338V16.29H8.65088ZM15.9634 15.7275V16.29H9.77588V15.7275H15.9634ZM17.0884 16.29H16.5259V15.7275H17.0884V16.29ZM17.6509 15.165H8.08838V12.3525H8.93213V14.3213C8.93213 14.3959 8.96176 14.4674 9.0145 14.5202C9.06725 14.5729 9.13879 14.6025 9.21338 14.6025H16.5259C16.6005 14.6025 16.672 14.5729 16.7248 14.5202C16.7775 14.4674 16.8071 14.3959 16.8071 14.3213V12.3525H17.6509V15.165Z" fill="#7D879C"/>
<path d="M6.40088 14.6025C6.47547 14.6025 6.54701 14.5729 6.59975 14.5202C6.6525 14.4674 6.68213 14.3959 6.68213 14.3213V5.32129C6.68213 5.2467 6.6525 5.17516 6.59975 5.12242C6.54701 5.06967 6.47547 5.04004 6.40088 5.04004H1.05713C0.982537 5.04004 0.911 5.06967 0.858255 5.12242C0.805511 5.17516 0.775879 5.2467 0.775879 5.32129V14.3213C0.775879 14.3959 0.805511 14.4674 0.858255 14.5202C0.911 14.5729 0.982537 14.6025 1.05713 14.6025H6.40088ZM3.02588 10.665H3.30713V12.915H1.33838V8.8701L1.74535 9.07373C1.79218 9.09691 1.83158 9.13276 1.85907 9.1772C1.88656 9.22165 1.90105 9.27291 1.90088 9.32516V9.54004C1.90088 9.83841 2.01941 10.1246 2.23038 10.3355C2.44136 10.5465 2.72751 10.665 3.02588 10.665ZM4.99463 10.1025H5.55713C5.7552 10.1014 5.94938 10.0474 6.11963 9.94616V12.915H4.99463V10.1025ZM6.11963 5.60254V8.97754C6.11963 9.12672 6.06037 9.2698 5.95488 9.37529C5.84939 9.48078 5.70631 9.54004 5.55713 9.54004H4.99463V9.09398L5.47472 8.61388L5.07703 8.2162L4.51454 8.7787C4.46179 8.83143 4.43214 8.90295 4.43213 8.97754V13.1963C4.43213 13.2709 4.46176 13.3424 4.51451 13.3952C4.56725 13.4479 4.63879 13.4775 4.71338 13.4775H6.11963V14.04H1.33838V13.4775H3.58838C3.66297 13.4775 3.73451 13.4479 3.78725 13.3952C3.84 13.3424 3.86963 13.2709 3.86963 13.1963V9.25879C3.86963 9.19794 3.84989 9.13872 3.81338 9.09004L2.96963 7.96504L2.51963 8.30254L3.30713 9.35245V10.1025H3.02588C2.87669 10.1025 2.73362 10.0433 2.62813 9.93779C2.52264 9.8323 2.46338 9.68922 2.46338 9.54004V9.32516C2.46393 9.16838 2.42053 9.01457 2.33811 8.8812C2.25569 8.74782 2.13754 8.64021 1.99707 8.57057L1.33838 8.24123V5.60254H6.11963Z" fill="#7D879C"/>
<path d="M3.30713 16.29H1.05713V16.8525H3.30713V16.29Z" fill="#7D879C"/>
<path d="M4.43213 16.29H3.86963V16.8525H4.43213V16.29Z" fill="#7D879C"/>
<path d="M8.65088 6.72754H16.8071C16.8817 6.72754 16.9533 6.69791 17.006 6.64516C17.0587 6.59242 17.0884 6.52088 17.0884 6.44629V5.32129C17.0884 5.2467 17.0587 5.17516 17.006 5.12242C16.9533 5.06967 16.8817 5.04004 16.8071 5.04004H15.9634V3.35254C15.9634 3.27795 15.9337 3.20641 15.881 3.15367C15.8283 3.10092 15.7567 3.07129 15.6821 3.07129H14.8384V2.50879C14.8384 2.4342 14.8087 2.36266 14.756 2.30992C14.7033 2.25717 14.6317 2.22754 14.5571 2.22754H10.0571C9.98254 2.22754 9.911 2.25717 9.85825 2.30992C9.80551 2.36266 9.77588 2.4342 9.77588 2.50879V5.04004H8.65088C8.57629 5.04004 8.50475 5.06967 8.452 5.12242C8.39926 5.17516 8.36963 5.2467 8.36963 5.32129V6.44629C8.36963 6.52088 8.39926 6.59242 8.452 6.64516C8.50475 6.69791 8.57629 6.72754 8.65088 6.72754ZM15.4009 3.63379V5.04004H14.8384V3.63379H15.4009ZM14.2759 5.04004H13.7134V2.79004H14.2759V5.04004ZM13.1509 5.04004H12.5884V2.79004H13.1509V5.04004ZM12.0259 5.04004H11.4634V2.79004H12.0259V5.04004ZM10.3384 2.79004H10.9009V5.04004H10.3384V2.79004ZM8.93213 5.60254H16.5259V6.16504H8.93213V5.60254Z" fill="#7D879C"/>
</g>
<defs>
<clipPath id="clip0_9470_85063">
<rect width="18" height="18" fill="white" transform="translate(0.494629 0.540039)"/>
</clipPath>
</defs>
</svg>
