<svg width="19" height="19" viewBox="0 0 19 19" fill="none" xmlns="http://www.w3.org/2000/svg">
<g clip-path="url(#clip0_9470_85077)">
<path d="M4.57275 16.4301H4.33253V6.65723C4.33253 6.46309 4.1751 6.30566 3.98097 6.30566C3.78684 6.30566 3.62941 6.46309 3.62941 6.65723V16.4301H3.30713C2.33787 16.4301 1.54932 17.2187 1.54932 18.1879C1.54932 18.382 1.70675 18.5395 1.90088 18.5395H5.979C6.17314 18.5395 6.33057 18.382 6.33057 18.1879C6.33057 17.2187 5.54201 16.4301 4.57275 16.4301ZM2.3127 17.8364C2.45779 17.4271 2.8488 17.1332 3.30713 17.1332H4.57275C5.03109 17.1332 5.42209 17.4271 5.56718 17.8364H2.3127Z" fill="#7D879C"/>
<path d="M7.44383 5.09125L5.77978 0.767029C5.72754 0.631326 5.59711 0.541748 5.45167 0.541748H2.51025C2.36481 0.541748 2.23438 0.631326 2.18214 0.767029L0.518086 5.09125C0.476461 5.19936 0.49084 5.32103 0.556406 5.41655C0.621937 5.51204 0.730359 5.56909 0.846199 5.56909H1.72511V7.14424C1.72511 7.33837 1.88253 7.4958 2.07667 7.4958C2.2708 7.4958 2.42823 7.33837 2.42823 7.14424V5.56909H7.11572C7.23156 5.56909 7.33998 5.51204 7.40551 5.41655C7.47108 5.32103 7.48542 5.19936 7.44383 5.09125ZM1.35821 4.86597L2.75163 1.24487H5.21029L6.60374 4.86597H1.35821Z" fill="#7D879C"/>
<path d="M2.32518 8.13133C2.25982 8.0659 2.16912 8.02832 2.07666 8.02832C1.98381 8.02832 1.8935 8.0659 1.82811 8.13133C1.76271 8.19675 1.7251 8.28742 1.7251 8.37988C1.7251 8.47234 1.76268 8.56305 1.82811 8.6284C1.8935 8.69383 1.9842 8.73145 2.07666 8.73145C2.16912 8.73145 2.25982 8.69383 2.32518 8.6284C2.39061 8.56305 2.42822 8.47234 2.42822 8.37988C2.42822 8.28742 2.39061 8.19672 2.32518 8.13133Z" fill="#7D879C"/>
<path d="M17.2113 10.6087V10.2159C17.2113 9.30852 16.473 8.57031 15.5656 8.57031H13.186C12.9919 8.57031 12.8344 8.72774 12.8344 8.92187C12.8344 9.11601 12.9919 9.27344 13.186 9.27344H15.5657C16.0853 9.27344 16.5082 9.69619 16.5082 10.2159V10.6087C15.8102 10.7623 15.2783 11.3629 15.229 12.0941C15.1267 12.0597 15.0174 12.0408 14.9037 12.0408H8.65588C8.54219 12.0408 8.43285 12.0597 8.33058 12.0941C8.28126 11.3629 7.74934 10.7623 7.05138 10.6087V10.2159C7.05138 9.69623 7.47417 9.27344 7.99389 9.27344H10.3032C10.4973 9.27344 10.6548 9.11601 10.6548 8.92187C10.6548 8.72774 10.4973 8.57031 10.3032 8.57031H7.99385C7.08643 8.57031 6.34822 9.30852 6.34822 10.2159V10.6087C5.61518 10.77 5.06488 11.4243 5.06488 12.2051V15.9375C5.06488 16.1316 5.22231 16.2891 5.41644 16.2891H18.143C18.3371 16.2891 18.4946 16.1316 18.4946 15.9375V12.2052C18.4946 11.4243 17.9443 10.77 17.2113 10.6087ZM7.63164 13.0651V13.7986V15.586H5.76804V12.2052C5.76804 11.6914 6.18605 11.2734 6.69982 11.2734C7.21363 11.2734 7.63164 11.6914 7.63164 12.2052V13.0651ZM15.2248 15.586H8.33476V14.1502H15.2248V15.586ZM15.2248 13.4471H8.33476V13.0651C8.33476 12.888 8.47883 12.744 8.65588 12.744H14.9037C15.0807 12.744 15.2248 12.888 15.2248 13.0651V13.4471ZM17.7915 15.586H15.9279V13.7986V13.0651V12.2052C15.9279 11.6914 16.3459 11.2734 16.8597 11.2734C17.3735 11.2734 17.7915 11.6914 17.7915 12.2052V15.586Z" fill="#7D879C"/>
<path d="M12.0283 8.67344C11.9629 8.6077 11.8722 8.57043 11.7798 8.57043C11.6873 8.57043 11.5966 8.6077 11.5312 8.67344C11.4658 8.73883 11.4282 8.82922 11.4282 8.922C11.4282 9.01446 11.4658 9.10516 11.5312 9.17055C11.5966 9.23591 11.6873 9.27356 11.7798 9.27356C11.8722 9.27356 11.9629 9.23594 12.0283 9.17055C12.0937 9.10516 12.1313 9.01446 12.1313 8.922C12.1313 8.82918 12.0937 8.73883 12.0283 8.67344Z" fill="#7D879C"/>
<path d="M17.4399 0.540649H10.1978C9.6162 0.540649 9.14307 1.01378 9.14307 1.59534V5.32189C9.14307 5.90345 9.6162 6.37658 10.1978 6.37658H17.4399C18.0215 6.37658 18.4946 5.90345 18.4946 5.32189V1.59534C18.4946 1.01378 18.0215 0.540649 17.4399 0.540649ZM17.7915 5.32189C17.7915 5.51571 17.6338 5.67346 17.4399 5.67346H15.1192C15.1094 5.66041 15.0989 5.64769 15.087 5.6358L12.0372 2.586C11.8998 2.44875 11.6773 2.44875 11.5399 2.586L10.5207 3.60525C10.3834 3.74254 10.3834 3.96515 10.5207 4.10247C10.658 4.23972 10.8806 4.23972 11.0179 4.10247L11.7886 3.33181L14.1302 5.67346H10.1978C10.0039 5.67346 9.84619 5.51575 9.84619 5.32189V1.59534C9.84619 1.40148 10.0039 1.24377 10.1978 1.24377H17.4399C17.6338 1.24377 17.7915 1.40148 17.7915 1.59534V3.41843L16.3702 1.9971C16.2329 1.85985 16.0103 1.85985 15.873 1.9971L14.5768 3.29324C14.4395 3.43052 14.4395 3.65313 14.5768 3.79045C14.7141 3.9277 14.9367 3.9277 15.074 3.79045L16.1216 2.7429L17.7187 4.34002C17.7409 4.36223 17.7656 4.38048 17.7915 4.39549V5.32189Z" fill="#7D879C"/>
</g>
<defs>
<clipPath id="clip0_9470_85077">
<rect width="18" height="18" fill="white" transform="translate(0.494629 0.540039)"/>
</clipPath>
</defs>
</svg>
