<svg width="18" height="18" viewBox="0 0 18 18" fill="none" xmlns="http://www.w3.org/2000/svg">
<g clip-path="url(#clip0_6607_46838)">
<path d="M8.87341 10.332C8.69816 10.2487 8.48845 10.323 8.40499 10.4983L8.3467 10.6208C8.26328 10.796 8.3377 11.0057 8.51292 11.0892C8.56172 11.1124 8.61312 11.1234 8.66378 11.1234C8.79512 11.1234 8.92112 11.0495 8.98134 10.923L9.03963 10.8005C9.12309 10.6252 9.04863 10.4155 8.87341 10.332Z" fill="#7D879C"/>
<path d="M4.9352 8.29532C4.79795 8.15807 4.57541 8.15807 4.43816 8.29532C4.14679 8.58673 3.67263 8.58673 3.38123 8.29532C3.24398 8.15807 3.02144 8.15807 2.88419 8.29532C2.74694 8.43257 2.74694 8.65511 2.88419 8.79236C3.16691 9.07505 3.5383 9.21644 3.90969 9.21644C4.28108 9.21644 4.65244 9.07508 4.93516 8.79236C5.07241 8.65514 5.07241 8.4326 4.9352 8.29532Z" fill="#7D879C"/>
<path d="M16.7826 0.933737C15.5443 -0.304466 13.5322 -0.308052 12.2891 0.922206C11.901 0.729549 11.489 0.56428 11.0546 0.428225C9.62957 -0.0181538 8.46371 -0.00159524 8.36261 0.000619608C6.45605 0.00188523 4.79301 0.801866 4.02158 2.08904C3.91977 2.25892 3.83494 2.43498 3.76687 2.61614C3.40353 2.96211 1.76385 4.65668 1.76385 7.05947C1.76385 8.65985 0.994065 9.49541 0.53524 9.85105C0.363783 9.98394 0.270935 10.1926 0.286932 10.4093C0.302928 10.626 0.425447 10.8189 0.614693 10.9252C0.787592 11.0224 0.982041 11.1157 1.17006 11.2059C1.33631 11.2856 1.57256 11.399 1.68777 11.4727V12.0987C1.68777 12.1844 1.67142 12.268 1.63918 12.3474L1.55203 12.5619C1.43267 12.8556 1.47662 13.1919 1.66604 13.445V13.5221C1.66604 13.7501 1.76645 13.9612 1.93369 14.1044V14.5171C1.93369 15.4014 2.65312 16.1209 3.53748 16.1209H4.57522C4.76932 16.1209 4.92668 15.9635 4.92668 15.7694C4.92668 15.5753 4.76932 15.4179 4.57522 15.4179H3.53748C3.04076 15.4179 2.63656 15.0138 2.63656 14.517V13.9106C2.63656 13.7698 2.55251 13.6427 2.42299 13.5874L2.4078 13.5809C2.38418 13.5708 2.36892 13.5477 2.36892 13.5221V13.3237C2.36892 13.2449 2.34241 13.1683 2.29369 13.1063L2.23167 13.0275C2.18688 12.9706 2.17602 12.8936 2.20326 12.8265L2.29042 12.6119C2.35693 12.4481 2.39068 12.2755 2.39068 12.0987V11.3505C2.39068 11.0118 2.04569 10.8463 1.47412 10.5721C1.32404 10.5001 1.16971 10.426 1.03319 10.353C1.59844 9.89169 2.4668 8.88538 2.4668 7.05943C2.4668 5.73819 3.05492 4.63724 3.56515 3.93053C3.59303 4.54291 3.77826 5.18332 4.12107 5.82453C5.02308 7.51158 6.59386 8.21871 7.856 8.78683C9.05687 9.3274 9.73655 9.66768 9.742 10.375C9.74597 10.8945 9.62651 11.2766 9.38692 11.5109C9.11031 11.7814 8.74314 11.7744 8.74092 11.7744C8.62297 11.7662 8.51241 11.8177 8.44058 11.9115C8.36872 12.0052 8.35238 12.1291 8.39108 12.2407C8.40138 12.2705 8.65036 12.9764 9.22035 13.6643C9.93275 14.5241 10.832 14.9777 11.8347 14.9879L12.7791 17.7566C12.8289 17.9028 12.9654 17.9947 13.1117 17.9947C13.1493 17.9947 13.1876 17.9887 13.2251 17.9758C13.4089 17.9132 13.507 17.7134 13.4443 17.5297L12.5143 14.803C14.2676 13.8634 15.5004 12.4059 16.0881 10.5702C16.5565 9.10697 16.5789 7.4651 16.1831 5.91007C16.4 5.77823 16.6009 5.62084 16.7825 5.43926C18.0247 4.19712 18.0247 2.17595 16.7826 0.933737ZM15.4187 10.356C14.8671 12.0788 13.683 13.4353 11.9921 14.2827C11.137 14.3211 10.3913 13.9678 9.77473 13.2316C9.52614 12.9348 9.34621 12.6293 9.2284 12.3981C9.42893 12.3353 9.65924 12.2236 9.86659 12.025C10.2559 11.6521 10.4505 11.0952 10.4449 10.3697C10.4358 9.17728 9.32283 8.67634 8.14457 8.14594C6.91902 7.59426 5.52996 6.96901 4.74095 5.49319C4.2508 4.57635 4.13542 3.70458 4.39666 2.94024C4.39775 2.93733 4.39877 2.93437 4.39979 2.93146C4.45706 2.76587 4.53177 2.60521 4.62458 2.45034C5.2703 1.37284 6.70442 0.703463 8.36725 0.703463C8.37062 0.703463 8.37396 0.703428 8.37737 0.703323C8.3883 0.702971 9.49601 0.676498 10.8446 1.0989C12.6392 1.66108 13.9612 2.70856 14.7737 4.21227C15.8006 6.11285 16.0418 8.40954 15.4187 10.356ZM15.973 5.20758C15.8162 4.75065 15.6227 4.30498 15.3921 3.87814C14.8151 2.81052 13.9816 1.93393 12.9362 1.28294C13.9108 0.465948 15.3697 0.514815 16.2856 1.43074C17.2537 2.39887 17.2537 3.97415 16.2856 4.94229C16.1881 5.03978 16.0837 5.12833 15.973 5.20758Z" fill="#7D879C"/>
<path d="M9.30327 16.4638L8.20214 14.5566L8.16491 13.2543C8.13376 12.1636 7.29019 11.2745 6.2027 11.186C5.40304 11.1208 4.63526 11.5643 4.29182 12.2893L4.27445 12.326C3.81918 13.287 4.14764 14.4495 5.03847 15.0302L6.1346 15.7447L7.3321 17.8188C7.39717 17.9316 7.5153 17.9946 7.63676 17.9946C7.69635 17.9946 7.75682 17.9794 7.81215 17.9474C7.98024 17.8504 8.03786 17.6354 7.94079 17.4673L6.877 15.6248L7.30084 15.3801L7.72469 15.1353L8.69451 16.8151C8.7915 16.9832 9.00645 17.0408 9.1746 16.9437C9.34275 16.8468 9.40034 16.6319 9.30327 16.4638ZM6.40816 15.084L5.42237 14.4414C4.82465 14.0518 4.60425 13.2717 4.90973 12.6269L4.92709 12.5902C5.13191 12.1579 5.57341 11.8826 6.04678 11.8826C6.07966 11.8826 6.11267 11.884 6.14575 11.8867C6.87542 11.946 7.44143 12.5427 7.46231 13.2744L7.4961 14.4559L6.40816 15.084Z" fill="#7D879C"/>
<path d="M9.8265 17.3998C9.76115 17.3345 9.67044 17.2969 9.57802 17.2969C9.48524 17.2969 9.39493 17.3345 9.32954 17.3998C9.26415 17.4652 9.22656 17.5559 9.22656 17.6483C9.22656 17.7407 9.26418 17.8314 9.32954 17.8968C9.39489 17.9621 9.48524 17.9998 9.57802 17.9998C9.67044 17.9998 9.76111 17.9621 9.8265 17.8968C9.89186 17.8314 9.92948 17.7407 9.92948 17.6483C9.92948 17.5559 9.89186 17.4652 9.8265 17.3998Z" fill="#7D879C"/>
<path d="M6.94648 2.06006C6.87016 1.88164 6.66365 1.79874 6.48513 1.87507C5.86529 2.14004 5.41824 2.5867 5.22633 3.13282C5.03402 3.68002 5.10623 4.29448 5.43515 4.90968C5.49847 5.02812 5.61986 5.09548 5.74541 5.09548C5.80134 5.09548 5.85805 5.08209 5.91078 5.05389C6.08196 4.96238 6.14654 4.74944 6.05503 4.57823C5.81815 4.13516 5.76246 3.72724 5.88948 3.36576C6.0153 3.00777 6.32496 2.70785 6.76146 2.52131C6.93991 2.44509 7.02274 2.23858 6.94648 2.06006Z" fill="#7D879C"/>
<path d="M7.80658 1.61719L7.78689 1.61722C7.59283 1.61835 7.43635 1.77662 7.43751 1.97075C7.43863 2.16415 7.59578 2.32014 7.78893 2.32014C7.78963 2.32014 7.79033 2.32014 7.79104 2.32014L7.80658 2.3201C8.00067 2.3201 8.15803 2.16274 8.15803 1.96864C8.15803 1.77455 8.00067 1.61719 7.80658 1.61719Z" fill="#7D879C"/>
</g>
<defs>
<clipPath id="clip0_6607_46838">
<rect width="18" height="18" fill="white"/>
</clipPath>
</defs>
</svg>
