<svg width="18" height="18" viewBox="0 0 18 18" fill="none" xmlns="http://www.w3.org/2000/svg">
<path d="M14.6508 12.6262C14.5529 12.5144 14.4114 12.4503 14.2629 12.4503H13.297V5.89528C13.297 5.49946 13.0355 5.16357 12.6764 5.05114V4.36852H13.0333C13.1789 4.36852 13.297 4.25046 13.297 4.10484C13.297 3.95923 13.1789 3.84117 13.0333 3.84117H12.6764V3.36628H13.2945C13.4401 3.36628 13.5581 3.24823 13.5581 3.10261C13.5581 2.95699 13.4401 2.83894 13.2945 2.83894H12.6764V2.44793H13.7218C13.8675 2.44793 13.9855 2.32987 13.9855 2.18426C13.9855 2.03864 13.8675 1.92059 13.7218 1.92059H12.6764V1.52958H13.2945C13.4401 1.52958 13.5581 1.41152 13.5581 1.26591C13.5581 1.12029 13.4401 1.00223 13.2945 1.00223H12.6764V0.527344H12.9165C13.0621 0.527344 13.1801 0.409289 13.1801 0.263672C13.1801 0.118055 13.0621 0 12.9165 0H11.9089C11.7632 0 11.6452 0.118055 11.6452 0.263672C11.6452 0.409289 11.7632 0.527344 11.9089 0.527344H12.149V1.00223H11.5309C11.3852 1.00223 11.2672 1.12029 11.2672 1.26591C11.2672 1.41152 11.3852 1.52958 11.5309 1.52958H12.149V1.92059H11.1035C10.9579 1.92059 10.8399 2.03864 10.8399 2.18426C10.8399 2.32987 10.9579 2.44793 11.1035 2.44793H12.149V2.83897H11.5309C11.3852 2.83897 11.2672 2.95703 11.2672 3.10264C11.2672 3.24826 11.3852 3.36632 11.5309 3.36632H12.149V3.84121H11.792C11.6464 3.84121 11.5284 3.95926 11.5284 4.10488C11.5284 4.2505 11.6464 4.36855 11.792 4.36855H12.149V5.05118C11.7897 5.16361 11.5284 5.49949 11.5284 5.89532V9.23178C11.5284 9.3774 11.6464 9.49546 11.792 9.49546C11.9377 9.49546 12.0557 9.3774 12.0557 9.23178V5.89532C12.0557 5.69848 12.2158 5.53837 12.4126 5.53837C12.6095 5.53837 12.7696 5.69851 12.7696 5.89532V12.4503H12.0557V10.2865C12.0557 10.1409 11.9376 10.0228 11.792 10.0228C11.6463 10.0228 11.5283 10.1409 11.5283 10.2865V12.4503H10.5625C10.4139 12.4503 10.2725 12.5144 10.1746 12.6262C10.0768 12.7377 10.0319 12.886 10.0513 13.0329C10.2412 14.4664 10.4884 15.9302 10.8066 17.5077C10.8639 17.793 11.117 18 11.4084 18H13.4168C13.7082 18 13.9612 17.793 14.0186 17.508C14.3369 15.93 14.5839 14.4662 14.7739 13.0329C14.7934 12.886 14.7485 12.7378 14.6508 12.6262ZM13.5017 17.4039C13.4936 17.4437 13.458 17.4727 13.4169 17.4727H11.4085C11.3673 17.4727 11.3317 17.4438 11.3236 17.4037C11.0087 15.8428 10.7641 14.3948 10.576 12.9776H11.792H13.0333H14.2494C14.0612 14.3946 13.8166 15.8426 13.5017 17.4039Z" fill="#7D879C"/>
<path d="M8.61311 6.32394C8.61191 6.31149 8.61079 6.29915 8.60959 6.28671C8.60115 6.19892 8.59243 6.11089 8.58347 6.02268C8.5821 6.00908 8.58083 5.99551 8.57943 5.9819C8.57932 5.98071 8.57904 5.97955 8.5789 5.97835C8.5404 5.60176 8.4979 5.22175 8.45047 4.83732C8.41869 4.57962 8.19868 4.38528 7.93874 4.38528H7.54597V3.44053C7.54597 3.18417 7.33739 2.97559 7.08103 2.97559H4.96754C4.71118 2.97559 4.5026 3.18417 4.5026 3.44053V4.38528H4.10984C3.84989 4.38528 3.62992 4.57962 3.5981 4.83732C3.5511 5.21817 3.50895 5.59645 3.47063 5.97206C3.47017 5.97536 3.4695 5.97856 3.46915 5.9819C3.42531 6.41186 3.38442 6.87628 3.35721 7.22967C3.35697 7.23265 3.35711 7.23561 3.357 7.23856C3.31791 7.74703 3.287 8.24818 3.26514 8.73917C3.25867 8.88464 3.37134 9.00783 3.51682 9.0143C3.66198 9.02 3.78549 8.90809 3.79195 8.76262C3.8102 8.35298 3.83513 7.93585 3.86554 7.51355H8.18431C8.44643 11.1383 8.26611 14.3939 7.64033 17.4052C7.63225 17.4442 7.59674 17.4726 7.55596 17.4726H4.49269C4.45187 17.4726 4.4164 17.4442 4.40828 17.405C3.92267 15.0684 3.70392 12.5132 3.75806 9.81045C3.76098 9.66483 3.64532 9.54446 3.49974 9.54154C3.35528 9.53929 3.23374 9.65429 3.23083 9.79987C3.17588 12.5421 3.39834 15.137 3.89194 17.5121C3.95047 17.7948 4.20314 18 4.49272 18H7.55599C7.84558 18 8.09824 17.7948 8.15674 17.5123C8.85818 14.1368 9.00868 10.4635 8.61311 6.32394ZM5.02995 3.50293H7.01863V4.38528H5.02995V3.50293ZM3.90632 6.98624C3.92267 6.78909 3.93493 6.63974 3.97062 6.27233H6.69305C6.83867 6.27233 6.95672 6.15427 6.95672 6.00865C6.95672 5.86304 6.83867 5.74498 6.69305 5.74498H4.02465C4.05433 5.46887 4.08579 5.19155 4.12014 4.91266H4.76627H7.2823H7.92844C7.96289 5.19229 7.99478 5.4696 8.02445 5.74498H7.7477C7.60208 5.74498 7.48403 5.86304 7.48403 6.00865C7.48403 6.15427 7.60208 6.27233 7.7477 6.27233H8.07842C8.10176 6.5123 8.12331 6.75101 8.14286 6.98624H3.90632Z" fill="#7D879C"/>
</svg>
