<svg width="44" height="45" viewBox="0 0 44 45" fill="none" xmlns="http://www.w3.org/2000/svg">
<path d="M17.875 22.1563C17.875 21.8163 17.7742 21.484 17.5853 21.2014C17.3965 20.9187 17.128 20.6984 16.814 20.5683C16.4999 20.4382 16.1543 20.4042 15.8209 20.4705C15.4875 20.5368 15.1813 20.7005 14.9409 20.9409C14.7005 21.1813 14.5368 21.4875 14.4705 21.8209C14.4042 22.1543 14.4382 22.4999 14.5683 22.814C14.6984 23.128 14.9187 23.3965 15.2014 23.5853C15.484 23.7742 15.8163 23.875 16.1563 23.875C16.6121 23.875 17.0493 23.6939 17.3716 23.3716C17.6939 23.0493 17.875 22.6121 17.875 22.1563ZM15.8125 22.1563C15.8125 22.0883 15.8327 22.0218 15.8704 21.9653C15.9082 21.9087 15.9619 21.8647 16.0247 21.8387C16.0875 21.8127 16.1566 21.8058 16.2233 21.8191C16.29 21.8324 16.3512 21.8651 16.3993 21.9132C16.4474 21.9613 16.4801 22.0225 16.4934 22.0892C16.5067 22.1559 16.4999 22.225 16.4738 22.2878C16.4478 22.3506 16.4038 22.4043 16.3472 22.4421C16.2907 22.4798 16.2242 22.5 16.1563 22.5C16.0651 22.5 15.9776 22.4638 15.9132 22.3993C15.8487 22.3349 15.8125 22.2474 15.8125 22.1563ZM27.8438 20.4375C27.5038 20.4375 27.1715 20.5383 26.8889 20.7272C26.6062 20.916 26.3859 21.1845 26.2558 21.4985C26.1257 21.8126 26.0917 22.1582 26.158 22.4916C26.2243 22.825 26.388 23.1312 26.6284 23.3716C26.8688 23.612 27.175 23.7757 27.5084 23.842C27.8418 23.9083 28.1874 23.8743 28.5015 23.7442C28.8155 23.6141 29.084 23.3938 29.2728 23.1111C29.4617 22.8285 29.5625 22.4962 29.5625 22.1563C29.5625 21.7004 29.3814 21.2632 29.0591 20.9409C28.7368 20.6186 28.2996 20.4375 27.8438 20.4375ZM27.8438 22.5C27.7758 22.5 27.7093 22.4798 27.6528 22.4421C27.5962 22.4043 27.5522 22.3506 27.5262 22.2878C27.5001 22.225 27.4933 22.1559 27.5066 22.0892C27.5199 22.0225 27.5526 21.9613 27.6007 21.9132C27.6488 21.8651 27.71 21.8324 27.7767 21.8191C27.8434 21.8058 27.9125 21.8127 27.9753 21.8387C28.0381 21.8647 28.0918 21.9087 28.1296 21.9653C28.1673 22.0218 28.1875 22.0883 28.1875 22.1563C28.1875 22.2474 28.1513 22.3349 28.0868 22.3993C28.0224 22.4638 27.9349 22.5 27.8438 22.5ZM22 25.9375C18.2091 25.9375 15.125 28.2503 15.125 31.0938C15.125 33.9373 18.2091 36.25 22 36.25C25.7909 36.25 28.875 33.9373 28.875 31.0938C28.875 28.2503 25.7909 25.9375 22 25.9375ZM22 34.875C18.9674 34.875 16.5 33.1783 16.5 31.0938C16.5 29.0093 18.9674 27.3125 22 27.3125C25.0326 27.3125 27.5 29.0093 27.5 31.0938C27.5 33.1783 25.0326 34.875 22 34.875Z" fill="#2B3445"/>
<path d="M19.25 28.6875C18.8421 28.6875 18.4433 28.8085 18.1041 29.0351C17.765 29.2617 17.5006 29.5838 17.3445 29.9607C17.1884 30.3376 17.1475 30.7523 17.2271 31.1524C17.3067 31.5525 17.5031 31.92 17.7916 32.2084C18.08 32.4969 18.4475 32.6933 18.8476 32.7729C19.2477 32.8525 19.6624 32.8116 20.0393 32.6555C20.4162 32.4994 20.7383 32.235 20.9649 31.8959C21.1915 31.5567 21.3125 31.1579 21.3125 30.75C21.3125 30.203 21.0952 29.6784 20.7084 29.2916C20.3216 28.9048 19.797 28.6875 19.25 28.6875ZM19.25 31.4375C19.114 31.4375 18.9811 31.3972 18.868 31.3216C18.755 31.2461 18.6669 31.1387 18.6148 31.0131C18.5628 30.8875 18.5492 30.7492 18.5757 30.6159C18.6022 30.4825 18.6677 30.36 18.7639 30.2639C18.86 30.1677 18.9825 30.1022 19.1159 30.0757C19.2492 30.0492 19.3875 30.0628 19.5131 30.1148C19.6387 30.1669 19.7461 30.255 19.8216 30.368C19.8972 30.4811 19.9375 30.614 19.9375 30.75C19.9375 30.9323 19.8651 31.1072 19.7361 31.2361C19.6072 31.3651 19.4323 31.4375 19.25 31.4375ZM24.75 28.6875C24.3421 28.6875 23.9433 28.8085 23.6041 29.0351C23.265 29.2617 23.0006 29.5838 22.8445 29.9607C22.6884 30.3376 22.6476 30.7523 22.7271 31.1524C22.8067 31.5525 23.0031 31.92 23.2916 32.2084C23.58 32.4969 23.9475 32.6933 24.3476 32.7729C24.7477 32.8525 25.1624 32.8116 25.5393 32.6555C25.9162 32.4994 26.2383 32.235 26.4649 31.8959C26.6915 31.5567 26.8125 31.1579 26.8125 30.75C26.8125 30.203 26.5952 29.6784 26.2084 29.2916C25.8216 28.9048 25.297 28.6875 24.75 28.6875ZM24.75 31.4375C24.614 31.4375 24.4811 31.3972 24.368 31.3216C24.255 31.2461 24.1669 31.1387 24.1148 31.0131C24.0628 30.8875 24.0492 30.7492 24.0757 30.6159C24.1022 30.4825 24.1677 30.36 24.2639 30.2639C24.36 30.1677 24.4825 30.1022 24.6159 30.0757C24.7492 30.0492 24.8875 30.0628 25.0131 30.1148C25.1387 30.1669 25.2461 30.255 25.3216 30.368C25.3972 30.4811 25.4375 30.614 25.4375 30.75C25.4375 30.9323 25.3651 31.1072 25.2361 31.2361C25.1072 31.3651 24.9323 31.4375 24.75 31.4375Z" fill="#2B3445"/>
<path d="M35.6571 12.5313C35.5968 12.4268 35.5102 12.3401 35.4058 12.2798C35.3014 12.2195 35.183 12.1876 35.0624 12.1875C33.6812 12.1875 31.0605 12.875 30.0169 15.3088C29.1792 14.7496 28.2854 14.2795 27.3501 13.9063C28.1409 12.557 28.3833 10.9556 28.0272 9.43269C28.1303 8.98315 28.184 8.5237 28.1874 8.0625C28.1874 6.42147 27.5355 4.84766 26.3751 3.68728C25.2148 2.5269 23.641 1.875 21.9999 1.875C20.3589 1.875 18.7851 2.5269 17.6247 3.68728C16.4643 4.84766 15.8124 6.42147 15.8124 8.0625C15.8158 8.52393 15.8695 8.98361 15.9726 9.43338C15.6165 10.9568 15.8591 12.5588 16.6505 13.9083C15.7151 14.2814 14.8213 14.7512 13.9837 15.3101C12.9401 12.875 10.3186 12.1875 8.93743 12.1875C8.81687 12.1876 8.69846 12.2195 8.59408 12.2798C8.4897 12.3401 8.40302 12.4268 8.34274 12.5313C8.18255 12.8063 4.57249 19.1677 8.13168 23.325C7.75701 24.6211 7.56541 25.9633 7.56243 27.3125C7.53471 29.2914 7.98094 31.2481 8.86384 33.0193C9.74674 34.7905 11.0407 36.3247 12.6376 37.4937L13.2852 40.4142C13.4434 41.1316 13.8262 41.7799 14.3779 42.2649C14.9297 42.75 15.6216 43.0466 16.3534 43.1117C17.0851 43.1767 17.8186 43.0069 18.4473 42.6268C19.0759 42.2467 19.5671 41.6761 19.8494 40.9979L20.154 40.2726C20.7672 40.338 21.3833 40.3721 21.9999 40.375C22.6166 40.372 23.2326 40.3381 23.8459 40.2733L24.1484 40.9944C24.4303 41.6731 24.9212 42.2443 25.5499 42.6249C26.1785 43.0056 26.9122 43.1759 27.6442 43.1112C28.3763 43.0466 29.0687 42.7502 29.6208 42.2652C30.173 41.7802 30.5561 41.1318 30.7147 40.4142L31.3623 37.4937C32.9592 36.3247 34.2531 34.7905 35.136 33.0193C36.0189 31.2481 36.4651 29.2914 36.4374 27.3125C36.4347 25.9634 36.2436 24.6212 35.8695 23.325C39.4411 19.1918 35.8187 12.8063 35.6571 12.5313ZM21.9999 3.25C23.0386 3.25168 24.0489 3.58892 24.8803 4.21146C25.7117 4.834 26.3197 5.70851 26.6137 6.70469C26.0359 6.05099 25.3258 5.52754 24.5303 5.16902C23.7349 4.8105 22.8724 4.6251 21.9999 4.6251C21.1274 4.6251 20.2649 4.8105 19.4695 5.16902C18.6741 5.52754 17.9639 6.05099 17.3861 6.70469C17.6801 5.70851 18.2881 4.834 19.1195 4.21146C19.951 3.58892 20.9613 3.25168 21.9999 3.25ZM21.9999 6C22.9517 6 23.8822 6.28225 24.6736 6.81105C25.465 7.33986 26.0818 8.09147 26.4461 8.97084C26.8103 9.85021 26.9056 10.8178 26.72 11.7514C26.5343 12.6849 26.0759 13.5424 25.4029 14.2155C24.7298 14.8885 23.8723 15.3468 22.9388 15.5325C22.0053 15.7182 21.0376 15.6229 20.1583 15.2587C19.2789 14.8944 18.5273 14.2776 17.9985 13.4862C17.4697 12.6948 17.1874 11.7643 17.1874 10.8125C17.1889 9.53659 17.6964 8.31336 18.5986 7.41116C19.5008 6.50895 20.724 6.00146 21.9999 6ZM9.33755 13.5914C10.1997 13.6911 12.1845 14.1414 12.8397 16.1571C11.0204 17.6463 9.59331 19.5582 8.68305 21.7259C6.9863 18.8343 8.72361 14.8213 9.33755 13.5914ZM18.5803 40.4726C18.41 40.881 18.1139 41.2244 17.7352 41.453C17.3564 41.6817 16.9147 41.7837 16.474 41.7442C16.0333 41.7048 15.6167 41.5259 15.2846 41.2335C14.9525 40.9412 14.7222 40.5507 14.6272 40.1186L14.2717 38.5146C15.6724 39.2658 17.1821 39.7928 18.746 40.0766L18.5803 40.4726ZM29.3741 40.1186C29.3014 40.4497 29.149 40.7581 28.9299 41.0169C28.7109 41.2757 28.4319 41.477 28.1172 41.6033C27.8026 41.7295 27.4618 41.777 27.1246 41.7414C26.7875 41.7059 26.4641 41.5885 26.1827 41.3994C25.8408 41.1728 25.5749 40.8487 25.4195 40.4692L25.2546 40.0773C26.8186 39.7931 28.3285 39.2658 29.7295 38.5146L29.3741 40.1186ZM21.9999 39C14.3089 39 8.93743 34.1944 8.93743 27.3125C8.93526 24.6367 9.75644 22.025 11.2895 19.832C12.8226 17.6389 14.9934 15.9707 17.5071 15.0537C18.0831 15.668 18.779 16.1576 19.5517 16.4923C20.3244 16.827 21.1575 16.9997 21.9996 16.9997C22.8417 16.9997 23.6748 16.827 24.4475 16.4923C25.2202 16.1576 25.916 15.668 26.4921 15.0537C29.0071 15.9688 31.1792 17.6365 32.7127 19.83C34.2462 22.0235 35.0666 24.6361 35.0624 27.3125C35.0624 34.1944 29.691 39 21.9999 39ZM31.1615 16.1537C31.8174 14.14 33.8036 13.6904 34.663 13.5907C35.2769 14.8165 37.0122 18.8157 35.3175 21.7197C34.4074 19.5529 32.9805 17.6419 31.1615 16.1537Z" fill="#2B3445"/>
<path d="M21.3126 12.8751C21.1302 12.8751 20.9553 12.8026 20.8264 12.6737C20.6975 12.5448 20.6251 12.3699 20.6251 12.1876H19.2501C19.2501 12.7346 19.4673 13.2592 19.8541 13.646C20.2409 14.0328 20.7655 14.2501 21.3126 14.2501V14.9376H22.6875V14.2501C23.2346 14.2501 23.7592 14.0328 24.146 13.646C24.5327 13.2592 24.75 12.7346 24.75 12.1876C24.75 11.6406 24.5327 11.116 24.146 10.7292C23.7592 10.3424 23.2346 10.1251 22.6875 10.1251V8.75008C22.8699 8.75008 23.0448 8.82251 23.1737 8.95144C23.3026 9.08037 23.375 9.25524 23.375 9.43758H24.75C24.75 8.89057 24.5327 8.36596 24.146 7.97917C23.7592 7.59238 23.2346 7.37508 22.6875 7.37508H22.6745L22.6875 6.70133L21.3126 6.67383L21.2988 7.37508C20.7518 7.3769 20.2279 7.59595 19.8424 7.98403C19.4569 8.37212 19.2414 8.89744 19.2432 9.44445C19.245 9.99146 19.464 10.5153 19.8521 10.9008C20.2402 11.2864 20.7655 11.5019 21.3126 11.5001V12.8751ZM22.6875 11.5001C22.8699 11.5001 23.0448 11.5725 23.1737 11.7014C23.3026 11.8304 23.375 12.0052 23.375 12.1876C23.375 12.3699 23.3026 12.5448 23.1737 12.6737C23.0448 12.8026 22.8699 12.8751 22.6875 12.8751V11.5001ZM21.3126 10.1251C21.1302 10.1251 20.9553 10.0526 20.8264 9.92371C20.6975 9.79478 20.6251 9.61991 20.6251 9.43758C20.6251 9.25524 20.6975 9.08037 20.8264 8.95144C20.9553 8.82251 21.1302 8.75008 21.3126 8.75008V10.1251Z" fill="#2B3445"/>
</svg>
