<svg width="19" height="19" viewBox="0 0 19 19" fill="none" xmlns="http://www.w3.org/2000/svg">
<g clip-path="url(#clip0_10062_47473)">
<path d="M13.9664 17.9697H1.49298C1.33829 17.9697 1.21173 17.8431 1.21173 17.6884V8.02747C1.21173 7.87278 1.33829 7.74622 1.49298 7.74622H12.0961C12.2508 7.74622 12.3774 7.87278 12.3774 8.02747C12.3774 8.18215 12.2508 8.30872 12.0961 8.30872H1.76017V17.4212H13.6852V10.3478C13.6852 10.1931 13.8117 10.0665 13.9664 10.0665C14.1211 10.0665 14.2477 10.1931 14.2477 10.3478V17.6884C14.2336 17.8431 14.107 17.9697 13.9664 17.9697Z" fill="#7D879C"/>
<path d="M8.59458 17.8291H6.85083C6.78052 17.8291 6.71021 17.7729 6.71021 17.6885V8.02754C6.71021 7.95722 6.76646 7.88691 6.85083 7.88691H8.59458C8.66489 7.88691 8.7352 7.94316 8.7352 8.02754V17.6885C8.7352 17.7729 8.67895 17.8291 8.59458 17.8291ZM6.99146 17.5478H8.46802V8.16816H6.99146V17.5478ZM16.1321 13.315C16.118 13.315 16.118 13.315 16.104 13.315C16.0336 13.301 15.9633 13.2728 15.9211 13.2166L6.83677 1.95254C6.73833 1.84004 6.76646 1.65722 6.87896 1.55879L8.24302 0.447848C8.29927 0.40566 8.36958 0.377535 8.43989 0.391598C8.51021 0.40566 8.58052 0.433785 8.62271 0.490035L17.693 11.7541C17.7915 11.8666 17.7633 12.0494 17.6508 12.1478L16.2868 13.2588C16.2586 13.301 16.1883 13.315 16.1321 13.315ZM7.44146 1.81191L16.1743 12.64L17.1165 11.8807L8.38364 1.05254L7.44146 1.81191Z" fill="#7D879C"/>
<path d="M12.1384 8.22439H12.1243C12.0821 8.22439 12.054 8.19626 12.0259 8.16814L10.929 6.80408C10.8868 6.74783 10.8868 6.66345 10.9431 6.6072L12.3071 5.49626C12.3352 5.46814 12.3774 5.46814 12.4056 5.46814C12.4477 5.46814 12.4759 5.49626 12.504 5.52439L13.6009 6.88845C13.6431 6.9447 13.6431 7.02908 13.5868 7.08533L12.2368 8.19626C12.2087 8.21033 12.1806 8.22439 12.1384 8.22439ZM11.2384 6.74783L12.1665 7.90095L13.3196 6.95877L12.3915 5.80564L11.2384 6.74783Z" fill="#7D879C"/>
<path d="M13.1649 6.3259C12.6587 6.3259 12.1383 5.70715 11.5477 4.96184C11.5055 4.90559 11.4633 4.84934 11.4212 4.80715C10.9149 4.17434 10.943 3.30247 11.4774 2.86653C11.6743 2.69778 11.9274 2.6134 12.2087 2.6134C12.6446 2.6134 13.0805 2.8384 13.3899 3.21809C13.868 3.80872 14.1071 5.72122 13.5165 6.2134C13.418 6.28372 13.2915 6.3259 13.1649 6.3259ZM12.2087 3.1759C12.068 3.1759 11.9274 3.21809 11.829 3.30247C11.5196 3.55559 11.5337 4.0759 11.843 4.46965C11.8852 4.51184 11.9274 4.56809 11.9696 4.62434C12.2227 4.93372 12.8837 5.77747 13.1508 5.77747C13.404 5.58059 13.3055 4.01965 12.9399 3.56965C12.7571 3.31653 12.4758 3.1759 12.2087 3.1759Z" fill="#7D879C"/>
<path d="M15.2602 8.7166C14.8243 8.7166 14.3883 8.4916 14.079 8.11191C14.0368 8.06973 13.9946 8.01348 13.9524 7.95723C13.404 7.28223 12.9118 6.63535 12.954 6.15723C12.968 6.00254 13.0383 5.86191 13.1649 5.77754C13.3055 5.66504 13.5165 5.60879 13.7696 5.60879C14.4587 5.60879 15.654 6.03066 16.0477 6.52285C16.554 7.15566 16.5258 8.02754 15.9915 8.46348C15.7805 8.63223 15.5415 8.7166 15.2602 8.7166ZM13.7696 6.15723C13.6149 6.15723 13.5305 6.18535 13.5024 6.19941C13.4602 6.29785 13.5727 6.63535 14.3743 7.60566C14.4165 7.66191 14.4587 7.71816 14.5008 7.76035C14.6977 7.99941 14.979 8.1541 15.2462 8.1541C15.3868 8.1541 15.5274 8.11191 15.6258 8.02754C15.9352 7.77441 15.9212 7.2541 15.6118 6.86035C15.3587 6.55098 14.3602 6.15723 13.7696 6.15723ZM4.23522 4.51191C4.26335 4.51191 4.30553 4.51191 4.33366 4.52598C4.53053 4.5541 4.68522 4.68066 4.7696 4.83535C4.8821 4.73691 5.02272 4.68066 5.17741 4.68066C5.20553 4.68066 5.24772 4.68066 5.27585 4.69473C5.61335 4.75098 5.82428 5.06035 5.76803 5.39785C5.68366 5.87598 4.46022 6.63535 4.46022 6.63535C4.46022 6.63535 3.56022 5.44004 3.63053 5.03223C3.68678 4.72285 3.93991 4.51191 4.23522 4.51191ZM4.23522 3.94941C3.67272 3.94941 3.18053 4.35723 3.09616 4.91973C3.02585 5.3416 3.33522 6.0166 4.02428 6.94473C4.13678 7.08535 4.30553 7.16973 4.47428 7.16973C4.57272 7.16973 4.67116 7.1416 4.7696 7.08535C5.30397 6.74785 6.2321 6.10098 6.33053 5.46816C6.44303 4.83535 6.0071 4.23066 5.37428 4.13223C5.30397 4.11816 5.24772 4.11816 5.17741 4.11816C5.07897 4.11816 4.98053 4.13223 4.8821 4.16035C4.74147 4.07598 4.58678 4.00566 4.4321 3.97754C4.36178 3.96348 4.30553 3.94941 4.23522 3.94941ZM4.69928 0.658789C4.91022 0.658789 5.12116 0.785352 5.2196 0.996289C5.41647 1.41816 4.85397 2.65566 4.85397 2.65566C4.85397 2.65566 3.51803 2.1916 3.36335 1.8541C3.23678 1.55879 3.36335 1.22129 3.6446 1.09473C3.71491 1.0666 3.79928 1.03848 3.88366 1.03848C3.9821 1.03848 4.06647 1.0666 4.15085 1.10879C4.19303 0.940039 4.30553 0.799414 4.47428 0.715039C4.5446 0.686914 4.61491 0.658789 4.69928 0.658789ZM4.69928 0.110352C4.53053 0.110352 4.37585 0.138477 4.23522 0.208789C4.0946 0.279102 3.96803 0.363477 3.8696 0.475977C3.71491 0.475977 3.56022 0.518164 3.4196 0.574414C2.8571 0.827539 2.60397 1.50254 2.8571 2.06504C3.02585 2.43066 3.63053 2.81035 4.67116 3.16191C4.72741 3.17598 4.79772 3.19004 4.85397 3.19004C5.06491 3.19004 5.26178 3.06348 5.36022 2.8666C5.61335 2.31816 5.99303 1.31973 5.72585 0.757227C5.54303 0.363477 5.13522 0.110352 4.69928 0.110352Z" fill="#7D879C"/>
</g>
<defs>
<clipPath id="clip0_10062_47473">
<rect width="18" height="18" fill="white" transform="translate(0.494629 0.0400391)"/>
</clipPath>
</defs>
</svg>
