<svg width="18" height="18" viewBox="0 0 18 18" fill="none" xmlns="http://www.w3.org/2000/svg">
<path d="M12.6055 7.91016H12.4473V7.20703C12.4473 7.08377 12.4258 6.96551 12.3868 6.85547H12.4297C13.0112 6.85547 13.4844 6.38234 13.4844 5.80078C13.4844 5.21923 13.0112 4.74609 12.4297 4.74609H11.7266V3.94629C11.7266 2.97703 10.938 2.18848 9.96875 2.18848H8.5625V1.75781C8.5625 1.61128 8.47159 1.48008 8.33437 1.42864L7.15375 0.985922C7.11818 0.436324 6.65998 0 6.10156 0C5.83163 0 5.58519 0.102023 5.39844 0.269402C5.21169 0.102023 4.96524 0 4.69531 0C4.11376 0 3.64062 0.473133 3.64062 1.05469V5.97656C3.64062 6.55812 4.11376 7.03125 4.69531 7.03125C4.96524 7.03125 5.21169 6.92923 5.39844 6.76185C5.58519 6.92923 5.83163 7.03125 6.10156 7.03125C6.65998 7.03125 7.11818 6.59493 7.15375 6.04536L8.33437 5.60264C8.47159 5.55121 8.5625 5.42 8.5625 5.27347V4.64945H9.26562V6.20691C8.84734 6.34693 8.54492 6.7422 8.54492 7.20703V7.91016H8.38672C7.41746 7.91016 6.62891 8.69871 6.62891 9.66797V16.2422C6.62891 17.2114 7.41746 18 8.38672 18H12.6055C13.5747 18 14.3633 17.2114 14.3633 16.2422V14.5195C14.3633 14.3258 14.2054 14.168 14.0117 14.168C13.818 14.168 13.6605 14.3255 13.6602 14.5192V14.5195V15.8906H7.33203V10.0195H13.6602V11.3555C13.6602 11.5492 13.818 11.707 14.0117 11.707C14.2054 11.707 14.3633 11.5492 14.3633 11.3555V9.66797C14.3633 8.69871 13.5747 7.91016 12.6055 7.91016ZM12.4297 5.44922C12.6235 5.44922 12.7812 5.60693 12.7812 5.80078C12.7812 5.99463 12.6235 6.15234 12.4297 6.15234H11.7266V5.44922H12.4297ZM4.69531 6.32812C4.50146 6.32812 4.34375 6.17041 4.34375 5.97656V1.05469C4.34375 0.860836 4.50146 0.703125 4.69531 0.703125C4.88916 0.703125 5.04688 0.860836 5.04688 1.05469V5.97656C5.04688 6.17041 4.88916 6.32812 4.69531 6.32812ZM6.45312 5.97656C6.45312 6.17041 6.29541 6.32812 6.10156 6.32812C5.90771 6.32812 5.75 6.17041 5.75 5.97656V1.05469C5.75 0.860836 5.90771 0.703125 6.10156 0.703125C6.29541 0.703125 6.45312 0.860836 6.45312 1.05469V5.97656ZM7.85938 5.02981L7.15625 5.29348V1.73777L7.85938 2.00145V5.02981ZM8.5625 3.94629V2.8916H9.96875C10.5503 2.8916 11.0234 3.36473 11.0234 3.94629V6.15234H9.96875V4.29785C9.96875 4.10368 9.81136 3.94629 9.61719 3.94629H8.5625ZM9.24805 7.20703C9.24805 7.01318 9.40576 6.85547 9.59961 6.85547H11.3926C11.5864 6.85547 11.7441 7.01318 11.7441 7.20703V7.91016H9.24805V7.20703ZM13.5999 16.5938C13.4548 17.003 13.0638 17.2969 12.6055 17.2969H8.38672C7.92835 17.2969 7.53738 17.003 7.39225 16.5938H13.5999ZM7.39225 9.31641C7.53734 8.90715 7.92835 8.61328 8.38672 8.61328H12.6055C13.0638 8.61328 13.4548 8.90715 13.5999 9.31641H7.39225Z" fill="#7D879C"/>
<path d="M14.0117 13.2891C14.2059 13.2891 14.3633 13.1317 14.3633 12.9375C14.3633 12.7433 14.2059 12.5859 14.0117 12.5859C13.8176 12.5859 13.6602 12.7433 13.6602 12.9375C13.6602 13.1317 13.8176 13.2891 14.0117 13.2891Z" fill="#7D879C"/>
</svg>
