<svg width="38" height="38" viewBox="0 0 38 38" fill="none" xmlns="http://www.w3.org/2000/svg">
<path d="M36.8125 23.7495C36.157 23.7495 35.625 24.2815 35.625 24.937V33.2495H2.375V18.9995H15.4375C16.093 18.9995 16.625 18.4675 16.625 17.812C16.625 17.1565 16.093 16.6245 15.4375 16.6245H2.375V11.8745H15.4375C16.093 11.8745 16.625 11.3425 16.625 10.687C16.625 10.0315 16.093 9.49951 15.4375 9.49951H2.375C1.064 9.49951 0 10.5635 0 11.8745V33.2495C0 34.5605 1.064 35.6245 2.375 35.6245H35.625C36.936 35.6245 38 34.5605 38 33.2495V24.937C38 24.2815 37.468 23.7495 36.8125 23.7495Z" fill="#2B3445"/>
<path d="M10.6875 23.7495H5.9375C5.282 23.7495 4.75 24.2815 4.75 24.937C4.75 25.5925 5.282 26.1245 5.9375 26.1245H10.6875C11.343 26.1245 11.875 25.5925 11.875 24.937C11.875 24.2815 11.343 23.7495 10.6875 23.7495Z" fill="#2B3445"/>
<path d="M37.2804 6.0324L28.9679 2.46989C28.6662 2.34402 28.3314 2.34402 28.0298 2.46989L19.7173 6.0324C19.2826 6.22002 19 6.6499 19 7.1249V11.8749C19 18.4085 21.4154 22.2275 27.9086 25.9682C28.0915 26.0727 28.2957 26.1249 28.5 26.1249C28.7043 26.1249 28.9085 26.0727 29.0914 25.9682C35.5846 22.237 38 18.418 38 11.8749V7.1249C38 6.6499 37.7174 6.22002 37.2804 6.0324ZM35.625 11.8749C35.625 17.3588 33.8105 20.3774 28.5 23.5599C23.1895 20.3703 21.375 17.3516 21.375 11.8749V7.90865L28.5 4.8544L35.625 7.90865V11.8749Z" fill="#2B3445"/>
<path d="M32.8055 9.75835C32.2949 9.3546 31.5492 9.43297 31.1359 9.9436L27.4024 14.6129L25.9252 12.4041C25.557 11.8579 24.8184 11.713 24.2793 12.074C23.7354 12.4374 23.5858 13.176 23.9492 13.7199L26.3242 17.2824C26.5355 17.5982 26.8823 17.793 27.2623 17.812C27.2789 17.812 27.2979 17.812 27.3122 17.812C27.6708 17.812 28.0128 17.6505 28.2408 17.3655L32.9908 11.428C33.3993 10.915 33.3185 10.1692 32.8055 9.75835Z" fill="#2B3445"/>
</svg>
