<svg width="19" height="19" viewBox="0 0 19 19" fill="none" xmlns="http://www.w3.org/2000/svg">
<g clip-path="url(#clip0_9470_85084)">
<path d="M16.9775 18.1045H2.72754C1.69404 18.1045 0.852539 17.2637 0.852539 16.2295V3.47949C0.852539 2.44524 1.69404 1.60449 2.72754 1.60449H16.9775C18.011 1.60449 18.8525 2.44524 18.8525 3.47949V16.2295C18.8525 17.2637 18.011 18.1045 16.9775 18.1045ZM2.72754 2.35449C2.10729 2.35449 1.60254 2.85924 1.60254 3.47949V16.2295C1.60254 16.8497 2.10729 17.3545 2.72754 17.3545H16.9775C17.5978 17.3545 18.1025 16.8497 18.1025 16.2295V3.47949C18.1025 2.85924 17.5978 2.35449 16.9775 2.35449H2.72754Z" fill="#7D879C"/>
<path d="M18.4775 5.35449H1.22754C1.02054 5.35449 0.852539 5.18649 0.852539 4.97949C0.852539 4.77249 1.02054 4.60449 1.22754 4.60449H18.4775C18.6845 4.60449 18.8525 4.77249 18.8525 4.97949C18.8525 5.18649 18.6845 5.35449 18.4775 5.35449ZM9.85254 13.6045C8.19804 13.6045 6.85254 12.259 6.85254 10.6045V7.22949C6.85254 7.02249 7.02054 6.85449 7.22754 6.85449H12.4775C12.6845 6.85449 12.8525 7.02249 12.8525 7.22949V10.6045C12.8525 12.259 11.507 13.6045 9.85254 13.6045ZM7.60254 7.60449V10.6045C7.60254 11.845 8.61204 12.8545 9.85254 12.8545C11.093 12.8545 12.1025 11.845 12.1025 10.6045V7.60449H7.60254Z" fill="#7D879C"/>
<path d="M9.85254 15.8545C9.64554 15.8545 9.47754 15.6865 9.47754 15.4795V13.2295C9.47754 13.0225 9.64554 12.8545 9.85254 12.8545C10.0595 12.8545 10.2275 13.0225 10.2275 13.2295V15.4795C10.2275 15.6865 10.0595 15.8545 9.85254 15.8545Z" fill="#7D879C"/>
<path d="M11.7275 15.8545H7.97754C7.77054 15.8545 7.60254 15.6865 7.60254 15.4795C7.60254 15.2725 7.77054 15.1045 7.97754 15.1045H11.7275C11.9345 15.1045 12.1025 15.2725 12.1025 15.4795C12.1025 15.6865 11.9345 15.8545 11.7275 15.8545ZM12.4775 11.7295C12.416 11.7295 12.3545 11.7272 12.293 11.7145C12.0898 11.6747 11.957 11.4782 11.9968 11.2742C12.0365 11.071 12.2293 10.9337 12.437 10.9787C12.437 10.9787 12.437 10.9787 12.4378 10.9787C13.0985 10.9795 13.6025 10.4747 13.6025 9.85449C13.6025 9.23424 13.0978 8.72949 12.4775 8.72949C12.2705 8.72949 12.1025 8.56149 12.1025 8.35449C12.1025 8.14749 12.2705 7.97949 12.4775 7.97949C13.511 7.97949 14.3525 8.82024 14.3525 9.85449C14.3525 10.8887 13.511 11.7295 12.4775 11.7295ZM7.22754 11.7295C6.19404 11.7295 5.35254 10.8887 5.35254 9.85449C5.35254 8.82024 6.19404 7.97949 7.22754 7.97949C7.43454 7.97949 7.60254 8.14749 7.60254 8.35449C7.60254 8.56149 7.43454 8.72949 7.22754 8.72949C6.60729 8.72949 6.10254 9.23424 6.10254 9.85449C6.10254 10.4747 6.60729 10.9795 7.22754 10.9795C7.43529 10.936 7.64829 11.0717 7.68804 11.2757C7.72779 11.479 7.61529 11.6755 7.41204 11.7152C7.35054 11.7272 7.28904 11.7295 7.22754 11.7295Z" fill="#7D879C"/>
</g>
<defs>
<clipPath id="clip0_9470_85084">
<rect width="18" height="18" fill="white" transform="translate(0.852539 0.854492)"/>
</clipPath>
</defs>
</svg>
