<svg width="18" height="18" viewBox="0 0 18 18" fill="none" xmlns="http://www.w3.org/2000/svg">
<g clip-path="url(#clip0_6607_46828)">
<path d="M6.92992 14.1011C5.9633 14.0387 5.07986 13.5328 4.53682 12.7307C4.47785 12.6388 4.37365 12.5863 4.26474 12.5934C4.15583 12.6006 4.05939 12.6663 4.01292 12.7651C3.96645 12.8638 3.97729 12.98 4.04122 13.0685C4.68614 14.015 5.72766 14.6156 6.86992 14.6996C6.88042 14.6996 6.89032 14.7011 6.89992 14.7011C7.05978 14.7011 7.19158 14.5758 7.19958 14.4161C7.20758 14.2564 7.08898 14.1186 6.92992 14.1026V14.1011Z" fill="#7D879C"/>
<path d="M4.01992 11.6152C3.96626 11.4369 3.92723 11.2545 3.90322 11.0698C3.88665 10.905 3.73957 10.7848 3.57472 10.8013C3.40986 10.8179 3.28965 10.965 3.30621 11.1298C3.33422 11.3516 3.38099 11.5706 3.44601 11.7844C3.4962 11.9389 3.66017 12.0253 3.81597 11.9795C3.97176 11.9337 4.06282 11.7723 4.02142 11.6152H4.01992Z" fill="#7D879C"/>
<path d="M16.5014 2.4C16.1034 2.39892 15.7215 2.55719 15.4409 2.8395L13.0451 5.2353C12.8406 5.18258 12.6235 5.23932 12.4709 5.3853L11.7038 6.1524C11.0262 5.49727 10.2224 4.98691 9.34129 4.6524C11.7143 4.3551 13.8014 3.6021 13.8014 2.4C13.8014 0.839999 10.2461 0 6.90139 0C3.55669 0 0.00138918 0.839999 0.00138918 2.4C0.00138918 3.6 2.08129 4.3524 4.44919 4.65C0.971428 5.96591 -0.840685 9.79862 0.349309 13.3215C1.5393 16.8443 5.30437 18.7931 8.86773 17.7305C12.4311 16.668 14.514 12.9754 13.5803 9.37619L13.7327 8.95349H13.7438C13.9029 8.95354 14.0555 8.89041 14.168 8.77799L15.0164 7.92929C15.1293 7.81706 15.1926 7.6643 15.1922 7.50509C15.1914 7.45316 15.1839 7.40154 15.17 7.35149L17.5619 4.9593C17.9899 4.53019 18.1176 3.88569 17.8856 3.32579C17.6536 2.76588 17.1075 2.40061 16.5014 2.4ZM11.8766 12.3456C11.5263 12.336 11.18 12.2676 10.8524 12.1431L11.4614 11.0457C11.5147 10.9518 11.5134 10.8365 11.4581 10.7438C11.4027 10.6511 11.3018 10.5953 11.1939 10.5977C11.086 10.6001 10.9876 10.6603 10.9364 10.7553L10.3064 11.8911C10.0199 11.73 9.75204 11.5379 9.50749 11.3184L10.7741 10.0518C10.8878 9.93408 10.8862 9.74697 10.7704 9.63125C10.6547 9.51553 10.4676 9.5139 10.3499 9.62759L9.08329 10.8942C8.86376 10.6496 8.67161 10.3817 8.51029 10.0953L9.64639 9.46529C9.74143 9.41407 9.80161 9.31574 9.80399 9.2078C9.80636 9.09987 9.75055 8.99899 9.65786 8.94364C9.56517 8.88829 9.44989 8.88701 9.35599 8.94029L8.25799 9.54869C8.13397 9.22233 8.06494 8.87765 8.05369 8.52869L11.7413 7.19999L13.2014 8.66039L11.8766 12.3456ZM7.84999 7.96559C7.61129 8.05141 7.4531 8.27895 7.45579 8.53259C7.47304 9.08319 7.6071 9.62383 7.84909 10.1187C8.36969 11.1761 9.2253 12.0317 10.2827 12.5523C10.4387 12.6262 10.599 12.6908 10.7627 12.7458C9.93872 14.6804 7.81107 15.7075 5.78375 15.1493C3.75643 14.5912 2.4543 12.6198 2.73661 10.5361C3.01891 8.45241 4.79865 6.89859 6.90139 6.89999C7.67413 6.89796 8.43202 7.11225 9.08929 7.51859L7.84999 7.96559ZM8.27959 4.1421C8.16735 3.99043 7.99007 3.90068 7.80139 3.9H6.00139C5.81276 3.90061 5.6355 3.99024 5.52319 4.1418C3.29119 3.9537 2.10139 3.3669 2.10139 3C2.10139 2.58 3.75139 1.8 6.90139 1.8C10.0514 1.8 11.7014 2.58 11.7014 3C11.7014 3.3669 10.5116 3.9537 8.27959 4.1418V4.1421ZM6.00139 4.5H7.80139V5.1H6.00139V4.5ZM0.601389 2.4C0.601389 1.5504 3.29539 0.6 6.90139 0.6C10.5074 0.6 13.2014 1.5504 13.2014 2.4C13.2014 2.6943 12.8573 3.0177 12.2324 3.3084C12.2761 3.21136 12.2996 3.10642 12.3014 3C12.3014 1.8183 9.58489 1.2 6.90139 1.2C4.21789 1.2 1.50139 1.8183 1.50139 3C1.50317 3.10642 1.52665 3.21136 1.57039 3.3084C0.94549 3.0177 0.601389 2.6943 0.601389 2.4ZM13.2014 11.1C13.1958 14.4591 10.5567 17.2235 7.20139 17.3847V17.1C7.20139 16.9343 7.06708 16.8 6.90139 16.8C6.73571 16.8 6.60139 16.9343 6.60139 17.1V17.3847C3.47612 17.2394 0.932397 14.8199 0.630972 11.7058C0.329548 8.59168 2.36201 5.7292 5.40139 4.9872V5.1C5.40139 5.43137 5.67002 5.7 6.00139 5.7H7.80139C8.13276 5.7 8.40139 5.43137 8.40139 5.1V4.986C9.53694 5.26632 10.5724 5.85619 11.3927 6.68999L9.78379 7.26959C8.9559 6.63796 7.94272 6.29715 6.90139 6.3C4.48644 6.29821 2.44618 8.09088 2.13726 10.486C1.82835 12.8811 3.34699 15.1328 5.68337 15.7438C8.01976 16.3548 10.4463 15.1349 11.3495 12.8952C11.5212 12.9256 11.695 12.9424 11.8694 12.9456H11.8763C12.1272 12.9452 12.351 12.7875 12.4358 12.5514L13.1708 10.5114C13.1891 10.7067 13.2014 10.9026 13.2014 11.1ZM13.7438 8.35499L12.0464 6.65759L12.8951 5.8092L14.5922 7.50629L13.7438 8.35499ZM17.1377 4.5363L14.8043 6.86999L13.5314 5.5971L15.8648 3.2637C16.2209 2.92381 16.7813 2.92381 17.1374 3.2637C17.4887 3.61515 17.4887 4.18485 17.1374 4.5363H17.1377Z" fill="#7D879C"/>
<path d="M11.4092 8.56718L11.1971 8.77928C11.1191 8.8546 11.0878 8.96614 11.1153 9.07103C11.1427 9.17592 11.2246 9.25783 11.3295 9.28529C11.4344 9.31274 11.5459 9.28147 11.6213 9.20348L11.8334 8.99138C11.9113 8.91606 11.9426 8.80452 11.9152 8.69963C11.8877 8.59474 11.8058 8.51283 11.7009 8.48537C11.596 8.45792 11.4845 8.48919 11.4092 8.56718Z" fill="#7D879C"/>
</g>
<defs>
<clipPath id="clip0_6607_46828">
<rect width="18" height="18" fill="white"/>
</clipPath>
</defs>
</svg>
