<svg width="19" height="19" viewBox="0 0 19 19" fill="none" xmlns="http://www.w3.org/2000/svg">
<path d="M12.9422 4.73099V2.07616C12.9422 1.53594 12.5026 1.09644 11.9624 1.09644H7.00921C6.46899 1.09644 6.02948 1.53594 6.02948 2.07616V4.73099C6.02948 5.27121 6.46899 5.71072 7.00921 5.71072H7.53263C7.67852 5.71072 7.79673 5.59247 7.79673 5.44661C7.79673 5.30075 7.67852 5.1825 7.53263 5.1825H7.00921C6.76024 5.1825 6.55769 4.97995 6.55769 4.73099V2.07616C6.55769 1.8272 6.76024 1.62465 7.00921 1.62465H11.9624C12.2114 1.62465 12.4139 1.8272 12.4139 2.07616V4.73099C12.4139 4.97995 12.2114 5.1825 11.9624 5.1825H8.65814C8.51225 5.1825 8.39404 5.30075 8.39404 5.44661C8.39404 5.59247 8.51225 5.71072 8.65814 5.71072H11.9624C12.5026 5.71075 12.9422 5.27124 12.9422 4.73099Z" fill="#7D879C"/>
<path d="M8.02075 2.63708C7.87486 2.63708 7.75665 2.75533 7.75665 2.90119V4.06456C7.75665 4.21042 7.87486 4.32866 8.02075 4.32866C8.16664 4.32866 8.28486 4.21042 8.28486 4.06456V2.90119C8.28486 2.75533 8.16661 2.63708 8.02075 2.63708Z" fill="#7D879C"/>
<path d="M11.215 4.06456V2.90119C11.215 2.75533 11.0968 2.63708 10.9509 2.63708C10.805 2.63708 10.6868 2.75533 10.6868 2.90119V4.06456C10.6868 4.21042 10.805 4.32866 10.9509 4.32866C11.0968 4.32866 11.215 4.21042 11.215 4.06456Z" fill="#7D879C"/>
<path d="M11.9073 11.0557C11.9073 10.9099 11.7891 10.7916 11.6432 10.7916H8.97144C8.82555 10.7916 8.70734 10.9099 8.70734 11.0557C8.70734 11.2016 8.82555 11.3198 8.97144 11.3198H11.6432C11.7891 11.3198 11.9073 11.2016 11.9073 11.0557Z" fill="#7D879C"/>
<path d="M7.84598 10.7916H7.19001C7.04412 10.7916 6.9259 10.9099 6.9259 11.0557C6.9259 11.2016 7.04412 11.3198 7.19001 11.3198H7.84598C7.99187 11.3198 8.11008 11.2016 8.11008 11.0557C8.11008 10.9099 7.99187 10.7916 7.84598 10.7916Z" fill="#7D879C"/>
<path d="M14.1343 8.75598C13.9884 8.75598 13.8702 8.87423 13.8702 9.02009V10.6124C13.8702 10.7583 13.9884 10.8765 14.1343 10.8765C14.2802 10.8765 14.3984 10.7583 14.3984 10.6124V9.02009C14.3984 8.87423 14.2802 8.75598 14.1343 8.75598Z" fill="#7D879C"/>
<path d="M4.87256 8.75598C4.72667 8.75598 4.60846 8.87423 4.60846 9.02009V10.6124C4.60846 10.7583 4.72667 10.8765 4.87256 10.8765C5.01845 10.8765 5.13666 10.7583 5.13666 10.6124V9.02009C5.13666 8.87423 5.01845 8.75598 4.87256 8.75598Z" fill="#7D879C"/>
<path d="M16.6616 8.34795H15.4911C15.4891 8.34795 15.4873 8.3482 15.4853 8.34824C15.1625 7.76287 14.5393 7.36538 13.8248 7.36538H11.6283V6.76719H11.9625C12.9288 6.76719 13.7394 6.09042 13.9467 5.18615H14.3479C14.833 5.18615 15.2276 4.79154 15.2276 4.30654V2.50069C15.2276 2.01569 14.833 1.62108 14.3479 1.62108H13.9467C13.7394 0.716818 12.9288 0.0400391 11.9624 0.0400391H7.00923C6.04295 0.0400391 5.23232 0.716818 5.02498 1.62112H4.62375C4.13875 1.62112 3.74414 2.01569 3.74414 2.50073V4.30654C3.74414 4.79154 4.13871 5.18615 4.62375 5.18615H5.02498C5.23232 6.09042 6.04295 6.76719 7.00923 6.76719H7.37862V7.36538H5.18207C4.4673 7.36538 3.84383 7.76329 3.52109 8.34912C3.51356 8.34848 3.50595 8.34795 3.49824 8.34795H2.32772C1.55484 8.34795 0.926025 8.97674 0.926025 9.74961V11.0739C0.926025 11.2885 1.06206 11.4715 1.25225 11.5424V11.8919C1.25225 12.2254 1.44906 12.5137 1.7326 12.647V14.4497C1.7326 15.1175 1.99266 15.7453 2.46488 16.2175L2.53619 16.2888C2.42696 16.6819 2.53788 17.1212 2.86016 17.4134L3.20431 17.7254C3.28157 17.7955 3.3801 17.8334 3.4837 17.8334C3.4906 17.8334 3.49757 17.8333 3.50451 17.8329C3.61568 17.8275 3.71805 17.7791 3.79281 17.6967L4.90575 16.4692C4.98047 16.3868 5.01864 16.2802 5.01322 16.169C5.0078 16.0579 4.95938 15.9555 4.87694 15.8808L4.53279 15.5687C4.32204 15.3776 4.05191 15.2764 3.76893 15.2805L3.58539 15.097C3.41249 14.9241 3.31727 14.6942 3.31727 14.4497V12.647C3.35545 12.6291 3.3921 12.6084 3.42686 12.5851C3.69618 13.2453 4.32725 13.7208 5.07266 13.7635V14.0806C5.07266 14.7618 5.62686 15.316 6.30808 15.316H6.92594V15.6287C6.92594 16.0787 7.2921 16.4449 7.74221 16.4449H7.9686V17.084C7.9686 17.6112 8.39747 18.04 8.92459 18.04H10.0473C10.5744 18.04 11.0032 17.6112 11.0032 17.084V16.4449H11.2296C11.6797 16.4449 12.0459 16.0788 12.0459 15.6287V15.316H12.6638C13.345 15.316 13.8992 14.7618 13.8992 14.0806V13.765C14.6565 13.7356 15.301 13.26 15.5766 12.5941C15.6072 12.6137 15.6391 12.6315 15.6722 12.647V14.4497C15.6722 14.6942 15.577 14.9241 15.4041 15.097L15.2206 15.2805C14.9377 15.2763 14.6675 15.3776 14.4567 15.5687L14.1126 15.8807C14.0301 15.9555 13.9817 16.0579 13.9763 16.169C13.9708 16.2802 14.009 16.3868 14.0838 16.4692L15.1967 17.6967C15.2714 17.7791 15.3738 17.8275 15.485 17.8329C15.4919 17.8333 15.4989 17.8334 15.5058 17.8334C15.6094 17.8334 15.7079 17.7955 15.7852 17.7255L16.1293 17.4134C16.4516 17.1212 16.5625 16.6819 16.4533 16.2889L16.5246 16.2175C16.9968 15.7453 17.2569 15.1175 17.2569 14.4497V12.647C17.5404 12.5137 17.7372 12.2254 17.7372 11.892V11.5425C17.9274 11.4715 18.0635 11.2886 18.0635 11.0739V9.74961C18.0632 8.97674 17.4345 8.34795 16.6616 8.34795ZM16.6616 8.87616C17.1432 8.87616 17.5351 9.26799 17.5351 9.74961V11.0461H17.473H15.72V9.26049C15.72 9.12883 15.7064 9.00029 15.6807 8.87613H16.6616V8.87616ZM9.91749 8.99864V9.79719H9.05418V8.99864C9.05418 8.8157 8.90533 8.66689 8.72243 8.66689H8.05551C7.54621 8.66689 7.10508 8.34989 6.93052 7.89362H12.0764C11.9018 8.34989 11.4607 8.66689 10.9514 8.66689H10.2492C10.0663 8.66685 9.91749 8.8157 9.91749 8.99864ZM14.6993 2.50069V4.30651C14.6993 4.50025 14.5417 4.65791 14.3479 4.65791H13.9986V2.14933H14.3479C14.5417 2.14933 14.6993 2.30694 14.6993 2.50069ZM4.27239 4.30651V2.50069C4.27239 2.30694 4.43004 2.14929 4.62379 2.14929H4.97311V4.65787H4.62379C4.43 4.65791 4.27239 4.50029 4.27239 4.30651ZM5.50129 4.73101V2.07619C5.50129 1.24471 6.17775 0.56825 7.00923 0.56825H11.9624C12.7939 0.56825 13.4704 1.24471 13.4704 2.07619V4.73101C13.4704 5.56249 12.7939 6.23895 11.9624 6.23895H7.00923C6.17775 6.23898 5.50129 5.56252 5.50129 4.73101ZM7.90687 6.76719H11.1001V7.36538H7.90687V6.76719ZM3.26935 11.8919C3.26935 12.0605 3.13215 12.1977 2.96355 12.1977H2.08626C1.91765 12.1977 1.78046 12.0605 1.78046 11.8919V11.5743H3.26935V11.8919ZM1.45424 9.74961C1.45424 9.26799 1.84606 8.87616 2.32772 8.87616H3.32618C3.30051 9.00033 3.28695 9.12886 3.28695 9.26053V11.0462H1.51635H1.45424V9.74961ZM2.26082 14.4497V12.7259H2.78903V14.4497C2.78903 14.826 2.93238 15.1801 3.19276 15.4505C3.10779 15.504 3.02943 15.5692 2.96017 15.6456L2.80864 15.8127C2.4553 15.4441 2.26082 14.962 2.26082 14.4497ZM4.43941 16.1971L3.47641 17.2592L3.21494 17.0221C2.97591 16.8054 2.95774 16.4346 3.17448 16.1956L3.3514 16.0004C3.45637 15.8846 3.60015 15.8167 3.75629 15.809C3.76608 15.8085 3.77583 15.8083 3.78555 15.8083C3.93102 15.8083 4.06941 15.8616 4.17791 15.96L4.43941 16.1971ZM8.49671 17.084V16.4449H9.22173V17.5118H8.92452C8.68866 17.5118 8.49671 17.3199 8.49671 17.084ZM10.475 17.084C10.475 17.3199 10.283 17.5118 10.0472 17.5118H9.74997V16.4449H10.475V17.084H10.475ZM12.6637 14.7878H11.7821C11.782 14.7878 11.7819 14.7878 11.7817 14.7878C11.7816 14.7878 11.7815 14.7878 11.7814 14.7878H8.97146C8.82557 14.7878 8.70736 14.9061 8.70736 15.0519C8.70736 15.1978 8.82557 15.316 8.97146 15.316H11.5176V15.6287C11.5176 15.7875 11.3884 15.9167 11.2296 15.9167H10.7391H8.2326H7.7421C7.58325 15.9167 7.45405 15.7875 7.45405 15.6287V15.316H7.84591C7.99181 15.316 8.11002 15.1978 8.11002 15.0519C8.11002 14.9061 7.99181 14.7878 7.84591 14.7878H7.1903C7.19019 14.7878 7.19009 14.7878 7.18994 14.7878C7.1898 14.7878 7.18973 14.7878 7.18959 14.7878H6.30797C5.91801 14.7878 5.60077 14.4706 5.60077 14.0806V13.7668H13.3708V14.0806C13.3709 14.4706 13.0537 14.7878 12.6637 14.7878ZM13.8248 13.2386H5.18211C4.42838 13.2386 3.8152 12.6254 3.8152 11.8717V9.26049C3.8152 8.50677 4.42838 7.89359 5.18211 7.89359H6.37696C6.57028 8.64995 7.25449 9.19506 8.05554 9.19506H8.526V9.79719H6.63508C6.27818 9.79719 5.98781 10.0876 5.98781 10.4445V11.6669C5.98781 12.0238 6.27818 12.3142 6.63508 12.3142H10.3882C10.5341 12.3142 10.6523 12.1959 10.6523 12.0501C10.6523 11.9042 10.5341 11.786 10.3882 11.786H6.63508C6.56944 11.786 6.51602 11.7326 6.51602 11.6669V10.4445C6.51602 10.3788 6.56944 10.3254 6.63508 10.3254H12.3543C12.4199 10.3254 12.4733 10.3788 12.4733 10.4445V11.6669C12.4733 11.7326 12.4199 11.786 12.3543 11.786H11.5137C11.3679 11.786 11.2496 11.9042 11.2496 12.0501C11.2496 12.1959 11.3679 12.3142 11.5137 12.3142H12.3543C12.7112 12.3142 13.0015 12.0238 13.0015 11.6669V10.4445C13.0015 10.0876 12.7112 9.79719 12.3543 9.79719H10.4457V9.19506H10.9514C11.7525 9.19506 12.4366 8.64995 12.63 7.89359H13.8248C14.5786 7.89359 15.1918 8.5068 15.1918 9.26049V11.3102V11.8717C15.1918 12.6254 14.5785 13.2386 13.8248 13.2386ZM15.72 11.5743H17.2088V11.8919C17.2088 12.0605 17.0717 12.1977 16.903 12.1977H16.0257C15.8571 12.1977 15.7199 12.0605 15.7199 11.8919V11.8717V11.5743H15.72ZM15.7743 17.0221L15.5129 17.2592L14.5499 16.1971L14.8114 15.96C14.9272 15.855 15.0772 15.8013 15.233 15.809C15.3891 15.8167 15.5329 15.8846 15.6379 16.0004L15.8148 16.1956C16.0315 16.4346 16.0134 16.8054 15.7743 17.0221ZM16.1807 15.8128L16.0291 15.6456C15.9598 15.5692 15.8815 15.504 15.7965 15.4505C16.0569 15.1802 16.2002 14.826 16.2002 14.4497V12.7259H16.7285V14.4497C16.7285 14.962 16.534 15.444 16.1807 15.8128Z" fill="#7D879C"/>
</svg>
