<svg width="19" height="17" viewBox="0 0 19 17" fill="none" xmlns="http://www.w3.org/2000/svg">
<path d="M18.4946 3.3192C18.4946 1.59531 13.8576 0.665039 9.49463 0.665039C7.60773 0.665039 5.80666 0.826126 4.28601 1.13086C4.14319 1.15942 4.05077 1.2984 4.07933 1.44122C4.10789 1.58405 4.24687 1.67674 4.38969 1.6479C7.68752 0.986938 12.48 1.02882 15.6025 1.88315C16.7457 2.19598 17.9673 2.73747 17.9673 3.3192C17.9673 5.05174 8.95946 6.28001 3.38678 4.75525C2.24352 4.44241 1.02197 3.90092 1.02197 3.3192C1.02197 2.7486 2.20699 2.21342 3.31592 1.90279C3.45613 1.86351 3.53798 1.71794 3.4987 1.57773C3.45943 1.43752 3.314 1.35567 3.17365 1.39494C1.42105 1.88589 0.494629 2.55125 0.494629 3.3192V4.37402C0.494629 5.98943 4.58154 6.91695 8.70361 7.01871V11.8843C8.70361 12.0298 8.82158 12.1479 8.96729 12.1479C9.11299 12.1479 9.23096 12.0298 9.23096 11.8843V7.02722C9.39987 7.02859 9.57497 7.02873 9.7583 7.02722V13.7607C9.7583 13.9062 9.64006 14.0244 9.49463 14.0244C9.3492 14.0244 9.23096 13.9062 9.23096 13.7607V13.0225C9.23096 12.8769 9.11299 12.7588 8.96729 12.7588C8.82158 12.7588 8.70361 12.8769 8.70361 13.0225V13.4051C7.55911 13.6479 6.59918 14.3909 6.59918 15.0676C6.59918 15.4629 6.93248 15.8133 7.53769 16.054C8.06599 16.2643 8.7628 16.3799 9.49957 16.3799C10.2363 16.3799 10.933 16.2643 11.4615 16.054C12.0667 15.8133 12.4 15.4629 12.4 15.0676C12.4 14.7249 12.1399 14.339 11.6865 14.0089C11.2928 13.7222 10.8021 13.5108 10.2856 13.403V7.01884C11.9549 6.9782 13.5353 6.80928 14.8713 6.52803C15.0137 6.49796 15.1049 6.35815 15.075 6.21561C15.0449 6.07306 14.9048 5.98201 14.7627 6.01195C11.3899 6.72208 6.36943 6.67484 3.21883 5.76297C0.710785 5.03691 1.0515 4.30522 1.02197 4.26581C2.35722 5.38106 6.0132 5.97336 9.49463 5.97336C12.9761 5.97336 16.632 5.38106 17.9673 4.26581V4.37402C17.9673 4.54774 17.8131 5.15996 15.8282 5.74594C15.6886 5.78714 15.6088 5.93381 15.6501 6.07347C15.6915 6.21382 15.8385 6.29279 15.9777 6.25159C17.6242 5.76558 18.4946 5.11629 18.4946 4.37402V3.3192ZM11.8726 15.0676C11.8726 15.3875 10.9481 15.8525 9.49957 15.8525C8.05089 15.8525 7.12653 15.3875 7.12653 15.0676C7.12653 14.7852 7.73997 14.1745 8.72421 13.9405C8.80579 14.2904 9.12027 14.5518 9.49463 14.5518C9.86981 14.5518 10.1847 14.2893 10.2656 13.9383C11.2555 14.1707 11.8726 14.7834 11.8726 15.0676Z" fill="#7D879C"/>
</svg>
