<svg width="19" height="19" viewBox="0 0 19 19" fill="none" xmlns="http://www.w3.org/2000/svg">
<g clip-path="url(#clip0_9470_85047)">
<path d="M16.5962 6.26348C16.568 4.75879 15.3446 3.56348 13.854 3.56348H4.93836C3.44773 3.56348 2.22429 4.75879 2.19617 6.24941C1.23992 6.24941 0.578979 7.00879 0.578979 7.83848C0.578979 8.48535 0.97273 9.07598 1.57742 9.31504V11.5088C1.57742 12.0994 1.85867 12.6479 2.29461 12.9854L1.8446 14.8838C1.7321 15.3197 1.99929 15.7557 2.43523 15.8682C2.87117 15.9807 3.30711 15.6994 3.41961 15.2775L3.65867 14.3354H15.204L15.443 15.2775C15.5415 15.7135 15.9915 15.9807 16.4274 15.8822C16.8634 15.7838 17.1305 15.3338 17.0321 14.8979V14.8838L16.568 12.9854C17.0321 12.6338 17.2993 12.0854 17.2852 11.5088V9.31504C18.1009 8.9916 18.4946 8.07754 18.1852 7.26191C17.9321 6.64316 17.3134 6.22129 16.5962 6.26348ZM2.67429 6.30566C2.67429 5.0541 3.68679 4.0416 4.93836 4.0416H13.854C15.1055 4.0416 16.118 5.0541 16.118 6.30566V6.36191C15.5555 6.57285 15.1196 7.06504 15.1196 7.68379C15.1196 7.74004 15.1196 7.62754 15.1055 10.0182C14.754 9.62441 14.2618 9.41348 13.7274 9.41348H11.0415C10.3665 9.41348 9.7618 9.7791 9.4243 10.3557C9.08679 9.7791 8.48211 9.41348 7.80711 9.41348H5.12117C4.60086 9.41348 4.09461 9.63848 3.74304 10.0182C3.74304 10.0182 3.74304 8.3166 3.74304 7.7541C3.74304 7.48691 3.53211 6.92441 3.25086 6.69941C3.06804 6.55879 2.87117 6.41816 2.67429 6.34785V6.30566ZM3.75711 11.1713C3.81336 10.4541 4.40398 9.8916 5.13523 9.8916H7.80711C8.55242 9.8916 9.15711 10.4822 9.18523 11.2135H3.75711V11.1713ZM15.1055 11.2275H9.67742C9.70555 10.4822 10.3102 9.90566 11.0555 9.90566H13.7415C14.4727 9.8916 15.0774 10.4822 15.1055 11.2275ZM2.95554 15.165C2.91336 15.3338 2.73054 15.4463 2.56179 15.4041C2.37898 15.3619 2.28054 15.1791 2.32273 15.0104L2.74461 13.2385C2.89929 13.3088 3.05398 13.351 3.22273 13.365V14.04L2.95554 15.165ZM3.71492 13.3932H15.1055V13.8432H3.71492V13.3932ZM16.3009 15.4041C16.1462 15.4322 15.9493 15.3338 15.9071 15.165L15.5977 13.8854V13.3932C15.7805 13.3791 15.9493 13.3369 16.118 13.2525C16.118 13.2525 16.4415 14.6025 16.554 15.0104C16.5821 15.151 16.5118 15.3479 16.3009 15.4041ZM16.9618 8.90723C16.8493 8.93535 16.779 9.03379 16.779 9.14629V11.5088C16.779 12.2963 16.1321 12.901 15.3868 12.901H3.46179C2.71648 12.901 2.0696 12.2963 2.0696 11.5088V9.13223C2.0696 9.01973 1.99929 8.92129 1.88679 8.89316C1.29617 8.73848 0.944605 8.13379 1.09929 7.55723C1.22585 7.06504 1.66179 6.72754 2.16804 6.72754C2.74461 6.72754 3.26492 7.1916 3.26492 7.7541V11.4525C3.26492 11.5932 3.37742 11.6916 3.50398 11.6916H15.3446C15.4852 11.6916 15.5837 11.5791 15.5837 11.4525V7.79629C15.5837 7.7541 15.5837 7.69785 15.6118 7.59941C15.7102 7.20566 16.0055 6.88223 16.4134 6.78379C16.4977 6.75566 16.5962 6.75566 16.6946 6.75566C17.2993 6.75566 17.7915 7.24785 17.7915 7.85254C17.7915 8.34473 17.454 8.78066 16.9618 8.90723Z" fill="#7D879C"/>
<path d="M5.38837 7.8103C5.58253 7.8103 5.73993 7.6529 5.73993 7.45874C5.73993 7.26458 5.58253 7.10718 5.38837 7.10718C5.1942 7.10718 5.0368 7.26458 5.0368 7.45874C5.0368 7.6529 5.1942 7.8103 5.38837 7.8103Z" fill="#7D879C"/>
<path d="M8.08838 7.8103C8.28254 7.8103 8.43994 7.6529 8.43994 7.45874C8.43994 7.26458 8.28254 7.10718 8.08838 7.10718C7.89422 7.10718 7.73682 7.26458 7.73682 7.45874C7.73682 7.6529 7.89422 7.8103 8.08838 7.8103Z" fill="#7D879C"/>
<path d="M10.7883 7.8103C10.9825 7.8103 11.1399 7.6529 11.1399 7.45874C11.1399 7.26458 10.9825 7.10718 10.7883 7.10718C10.5942 7.10718 10.4368 7.26458 10.4368 7.45874C10.4368 7.6529 10.5942 7.8103 10.7883 7.8103Z" fill="#7D879C"/>
<path d="M13.4883 7.8103C13.6825 7.8103 13.8399 7.6529 13.8399 7.45874C13.8399 7.26458 13.6825 7.10718 13.4883 7.10718C13.2942 7.10718 13.1368 7.26458 13.1368 7.45874C13.1368 7.6529 13.2942 7.8103 13.4883 7.8103Z" fill="#7D879C"/>
<path d="M6.79462 6.23535C6.98878 6.23535 7.14618 6.07795 7.14618 5.88379C7.14618 5.68963 6.98878 5.53223 6.79462 5.53223C6.60045 5.53223 6.44305 5.68963 6.44305 5.88379C6.44305 6.07795 6.60045 6.23535 6.79462 6.23535Z" fill="#7D879C"/>
<path d="M9.50867 6.23535C9.70283 6.23535 9.86023 6.07795 9.86023 5.88379C9.86023 5.68963 9.70283 5.53223 9.50867 5.53223C9.3145 5.53223 9.1571 5.68963 9.1571 5.88379C9.1571 6.07795 9.3145 6.23535 9.50867 6.23535Z" fill="#7D879C"/>
<path d="M12.2087 6.23535C12.4028 6.23535 12.5602 6.07795 12.5602 5.88379C12.5602 5.68963 12.4028 5.53223 12.2087 5.53223C12.0145 5.53223 11.8571 5.68963 11.8571 5.88379C11.8571 6.07795 12.0145 6.23535 12.2087 6.23535Z" fill="#7D879C"/>
</g>
<defs>
<clipPath id="clip0_9470_85047">
<rect width="18" height="18" fill="white" transform="translate(0.494629 0.540039)"/>
</clipPath>
</defs>
</svg>
