<svg width="17" height="19" viewBox="0 0 17 19" fill="none" xmlns="http://www.w3.org/2000/svg">
<path d="M14.4712 0.540039H2.51807C1.45188 0.540039 0.584473 1.40745 0.584473 2.47363V4.96973C0.584473 6.03591 1.45188 6.90332 2.51807 6.90332H3.14466L1.8052 16.7558C1.67692 17.6997 2.41165 18.54 3.36326 18.54C4.14608 18.54 4.81591 17.9551 4.92135 17.1794L5.60148 12.1768H11.3859L12.0677 17.18C12.1734 17.9554 12.8431 18.54 13.6256 18.54C14.5783 18.54 15.3121 17.6985 15.1836 16.7554L13.8411 6.90332H14.4712C15.5374 6.90332 16.4048 6.03591 16.4048 4.96973V2.47363C16.4048 1.40745 15.5374 0.540039 14.4712 0.540039V0.540039ZM3.87629 17.0374C3.84159 17.2928 3.62102 17.4854 3.36326 17.4854C3.04931 17.4854 2.80789 17.2096 2.85026 16.8979L4.20905 6.90332H5.25403L3.87629 17.0374ZM10.6673 6.90332L10.9547 9.0127H6.03165L6.31842 6.90332H10.6673ZM5.74488 11.1221L5.88825 10.0674H11.0984L11.2422 11.1221H5.74488ZM14.1386 16.8978C14.181 17.2089 13.9402 17.4854 13.6256 17.4854C13.368 17.4854 13.1475 17.2928 13.1127 17.0376L11.7317 6.90332H12.7766L14.1386 16.8978ZM15.3501 4.96973C15.3501 5.45436 14.9558 5.84863 14.4712 5.84863H2.51807C2.03344 5.84863 1.63916 5.45436 1.63916 4.96973V2.47363C1.63916 1.989 2.03344 1.59473 2.51807 1.59473H14.4712C14.9558 1.59473 15.3501 1.989 15.3501 2.47363V4.96973Z" fill="#7D879C"/>
</svg>
