<svg width="19" height="19" viewBox="0 0 19 19" fill="none" xmlns="http://www.w3.org/2000/svg">
<g clip-path="url(#clip0_10062_47486)">
<path d="M16.5259 13.54C16.6005 13.54 16.672 13.5104 16.7248 13.4577C16.7775 13.4049 16.8071 13.3334 16.8071 13.2588C16.8064 12.5877 16.5395 11.9443 16.0649 11.4697C15.5904 10.9952 14.947 10.7283 14.2759 10.7275H13.7134C13.6388 10.7275 13.5672 10.7572 13.5145 10.8099C13.4618 10.8627 13.4321 10.9342 13.4321 11.0088V13.2588C13.4321 13.3334 13.4618 13.4049 13.5145 13.4577C13.5672 13.5104 13.6388 13.54 13.7134 13.54H16.5259ZM13.9946 11.29H14.2759C14.7492 11.2906 15.2064 11.4614 15.5642 11.7712C15.922 12.081 16.1564 12.5092 16.2247 12.9775H13.9946V11.29Z" fill="#7D879C"/>
<path d="M14.8384 16.0713C14.9937 16.0713 15.1196 15.9454 15.1196 15.79C15.1196 15.6347 14.9937 15.5088 14.8384 15.5088C14.683 15.5088 14.5571 15.6347 14.5571 15.79C14.5571 15.9454 14.683 16.0713 14.8384 16.0713Z" fill="#7D879C"/>
<path d="M16.8353 10.6527C17.1784 10.1388 17.4459 9.57825 17.6298 8.98829C17.6411 8.95292 17.6452 8.91568 17.6421 8.87869C17.6389 8.84171 17.6284 8.80571 17.6113 8.77279C17.5941 8.73987 17.5706 8.71068 17.5421 8.68688C17.5136 8.66309 17.4807 8.64517 17.4452 8.63417C17.4098 8.62316 17.3725 8.61928 17.3356 8.62275C17.2986 8.62622 17.2627 8.63698 17.2299 8.65439C17.1971 8.67181 17.1681 8.69554 17.1445 8.72422C17.121 8.75291 17.1033 8.78597 17.0926 8.82151C16.9307 9.34044 16.6979 9.83456 16.401 10.2899C15.9349 9.9551 15.3961 9.73545 14.8288 9.64895C16.2069 8.10601 16.9368 6.30995 16.9123 4.79795C17.3019 5.73687 17.4417 6.76064 17.3182 7.76963C17.3137 7.80633 17.3166 7.84354 17.3265 7.87914C17.3365 7.91474 17.3533 7.94803 17.3762 7.97711C17.399 8.00618 17.4273 8.03047 17.4596 8.04858C17.4918 8.06669 17.5273 8.07827 17.564 8.08266C17.5752 8.08402 17.5864 8.08468 17.5977 8.08463C17.6665 8.08464 17.7329 8.05943 17.7844 8.01377C17.8359 7.96811 17.8688 7.90516 17.877 7.83685C18.0078 6.76188 17.866 5.67128 17.4646 4.66551C17.0633 3.65974 16.4152 2.77115 15.5803 2.08158C14.7453 1.39202 13.7503 0.923654 12.6867 0.719641C11.6232 0.515627 10.5255 0.582522 9.49463 0.914164V0.883789C9.49463 0.809197 9.465 0.73766 9.41225 0.684915C9.35951 0.632171 9.28797 0.602539 9.21338 0.602539H5.83838C5.76379 0.602539 5.69225 0.632171 5.6395 0.684915C5.58676 0.73766 5.55713 0.809197 5.55713 0.883789C5.55713 0.958381 5.58676 1.02992 5.6395 1.08266C5.69225 1.13541 5.76379 1.16504 5.83838 1.16504H8.93213V5.10254H3.86963V1.16504H4.71338C4.78797 1.16504 4.85951 1.13541 4.91225 1.08266C4.965 1.02992 4.99463 0.958381 4.99463 0.883789C4.99463 0.809197 4.965 0.73766 4.91225 0.684915C4.85951 0.632171 4.78797 0.602539 4.71338 0.602539H3.58838C3.51379 0.602539 3.44225 0.632171 3.38951 0.684915C3.33676 0.73766 3.30713 0.809197 3.30713 0.883789V1.72754H2.46338C2.38879 1.72754 2.31725 1.75717 2.26451 1.80992C2.21176 1.86266 2.18213 1.9342 2.18213 2.00879V2.29004H1.90088C1.6771 2.29004 1.46249 2.37893 1.30426 2.53717C1.14602 2.6954 1.05713 2.91001 1.05713 3.13379C1.05713 3.35757 1.14602 3.57218 1.30426 3.73041C1.46249 3.88864 1.6771 3.97754 1.90088 3.97754H2.18213V4.25879C2.18213 4.33338 2.21176 4.40492 2.26451 4.45766C2.31725 4.51041 2.38879 4.54004 2.46338 4.54004H3.30713V5.38379C3.30713 5.45838 3.33676 5.52992 3.38951 5.58266C3.44225 5.63541 3.51379 5.66504 3.58838 5.66504H4.71338V6.22754H2.46338C2.38879 6.22754 2.31725 6.25717 2.26451 6.30992C2.21176 6.36266 2.18213 6.4342 2.18213 6.50879V6.81816C1.86471 6.88344 1.57951 7.05615 1.37458 7.30719C1.16965 7.55822 1.05754 7.87223 1.05713 8.19629V10.7275C1.05713 10.8021 1.08676 10.8737 1.13951 10.9264C1.19225 10.9792 1.26379 11.0088 1.33838 11.0088C1.41297 11.0088 1.48451 10.9792 1.53725 10.9264C1.59 10.8737 1.61963 10.8021 1.61963 10.7275V8.19629C1.61984 8.02184 1.67402 7.85172 1.77472 7.70927C1.87543 7.56682 2.01774 7.45902 2.18213 7.40063V11.5713H1.33838C1.26379 11.5713 1.19225 11.6009 1.13951 11.6537C1.08676 11.7064 1.05713 11.7779 1.05713 11.8525V12.6963C1.05713 12.9947 1.17566 13.2808 1.38663 13.4918C1.59761 13.7028 1.88376 13.8213 2.18213 13.8213C2.4805 13.8213 2.76665 13.7028 2.97762 13.4918C3.1886 13.2808 3.30713 12.9947 3.30713 12.6963V12.415C3.30641 12.2412 3.25198 12.0717 3.15129 11.93C3.0506 11.7882 2.90857 11.681 2.74463 11.623V11.29H4.15088V11.8525C4.07629 11.8525 4.00475 11.8822 3.95201 11.9349C3.89926 11.9877 3.86963 12.0592 3.86963 12.1338V13.54C3.86963 13.6146 3.89926 13.6862 3.95201 13.7389C4.00475 13.7917 4.07629 13.8213 4.15088 13.8213C4.22547 13.8213 4.29701 13.7917 4.34975 13.7389C4.4025 13.6862 4.43213 13.6146 4.43213 13.54V12.415H5.55713V15.79H4.43213V14.665C4.43213 14.5904 4.4025 14.5189 4.34975 14.4662C4.29701 14.4134 4.22547 14.3838 4.15088 14.3838C4.07629 14.3838 4.00475 14.4134 3.95201 14.4662C3.89926 14.5189 3.86963 14.5904 3.86963 14.665V15.79H3.02588C2.95129 15.79 2.87975 15.8197 2.82701 15.8724C2.77426 15.9252 2.74463 15.9967 2.74463 16.0713V17.1963C2.74463 17.2709 2.77426 17.3424 2.82701 17.3952C2.87975 17.4479 2.95129 17.4775 3.02588 17.4775H5.83838C5.91297 17.4775 5.98451 17.4479 6.03725 17.3952C6.09 17.3424 6.11963 17.2709 6.11963 17.1963V13.8213H6.68213V16.0713C6.68213 16.1459 6.71176 16.2174 6.7645 16.2702C6.81725 16.3229 6.88879 16.3525 6.96338 16.3525H9.49463V16.915H6.96338C6.88879 16.915 6.81725 16.9447 6.7645 16.9974C6.71176 17.0502 6.68213 17.1217 6.68213 17.1963C6.68213 17.2709 6.71176 17.3424 6.7645 17.3952C6.81725 17.4479 6.88879 17.4775 6.96338 17.4775H10.0571C10.4058 17.4771 10.7457 17.3688 11.0303 17.1673C11.3148 16.9659 11.53 16.6812 11.6462 16.3525H12.3353C12.4098 16.3525 12.4814 16.3229 12.5341 16.2702C12.5869 16.2174 12.6165 16.1459 12.6165 16.0713C12.6165 15.9967 12.5869 15.9252 12.5341 15.8724C12.4814 15.8197 12.4098 15.79 12.3353 15.79H11.7446C11.7452 15.464 11.6512 15.1449 11.4739 14.8713C11.2967 14.5977 11.0439 14.3813 10.7462 14.2485C10.4484 14.1158 10.1186 14.0722 9.79658 14.1232C9.47459 14.1741 9.1743 14.3174 8.93213 14.5357V12.1338C8.93213 12.0592 8.9025 11.9877 8.84975 11.9349C8.79701 11.8822 8.72547 11.8525 8.65088 11.8525V11.29H10.0571V11.623C9.89319 11.681 9.75115 11.7882 9.65047 11.93C9.54978 12.0717 9.49535 12.2412 9.49463 12.415V12.6963C9.49463 12.9947 9.61316 13.2808 9.82413 13.4918C10.0351 13.7028 10.3213 13.8213 10.6196 13.8213C10.8911 13.8204 11.153 13.7204 11.3559 13.54H12.5884C12.663 13.54 12.7345 13.5104 12.7873 13.4577C12.84 13.4049 12.8696 13.3334 12.8696 13.2588V11.0088C12.8696 10.9342 12.84 10.8627 12.7873 10.8099C12.7345 10.7572 12.663 10.7275 12.5884 10.7275C12.5138 10.7275 12.4422 10.7572 12.3895 10.8099C12.3368 10.8627 12.3071 10.9342 12.3071 11.0088V12.9775H11.7047C11.73 12.8859 11.7434 12.7914 11.7446 12.6963V10.165H14.2759C15.0961 10.166 15.8824 10.4923 16.4624 11.0722C17.0424 11.6522 17.3687 12.4386 17.3696 13.2588V15.79H16.5259C16.5275 15.3655 16.3698 14.9558 16.0838 14.6421C15.7978 14.3283 15.4044 14.1334 14.9815 14.0958C14.5586 14.0582 14.1371 14.1808 13.8003 14.4393C13.4635 14.6977 13.2359 15.0732 13.1628 15.4914C13.0896 15.9095 13.1761 16.34 13.4051 16.6974C13.6341 17.0549 13.989 17.3133 14.3995 17.4216C14.81 17.5299 15.2462 17.4801 15.6217 17.2822C15.9973 17.0842 16.2848 16.7524 16.4274 16.3525H17.6509C17.7255 16.3525 17.797 16.3229 17.8498 16.2702C17.9025 16.2174 17.9321 16.1459 17.9321 16.0713V13.2588C17.9322 12.7732 17.8351 12.2926 17.6468 11.845C17.4584 11.3975 17.1825 10.9921 16.8353 10.6527ZM1.90088 3.41504C1.82629 3.41504 1.75475 3.38541 1.70201 3.33266C1.64926 3.27992 1.61963 3.20838 1.61963 3.13379C1.61963 3.0592 1.64926 2.98766 1.70201 2.93492C1.75475 2.88217 1.82629 2.85254 1.90088 2.85254H2.18213V3.41504H1.90088ZM2.74463 3.97754V2.29004H3.30713V3.97754H2.74463ZM13.6931 1.60604C12.7429 1.62421 11.8095 1.86044 10.965 2.29651C10.9425 2.29482 10.9223 2.29004 10.9009 2.29004H10.6196V2.00879C10.6196 1.9342 10.59 1.86266 10.5373 1.80992C10.4845 1.75717 10.413 1.72754 10.3384 1.72754H9.49463V1.50873C10.8588 1.02595 12.3528 1.06057 13.6931 1.60604ZM9.49463 2.29004H10.0571V3.97754H9.49463V2.29004ZM10.6196 2.85254H10.9009C10.9755 2.85254 11.047 2.88217 11.0998 2.93492C11.1525 2.98766 11.1821 3.0592 11.1821 3.13379C11.1821 3.20838 11.1525 3.27992 11.0998 3.33266C11.047 3.38541 10.9755 3.41504 10.9009 3.41504H10.6196V2.85254ZM9.21338 5.66504C9.28797 5.66504 9.35951 5.63541 9.41225 5.58266C9.465 5.52992 9.49463 5.45838 9.49463 5.38379V4.54004H10.3384C10.413 4.54004 10.4845 4.51041 10.5373 4.45766C10.59 4.40492 10.6196 4.33338 10.6196 4.25879V3.97754H10.9009C11.0571 3.97823 11.2104 3.93536 11.3436 3.85374C11.4768 3.77212 11.5846 3.65498 11.6549 3.51548C11.7251 3.37598 11.7551 3.21964 11.7415 3.06403C11.7278 2.90842 11.6711 2.7597 11.5776 2.63457C12.7779 2.12635 13.9088 2.03382 14.7743 2.35332C13.5008 2.71895 11.6625 4.08751 10.0715 5.67854C9.88866 5.86135 9.71457 6.04416 9.54413 6.22698H8.08838V5.66504H9.21338ZM11.1821 11.5713H10.6196V7.40063C10.784 7.45902 10.9263 7.56682 11.027 7.70927C11.1277 7.85172 11.1819 8.02184 11.1821 8.19629V11.5713ZM5.27588 5.66504H7.52588V6.22754H5.27588V5.66504ZM2.74463 12.6963C2.74463 12.8455 2.68537 12.9885 2.57988 13.094C2.47439 13.1995 2.33131 13.2588 2.18213 13.2588C2.03294 13.2588 1.88987 13.1995 1.78438 13.094C1.67889 12.9885 1.61963 12.8455 1.61963 12.6963V12.1338H2.46338C2.53797 12.1338 2.60951 12.1634 2.66225 12.2162C2.715 12.2689 2.74463 12.3404 2.74463 12.415V12.6963ZM5.55713 16.915H3.30713V16.3525H5.55713V16.915ZM7.24463 15.79V12.415H8.36963V15.79H7.24463ZM10.0571 14.665C10.3555 14.665 10.6416 14.7836 10.8526 14.9945C11.0636 15.2055 11.1821 15.4917 11.1821 15.79C11.1821 16.0884 11.0636 16.3746 10.8526 16.5855C10.6416 16.7965 10.3555 16.915 10.0571 16.915V16.0713C10.1128 16.0713 10.1671 16.0548 10.2134 16.0239C10.2596 15.993 10.2957 15.9491 10.317 15.8977C10.3383 15.8463 10.3438 15.7897 10.333 15.7352C10.3221 15.6806 10.2953 15.6305 10.256 15.5912C10.2167 15.5518 10.1666 15.525 10.112 15.5142C10.0574 15.5033 10.0009 15.5089 9.9495 15.5302C9.89811 15.5515 9.85418 15.5875 9.82328 15.6338C9.79237 15.68 9.77588 15.7344 9.77588 15.79H8.93213C8.93213 15.4917 9.05066 15.2055 9.26163 14.9945C9.47261 14.7836 9.75876 14.665 10.0571 14.665ZM8.08838 11.8525H6.96338C6.88879 11.8525 6.81725 11.8822 6.7645 11.9349C6.71176 11.9877 6.68213 12.0592 6.68213 12.1338V13.2588H6.11963V12.1338C6.11963 12.0592 6.09 11.9877 6.03725 11.9349C5.98451 11.8822 5.91297 11.8525 5.83838 11.8525H4.71338V11.29H8.08838V11.8525ZM2.74463 10.7275V6.79004H10.0571V10.7275H2.74463ZM10.0571 12.6963V12.415C10.0571 12.3404 10.0868 12.2689 10.1395 12.2162C10.1922 12.1634 10.2638 12.1338 10.3384 12.1338H11.1821V12.6963C11.1821 12.8455 11.1229 12.9885 11.0174 13.094C10.9119 13.1995 10.7688 13.2588 10.6196 13.2588C10.4704 13.2588 10.3274 13.1995 10.2219 13.094C10.1164 12.9885 10.0571 12.8455 10.0571 12.6963ZM10.6196 6.81816V6.50879C10.6196 6.4342 10.59 6.36266 10.5373 6.30992C10.4845 6.25717 10.413 6.22754 10.3384 6.22754H10.3221C10.371 6.17748 10.4188 6.12713 10.4692 6.07707C13.0184 3.52754 15.2321 2.4886 15.6399 2.89473C16.0478 3.30085 15.0071 5.51654 12.4573 8.06579C12.3429 8.18054 12.2282 8.29304 12.1131 8.40329C12.0849 8.4284 12.062 8.45892 12.0459 8.49304C12.0298 8.52717 12.0207 8.56419 12.0191 8.6019C12.0176 8.63961 12.0237 8.67725 12.037 8.71256C12.0503 8.74788 12.0706 8.78015 12.0967 8.80745C12.1228 8.83476 12.1541 8.85654 12.1887 8.8715C12.2234 8.88646 12.2607 8.89429 12.2984 8.89452C12.3362 8.89476 12.3736 8.88739 12.4084 8.87287C12.4432 8.85834 12.4748 8.83695 12.5012 8.80998C12.6193 8.69748 12.7373 8.58207 12.8553 8.46376C14.4446 6.87441 15.8098 5.04123 16.178 3.76773C16.7573 5.3326 15.9687 7.70185 14.099 9.60254H11.7446V8.19629C11.7442 7.87223 11.6321 7.55822 11.4272 7.30719C11.2222 7.05615 10.937 6.88344 10.6196 6.81816ZM14.8384 16.915C14.6159 16.915 14.3984 16.8491 14.2134 16.7254C14.0284 16.6018 13.8842 16.4261 13.799 16.2206C13.7139 16.015 13.6916 15.7888 13.735 15.5706C13.7784 15.3523 13.8855 15.1519 14.0429 14.9945C14.2002 14.8372 14.4007 14.7301 14.6189 14.6867C14.8371 14.6432 15.0633 14.6655 15.2689 14.7507C15.4745 14.8358 15.6502 14.98 15.7738 15.165C15.8974 15.35 15.9634 15.5675 15.9634 15.79C15.9634 16.0884 15.8449 16.3746 15.6339 16.5855C15.4229 16.7965 15.1367 16.915 14.8384 16.915Z" fill="#7D879C"/>
<path d="M5.27588 1.72754C5.109 1.72754 4.94587 1.77702 4.80712 1.86974C4.66836 1.96245 4.56022 2.09422 4.49636 2.2484C4.43249 2.40258 4.41579 2.57223 4.44834 2.7359C4.4809 2.89957 4.56126 3.04991 4.67926 3.16791C4.79726 3.28591 4.9476 3.36627 5.11127 3.39883C5.27494 3.43138 5.44459 3.41467 5.59877 3.35081C5.75294 3.28695 5.88472 3.17881 5.97743 3.04005C6.07014 2.9013 6.11963 2.73817 6.11963 2.57129C6.11963 2.34751 6.03073 2.1329 5.8725 1.97467C5.71426 1.81643 5.49965 1.72754 5.27588 1.72754ZM5.27588 2.85254C5.22025 2.85254 5.16587 2.83604 5.11962 2.80514C5.07337 2.77424 5.03732 2.73031 5.01604 2.67892C4.99475 2.62753 4.98918 2.57098 5.00003 2.51642C5.01088 2.46186 5.03767 2.41175 5.077 2.37242C5.11634 2.33308 5.16645 2.3063 5.22101 2.29544C5.27557 2.28459 5.33212 2.29016 5.38351 2.31145C5.4349 2.33274 5.47882 2.36878 5.50973 2.41503C5.54063 2.46129 5.55713 2.51566 5.55713 2.57129C5.55713 2.64588 5.5275 2.71742 5.47475 2.77016C5.42201 2.82291 5.35047 2.85254 5.27588 2.85254Z" fill="#7D879C"/>
<path d="M8.36963 2.57129C8.36963 2.40441 8.32014 2.24128 8.22743 2.10253C8.13472 1.96377 8.00294 1.85563 7.84877 1.79177C7.69459 1.7279 7.52494 1.7112 7.36127 1.74375C7.1976 1.77631 7.04726 1.85667 6.92926 1.97467C6.81126 2.09267 6.7309 2.24301 6.69834 2.40668C6.66579 2.57035 6.68249 2.74 6.74636 2.89418C6.81022 3.04835 6.91836 3.18013 7.05712 3.27284C7.19587 3.36555 7.359 3.41504 7.52588 3.41504C7.74965 3.41504 7.96426 3.32614 8.1225 3.16791C8.28073 3.00968 8.36963 2.79507 8.36963 2.57129ZM7.24463 2.57129C7.24463 2.51566 7.26112 2.46129 7.29203 2.41504C7.32293 2.36878 7.36686 2.33274 7.41825 2.31145C7.46964 2.29016 7.52619 2.28459 7.58075 2.29544C7.6353 2.3063 7.68542 2.33308 7.72475 2.37242C7.76408 2.41175 7.79087 2.46186 7.80172 2.51642C7.81257 2.57098 7.80701 2.62753 7.78572 2.67892C7.76443 2.73031 7.72838 2.77424 7.68213 2.80514C7.63588 2.83604 7.5815 2.85254 7.52588 2.85254C7.45129 2.85254 7.37975 2.82291 7.327 2.77016C7.27426 2.71742 7.24463 2.64588 7.24463 2.57129Z" fill="#7D879C"/>
<path d="M5.55713 4.25879C5.55713 4.33338 5.58676 4.40492 5.6395 4.45766C5.69225 4.51041 5.76379 4.54004 5.83838 4.54004H6.96338C7.03797 4.54004 7.10951 4.51041 7.16225 4.45766C7.215 4.40492 7.24463 4.33338 7.24463 4.25879C7.24463 4.1842 7.215 4.11266 7.16225 4.05992C7.10951 4.00717 7.03797 3.97754 6.96338 3.97754H5.83838C5.76379 3.97754 5.69225 4.00717 5.6395 4.05992C5.58676 4.11266 5.55713 4.1842 5.55713 4.25879Z" fill="#7D879C"/>
<path d="M8.36963 7.35254H4.43213C4.35754 7.35254 4.286 7.38217 4.23326 7.43492C4.18051 7.48766 4.15088 7.5592 4.15088 7.63379V8.75879C4.15088 8.83338 4.18051 8.90492 4.23326 8.95766C4.286 9.01041 4.35754 9.04004 4.43213 9.04004H8.36963C8.44422 9.04004 8.51576 9.01041 8.5685 8.95766C8.62125 8.90492 8.65088 8.83338 8.65088 8.75879V7.63379C8.65088 7.5592 8.62125 7.48766 8.5685 7.43492C8.51576 7.38217 8.44422 7.35254 8.36963 7.35254ZM8.08838 8.47754H4.71338V7.91504H8.08838V8.47754Z" fill="#7D879C"/>
<path d="M7.52588 9.60254H5.27588C5.20129 9.60254 5.12975 9.63217 5.077 9.68492C5.02426 9.73766 4.99463 9.8092 4.99463 9.88379C4.99463 9.95838 5.02426 10.0299 5.077 10.0827C5.12975 10.1354 5.20129 10.165 5.27588 10.165H7.52588C7.60047 10.165 7.67201 10.1354 7.72475 10.0827C7.7775 10.0299 7.80713 9.95838 7.80713 9.88379C7.80713 9.8092 7.7775 9.73766 7.72475 9.68492C7.67201 9.63217 7.60047 9.60254 7.52588 9.60254Z" fill="#7D879C"/>
</g>
<defs>
<clipPath id="clip0_10062_47486">
<rect width="18" height="18" fill="white" transform="translate(0.494629 0.0400391)"/>
</clipPath>
</defs>
</svg>
