<svg width="19" height="19" viewBox="0 0 19 19" fill="none" xmlns="http://www.w3.org/2000/svg">
<g clip-path="url(#clip0_10056_14577)">
<path d="M16.6025 6.10449C16.6096 6.05223 16.6096 5.99925 16.6025 5.94699C16.596 5.90296 16.5834 5.86005 16.565 5.81949C16.5452 5.78284 16.5226 5.74774 16.4975 5.71449C16.469 5.66706 16.4336 5.62409 16.3925 5.58699L16.3025 5.53449C16.2592 5.50221 16.2111 5.4769 16.16 5.45949H16.01C15.9643 5.41524 15.9109 5.37966 15.8525 5.35449H12.1025C11.9036 5.35449 11.7128 5.43351 11.5722 5.57416C11.4315 5.71481 11.3525 5.90558 11.3525 6.10449C11.3525 6.3034 11.4315 6.49417 11.5722 6.63482C11.7128 6.77547 11.9036 6.85449 12.1025 6.85449H14.225L11.225 10.387L7.98502 8.45949C7.83155 8.36822 7.65056 8.33469 7.47458 8.36493C7.29861 8.39518 7.1392 8.48722 7.02502 8.62449L3.27502 13.1245C3.21187 13.2003 3.16429 13.2878 3.135 13.382C3.10572 13.4762 3.09531 13.5752 3.10436 13.6735C3.11342 13.7717 3.14177 13.8672 3.18778 13.9544C3.2338 14.0417 3.29657 14.119 3.37252 14.182C3.50745 14.2938 3.67728 14.3548 3.85252 14.3545C3.9627 14.3547 4.07157 14.3306 4.17138 14.2839C4.27119 14.2372 4.3595 14.1692 4.43002 14.0845L7.76752 10.0795L10.97 11.9995C11.1219 12.0896 11.3007 12.1232 11.475 12.0944C11.6492 12.0656 11.8077 11.9762 11.9225 11.842L15.1025 8.12949V9.85449C15.1025 10.0534 15.1815 10.2442 15.3222 10.3848C15.4628 10.5255 15.6536 10.6045 15.8525 10.6045C16.0514 10.6045 16.2422 10.5255 16.3828 10.3848C16.5235 10.2442 16.6025 10.0534 16.6025 9.85449V6.10449Z" fill="#7D879C"/>
</g>
<defs>
<clipPath id="clip0_10056_14577">
<rect width="18" height="18" fill="white" transform="translate(0.852539 0.854492)"/>
</clipPath>
</defs>
</svg>
