<svg width="19" height="19" viewBox="0 0 19 19" fill="none" xmlns="http://www.w3.org/2000/svg">
<g clip-path="url(#clip0_10062_47452)">
<path d="M14.8384 10.165H12.5389C12.6053 10.0882 12.6736 10.012 12.7358 9.9344C13.0331 9.56129 13.1792 9.08998 13.1451 8.61411C13.111 8.13824 12.8991 7.69261 12.5516 7.36574C12.1969 7.03603 11.7393 6.8388 11.2561 6.80734C10.7728 6.77588 10.2935 6.91212 9.89908 7.19306C9.76915 7.28671 9.63555 7.38993 9.49465 7.5089C9.35205 7.3874 9.21649 7.27968 9.08374 7.18293C8.69014 6.90127 8.21103 6.76486 7.7281 6.79696C7.24517 6.82907 6.78833 7.0277 6.43549 7.35899C6.3095 7.47969 6.20042 7.61687 6.11121 7.76681C5.68645 7.60476 5.27756 7.40384 4.88974 7.16662C4.5996 6.99254 4.38642 6.71475 4.29332 6.38946C4.20022 6.06416 4.23416 5.71565 4.38827 5.41443C4.54742 5.10015 4.81054 4.85072 5.13287 4.70858C5.4552 4.56644 5.81682 4.54037 6.15621 4.6348C6.38463 4.70233 6.60945 4.78146 6.8298 4.8719C6.89374 4.89771 6.96492 4.89913 7.02984 4.87591C7.09476 4.85268 7.14888 4.80641 7.18193 4.7459C7.30877 4.51415 7.42802 4.31615 7.54755 4.14121C7.74731 3.84998 8.04145 3.6366 8.3803 3.53709C8.71914 3.43759 9.08195 3.45805 9.40746 3.59502C9.71699 3.72728 9.96545 3.97114 10.1035 4.27814C10.2415 4.58515 10.259 4.93284 10.1525 5.25215C10.054 5.54335 9.93649 5.82774 9.80065 6.10349C9.76775 6.17062 9.76287 6.24808 9.78708 6.31881C9.81129 6.38954 9.86261 6.44775 9.92974 6.48065C9.99687 6.51354 10.0743 6.51842 10.1451 6.49421C10.2158 6.47 10.274 6.41869 10.3069 6.35155C10.4538 6.05335 10.5809 5.74574 10.6871 5.43074C10.8389 4.97845 10.8149 4.48564 10.6201 4.05017C10.4253 3.6147 10.0739 3.26841 9.63555 3.08005C9.48189 3.01313 9.3204 2.96588 9.1549 2.93943C9.08109 2.78144 9.01611 2.61947 8.96027 2.45427C8.89442 2.26316 8.90359 2.05417 8.98593 1.86956C9.06826 1.68495 9.21762 1.53848 9.4038 1.45977C9.59951 1.37579 9.8183 1.36235 10.0228 1.42175C10.2273 1.48115 10.4049 1.6097 10.5251 1.78546C10.6111 1.91506 10.6904 2.04902 10.7625 2.1868C10.7949 2.24769 10.8485 2.29456 10.9132 2.31852C10.9778 2.34247 11.049 2.34184 11.1132 2.31674C11.2775 2.25262 11.4164 2.20424 11.5506 2.1674C11.7563 2.11014 11.9755 2.12557 12.1711 2.21108C12.3668 2.29659 12.527 2.44695 12.6247 2.6368C12.7156 2.81601 12.7358 3.02287 12.6813 3.21629C12.6267 3.40971 12.5014 3.57552 12.3302 3.6808C12.0281 3.8631 11.707 4.01192 11.3726 4.12462C11.3376 4.13662 11.3054 4.15539 11.2777 4.17985C11.25 4.20431 11.2274 4.23398 11.2112 4.26718C11.195 4.30037 11.1855 4.33644 11.1832 4.37331C11.1809 4.41018 11.1859 4.44715 11.1979 4.48209C11.2099 4.51702 11.2287 4.54926 11.2531 4.57695C11.2776 4.60463 11.3073 4.62723 11.3405 4.64345C11.3737 4.65967 11.4097 4.66919 11.4466 4.67147C11.4835 4.67375 11.5204 4.66875 11.5554 4.65674C11.9286 4.53069 12.2869 4.36433 12.6241 4.16062C12.9154 3.98265 13.1292 3.70168 13.2229 3.37345C13.3167 3.04522 13.2837 2.69374 13.1304 2.38874C12.9761 2.07943 12.7185 1.83387 12.4021 1.6947C12.0858 1.55553 11.7306 1.53151 11.3984 1.62683C11.3141 1.65046 11.2297 1.67746 11.1408 1.7084C11.0913 1.62402 11.0426 1.54612 10.9934 1.47299C10.7987 1.18809 10.5111 0.979647 10.1798 0.883306C9.84845 0.786964 9.49393 0.808702 9.17683 0.944803C8.86392 1.08131 8.61337 1.32991 8.47442 1.64174C8.33547 1.95358 8.31816 2.30611 8.4259 2.63005C8.45927 2.7313 8.4963 2.83227 8.53699 2.93296C8.24567 2.97195 7.96573 3.07147 7.71516 3.22511C7.46459 3.37875 7.24895 3.58312 7.08208 3.82509C6.99208 3.95784 6.90208 4.10127 6.80983 4.26046C6.63433 4.19465 6.47008 4.1398 6.31258 4.09452C5.8765 3.97092 5.41179 3.99484 4.99071 4.16259C4.99438 3.94865 4.98499 3.73469 4.96258 3.5219C4.92294 3.17597 4.75498 2.85751 4.4919 2.62942C4.22882 2.40133 3.88976 2.28022 3.54171 2.29002C3.19006 2.30278 2.85359 2.43652 2.58913 2.66865C2.32467 2.90077 2.14843 3.21706 2.09018 3.56408C2.07583 3.65268 2.06374 3.74549 2.05361 3.84534C1.95208 3.85462 1.85674 3.86643 1.76533 3.88077C1.41836 3.93804 1.10201 4.11393 0.870277 4.37844C0.63854 4.64296 0.505777 4.97969 0.494646 5.33118C0.485862 5.67938 0.607609 6.01829 0.835965 6.2813C1.06432 6.54432 1.38278 6.71244 1.72877 6.75262C1.93991 6.77763 2.15234 6.79012 2.36496 6.79002C2.59705 6.78987 2.82892 6.77597 3.05936 6.7484C3.13347 6.73956 3.20103 6.70164 3.24718 6.64299C3.29334 6.58434 3.3143 6.50976 3.30546 6.43565C3.29662 6.36154 3.2587 6.29398 3.20005 6.24783C3.1414 6.20168 3.06682 6.18072 2.99271 6.18955C2.5953 6.23848 2.19349 6.24008 1.79571 6.19434C1.58768 6.17258 1.39568 6.07262 1.25856 5.91467C1.12145 5.75672 1.04945 5.55258 1.05715 5.34355C1.06406 5.12363 1.14703 4.91291 1.29191 4.74731C1.43679 4.58171 1.63462 4.47147 1.85168 4.4354C2.01013 4.4115 2.16972 4.39582 2.3298 4.38843C2.39863 4.38478 2.46372 4.35598 2.51272 4.3075C2.56171 4.25903 2.5912 4.19425 2.59558 4.12546C2.60711 3.94855 2.62371 3.79415 2.64621 3.6538C2.68222 3.43617 2.7922 3.23762 2.95759 3.09164C3.12298 2.94567 3.33366 2.86121 3.55408 2.85252C3.7618 2.84489 3.96473 2.91598 4.12227 3.05157C4.27982 3.18716 4.38034 3.37724 4.40374 3.58377C4.43636 3.88722 4.44041 4.19307 4.41583 4.49727C4.19317 4.67937 4.0117 4.90666 3.88343 5.16412C3.74998 5.43304 3.68172 5.7296 3.68416 6.0298C3.68661 6.33 3.75969 6.6254 3.89749 6.89212L3.39124 6.80155C3.28365 6.78208 3.17326 6.78421 3.06649 6.80782C2.95973 6.83143 2.85874 6.87605 2.7694 6.93909C2.67838 7.00252 2.60089 7.08343 2.54145 7.1771C2.48201 7.27078 2.4418 7.37534 2.42318 7.48471L0.788552 16.8667C0.750369 17.0855 0.800004 17.3105 0.926687 17.4929C1.05337 17.6754 1.24688 17.8005 1.46524 17.8412L2.55593 18.0358C2.57228 18.0386 2.58884 18.04 2.60543 18.04C2.67163 18.04 2.7357 18.0167 2.78637 17.9741C2.83705 17.9315 2.87107 17.8724 2.88246 17.8072L3.57743 13.8213C3.59026 13.7478 3.57336 13.6722 3.53045 13.6111C3.48754 13.5501 3.42214 13.5086 3.34863 13.4957C3.27512 13.4829 3.19952 13.4998 3.13847 13.5427C3.07742 13.5856 3.03591 13.651 3.02308 13.7245L2.37677 17.4325L1.5634 17.2874C1.4912 17.2736 1.42742 17.2317 1.38595 17.171C1.34449 17.1103 1.32871 17.0357 1.34205 16.9634L2.97724 7.58259C2.98338 7.54625 2.99669 7.5115 3.01639 7.48036C3.03609 7.44921 3.06179 7.4223 3.09199 7.40118C3.12073 7.38082 3.15325 7.3664 3.18763 7.35877C3.22202 7.35114 3.25758 7.35045 3.29224 7.35674L4.10786 7.50215L3.80496 9.24056C3.79325 9.31354 3.81075 9.3882 3.85366 9.44839C3.89658 9.50857 3.96146 9.54944 4.03428 9.56216C4.1071 9.57487 4.18199 9.55841 4.24276 9.51633C4.30354 9.47425 4.3453 9.40994 4.35902 9.33731L4.64843 7.67793C5.04598 7.91829 5.46383 8.12335 5.89718 8.29077C5.82778 8.57358 5.82393 8.86851 5.88593 9.15303C5.94794 9.43756 6.07415 9.70414 6.25493 9.93243C6.31708 10.0117 6.38486 10.0885 6.4518 10.1662H4.1509C4.0763 10.1662 4.00477 10.1958 3.95202 10.2485C3.89928 10.3013 3.86965 10.3728 3.86965 10.4474V17.1963C3.86965 17.4201 3.95854 17.6347 4.11677 17.7929C4.27501 17.9511 4.48962 18.04 4.7134 18.04H14.2759C14.4997 18.04 14.7143 17.9511 14.8725 17.7929C15.0308 17.6347 15.1196 17.4201 15.1196 17.1963V10.4463C15.1196 10.3717 15.09 10.3001 15.0373 10.2474C14.9845 10.1947 14.913 10.165 14.8384 10.165ZM6.69593 9.5834C6.48289 9.32057 6.3776 8.98665 6.40136 8.64916C6.42511 8.31167 6.57614 7.99579 6.8239 7.7654C7.08079 7.52426 7.41337 7.37968 7.76493 7.35629C8.1165 7.33291 8.46529 7.43216 8.75186 7.63715C8.94349 7.77878 9.12776 7.9301 9.30396 8.09052C9.35522 8.13666 9.42165 8.16235 9.49061 8.16271C9.55958 8.16307 9.62627 8.13808 9.67802 8.09249C9.8794 7.91531 10.0541 7.7744 10.2279 7.64924C10.5152 7.44409 10.8646 7.34429 11.2169 7.36668C11.5693 7.38907 11.9032 7.53227 12.1623 7.77215C12.4079 8.00229 12.5579 8.31638 12.5826 8.65203C12.6073 8.98769 12.5049 9.32035 12.2956 9.58396C12.1318 9.7874 11.9566 9.9814 11.7708 10.165H7.21146C7.02917 9.98066 6.85707 9.7865 6.69593 9.5834ZM4.43215 17.1963V10.7275H8.36965V17.4775H4.7134C4.6388 17.4775 4.56727 17.4479 4.51452 17.3952C4.46178 17.3424 4.43215 17.2709 4.43215 17.1963ZM14.5571 17.1963C14.5571 17.2709 14.5275 17.3424 14.4748 17.3952C14.422 17.4479 14.3505 17.4775 14.2759 17.4775H10.6196V13.2588C10.6196 13.1842 10.59 13.1126 10.5373 13.0599C10.4845 13.0072 10.413 12.9775 10.3384 12.9775C10.2638 12.9775 10.1923 13.0072 10.1395 13.0599C10.0868 13.1126 10.0571 13.1842 10.0571 13.2588V17.4775H8.93215V10.7275H10.0571V12.1338C10.0571 12.2084 10.0868 12.2799 10.1395 12.3327C10.1923 12.3854 10.2638 12.415 10.3384 12.415C10.413 12.415 10.4845 12.3854 10.5373 12.3327C10.59 12.2799 10.6196 12.2084 10.6196 12.1338V10.7275H14.5571V17.1963Z" fill="#BE7374"/>
<path d="M17.2192 5.85128L17.1896 5.8465L17.1846 5.81275C17.151 5.61022 17.0482 5.42561 16.8937 5.29041C16.7393 5.15521 16.5426 5.0778 16.3375 5.07138C16.132 5.06674 15.9321 5.13885 15.7769 5.27365C15.6217 5.40845 15.5224 5.59625 15.4982 5.80038C15.4684 6.07267 15.4771 6.34779 15.5238 6.61769C15.2736 6.45042 14.9902 6.33939 14.693 6.29224C14.3958 6.24509 14.0919 6.26296 13.8023 6.3446C13.6448 6.39016 13.4805 6.44472 13.305 6.51053C13.2128 6.35135 13.1228 6.20791 13.0328 6.07516C12.8587 5.81912 12.63 5.60495 12.363 5.44814C12.0961 5.29132 11.7976 5.19578 11.4893 5.16841C11.452 5.16411 11.4143 5.1673 11.3784 5.17778C11.3424 5.18827 11.3089 5.20583 11.2798 5.22945C11.2507 5.25306 11.2266 5.28226 11.2089 5.31531C11.1913 5.34836 11.1804 5.38461 11.177 5.42192C11.1735 5.45924 11.1776 5.49686 11.1889 5.53259C11.2002 5.56832 11.2185 5.60143 11.2428 5.62998C11.267 5.65853 11.2968 5.68194 11.3302 5.69884C11.3637 5.71573 11.4001 5.72578 11.4375 5.72838C11.6628 5.7497 11.8808 5.82009 12.076 5.93461C12.2712 6.04913 12.439 6.20501 12.5676 6.39128C12.6865 6.56622 12.8058 6.76422 12.9332 6.99597C12.9663 7.05648 13.0204 7.10275 13.0853 7.12598C13.1502 7.14921 13.2214 7.14778 13.2853 7.12197C13.5061 7.03149 13.7314 6.95236 13.9603 6.88488C14.2997 6.79022 14.6614 6.81619 14.9838 6.95835C15.3062 7.10051 15.5693 7.35008 15.7283 7.6645C15.8732 7.95387 15.9091 8.28576 15.8294 8.59942C15.7496 8.91308 15.5596 9.18753 15.294 9.37253C15.2637 9.39371 15.2378 9.42066 15.2179 9.45185C15.198 9.48303 15.1844 9.51784 15.178 9.55428C15.1716 9.59071 15.1724 9.62806 15.1804 9.66418C15.1884 9.70029 15.2035 9.73448 15.2248 9.76476C15.246 9.79504 15.273 9.82084 15.3043 9.84066C15.3355 9.86048 15.3704 9.87394 15.4068 9.88028C15.4433 9.88661 15.4806 9.88569 15.5167 9.87757C15.5528 9.86945 15.5869 9.85428 15.6172 9.83294C15.9831 9.57759 16.2476 9.20174 16.3645 8.77111C16.4813 8.34049 16.4431 7.88249 16.2565 7.47719C16.4787 7.52596 16.7054 7.55169 16.9329 7.55397C17.0337 7.55402 17.1344 7.54848 17.2346 7.53738C17.4392 7.51432 17.6277 7.41521 17.7626 7.2597C17.8975 7.10419 17.9691 6.90365 17.9631 6.69785C17.9577 6.49202 17.8803 6.2946 17.7443 6.13992C17.6084 5.98525 17.4226 5.88312 17.2192 5.85128ZM17.1694 6.97825C16.8271 7.00962 16.482 6.97516 16.1527 6.87672C16.0538 6.54981 16.0211 6.20644 16.0568 5.86675C16.063 5.80089 16.0943 5.73995 16.1443 5.69659C16.1943 5.65322 16.259 5.63077 16.3251 5.63388C16.3986 5.63614 16.4691 5.66384 16.5245 5.71225C16.5799 5.76067 16.6168 5.82681 16.6288 5.89938C16.6396 5.97163 16.6468 6.04438 16.6502 6.11735C16.6538 6.18627 16.6826 6.25147 16.7311 6.30053C16.7797 6.34959 16.8446 6.37909 16.9135 6.38341C16.9852 6.38791 17.0569 6.39466 17.1289 6.40619C17.2019 6.41804 17.2687 6.45473 17.3178 6.51007C17.3669 6.5654 17.3955 6.636 17.3986 6.70994C17.4019 6.77547 17.3799 6.83976 17.3373 6.88964C17.2947 6.93953 17.2346 6.97123 17.1694 6.97825Z" fill="#BE7374"/>
<path d="M6.27178 2.25937C6.31192 2.27978 6.35637 2.29025 6.4014 2.28991C6.44642 2.28956 6.49071 2.27841 6.53053 2.2574C6.95241 2.04854 7.32601 1.75388 7.62741 1.39227C7.75589 1.23145 7.8192 1.0282 7.80477 0.822865C7.79033 0.617531 7.69922 0.425132 7.5495 0.283866C7.40033 0.14176 7.20603 0.0564951 7.00045 0.042927C6.79488 0.0293589 6.59106 0.0883478 6.4245 0.209616L6.40088 0.227335L6.37275 0.206803C6.20578 0.0874866 6.00262 0.0297314 5.79786 0.0433722C5.59309 0.0570129 5.39939 0.141206 5.24972 0.281616C5.10102 0.423543 5.01074 0.615919 4.99659 0.820988C4.98243 1.02606 5.04543 1.22901 5.17322 1.39002C5.47074 1.75735 5.84591 2.05423 6.27178 2.25937ZM5.6415 0.686897C5.69501 0.636444 5.76434 0.606074 5.83771 0.600947C5.91108 0.59582 5.98396 0.616252 6.04397 0.658772C6.10247 0.701804 6.15844 0.749054 6.21272 0.797991C6.26393 0.844086 6.33028 0.869778 6.39918 0.870193C6.46808 0.870608 6.53474 0.845716 6.5865 0.800241C6.64078 0.75271 6.69647 0.706585 6.75525 0.663554C6.81537 0.620416 6.88852 0.5993 6.96238 0.603756C7.03624 0.608212 7.10632 0.63797 7.16081 0.688022C7.20945 0.731986 7.23945 0.792869 7.24468 0.85822C7.2499 0.92357 7.22997 0.988449 7.18894 1.03958C6.96897 1.30355 6.70064 1.52311 6.39835 1.68646C6.09716 1.52518 5.83131 1.30523 5.61647 1.03958C5.5755 0.988432 5.55533 0.923714 5.55997 0.858343C5.56461 0.792971 5.59372 0.731751 5.6415 0.686897Z" fill="#BE7374"/>
<path d="M17.2206 1.63532C17.132 1.62098 17.0392 1.60889 16.9393 1.59876C16.9301 1.49723 16.9185 1.40189 16.9042 1.31048C16.8469 0.963514 16.6709 0.647195 16.4063 0.415509C16.1418 0.183823 15.805 0.0511289 15.4535 0.0400735C15.1054 0.0317408 14.7668 0.153647 14.5038 0.381919C14.2409 0.610191 14.0727 0.928388 14.0321 1.2742C13.9364 2.19552 14.0458 3.1266 14.3524 4.00064C14.3664 4.04344 14.3905 4.08225 14.4226 4.11382C14.4547 4.14539 14.4939 4.16878 14.5369 4.18204C15.2284 4.408 15.9499 4.52869 16.6772 4.54008C16.8728 4.54033 17.0682 4.52953 17.2625 4.50773C17.6087 4.46878 17.9276 4.30103 18.1559 4.0378C18.3842 3.77457 18.5051 3.43512 18.4947 3.08686C18.4817 2.73527 18.3479 2.39891 18.1158 2.13449C17.8837 1.87008 17.5675 1.69378 17.2206 1.63532ZM17.2009 3.94945C16.4058 4.02012 15.6047 3.931 14.8446 3.68733C14.5956 2.93199 14.5093 2.13249 14.5915 1.34142C14.612 1.13309 14.7115 0.940515 14.8695 0.803148C15.0274 0.665781 15.232 0.594022 15.4411 0.602574C15.661 0.60937 15.8718 0.692262 16.0374 0.837107C16.203 0.981951 16.3132 1.17977 16.3493 1.39682C16.3732 1.55528 16.3888 1.71487 16.3963 1.87495C16.3998 1.94383 16.4286 2.00899 16.4771 2.05804C16.5256 2.10709 16.5904 2.13662 16.6592 2.14101C16.8361 2.15226 16.9902 2.16914 17.1309 2.19164C17.3485 2.22759 17.547 2.33751 17.693 2.50286C17.839 2.6682 17.9235 2.87884 17.9322 3.09923C17.9391 3.30684 17.8678 3.50949 17.7324 3.66698C17.5969 3.82447 17.4072 3.9253 17.2009 3.94945Z" fill="#BE7374"/>
</g>
<defs>
<clipPath id="clip0_10062_47452">
<rect width="18" height="18" fill="white" transform="translate(0.494629 0.0400391)"/>
</clipPath>
</defs>
</svg>
