<svg width="19" height="19" viewBox="0 0 19 19" fill="none" xmlns="http://www.w3.org/2000/svg">
<g clip-path="url(#clip0_9470_85055)">
<path d="M8.89459 1.73999C8.72901 1.73999 8.5946 1.87439 8.5946 2.03998V3.24C8.5946 3.40559 8.72901 3.53999 8.89459 3.53999C9.06018 3.53999 9.19458 3.40559 9.19458 3.24V2.04001C9.19462 1.87439 9.06021 1.73999 8.89459 1.73999Z" fill="#7D879C"/>
<path d="M17.2946 1.73999C17.129 1.73999 16.9946 1.87439 16.9946 2.03998V3.24C16.9946 3.40559 17.129 3.53999 17.2946 3.53999C17.4602 3.53999 17.5946 3.40559 17.5946 3.24V2.04001C17.5946 1.87439 17.4602 1.73999 17.2946 1.73999Z" fill="#7D879C"/>
<path d="M6.79463 0.540039H0.794617C0.629031 0.540039 0.494629 0.674441 0.494629 0.840027V18.24C0.494629 18.4056 0.629031 18.54 0.794617 18.54H6.79463C6.96021 18.54 7.09462 18.4056 7.09462 18.2401V0.840027C7.09462 0.674441 6.96021 0.540039 6.79463 0.540039ZM6.49464 17.94H1.09464V1.14005H6.49464V17.94Z" fill="#7D879C"/>
<path d="M18.1946 13.14H6.79462C6.62903 13.14 6.49463 13.2744 6.49463 13.44V18.24C6.49463 18.4056 6.62903 18.54 6.79462 18.54H18.1946C18.3602 18.54 18.4946 18.4056 18.4946 18.24V13.44C18.4946 13.2744 18.3602 13.14 18.1946 13.14ZM17.8946 17.94H7.09461V13.74H17.8946V17.94Z" fill="#7D879C"/>
<path d="M18.1946 0.540039H6.79462C6.62903 0.540039 6.49463 0.674441 6.49463 0.840027V2.04002C6.49463 2.2056 6.62903 2.34 6.79462 2.34H18.1946C18.3602 2.34 18.4946 2.2056 18.4946 2.04002V0.840027C18.4946 0.674441 18.3602 0.540039 18.1946 0.540039ZM17.8946 1.74003H7.09461V1.14005H17.8946V1.74003Z" fill="#7D879C"/>
<path d="M5.29459 9.23999H4.39459C4.22901 9.23999 4.0946 9.37439 4.0946 9.53998C4.0946 9.70556 4.22901 9.83997 4.39459 9.83997H5.29459C5.46018 9.83997 5.59458 9.70556 5.59458 9.53998C5.59458 9.37439 5.46021 9.23999 5.29459 9.23999Z" fill="#7D879C"/>
<path d="M4.39459 9.23999C4.22901 9.23999 4.0946 9.37439 4.0946 9.53998V10.44C4.0946 10.6056 4.22901 10.74 4.39459 10.74C4.56018 10.74 4.69458 10.6056 4.69458 10.44V9.53998C4.69462 9.37439 4.56021 9.23999 4.39459 9.23999Z" fill="#7D879C"/>
<path d="M13.3946 15.24H11.5946C11.429 15.24 11.2946 15.3744 11.2946 15.54C11.2946 15.7056 11.429 15.84 11.5946 15.84H13.3946C13.5602 15.84 13.6946 15.7056 13.6946 15.54C13.6946 15.3744 13.5602 15.24 13.3946 15.24Z" fill="#7D879C"/>
<path d="M12.4946 15.24C12.329 15.24 12.1946 15.3744 12.1946 15.54V16.14C12.1946 16.3056 12.329 16.44 12.4946 16.44C12.6602 16.44 12.7946 16.3056 12.7946 16.14V15.54C12.7947 15.3744 12.6603 15.24 12.4946 15.24Z" fill="#7D879C"/>
<path d="M10.6946 1.73999C10.5291 1.73999 10.3947 1.87439 10.3947 2.03998V3.83998C10.3947 4.00557 10.5291 4.13997 10.6946 4.13997C10.8602 4.13997 10.9946 4.00557 10.9946 3.83998V2.03998C10.9947 1.87439 10.8603 1.73999 10.6946 1.73999Z" fill="#7D879C"/>
<path d="M10.6946 4.73999C9.07973 4.73999 7.99463 5.34267 7.99463 6.24V6.83998C7.99463 7.00556 8.12903 7.13996 8.29462 7.13996H8.89463V9.83996C8.89463 10.0055 9.02903 10.1399 9.19462 10.1399H12.1946C12.3602 10.1399 12.4946 10.0055 12.4946 9.83996V7.13996H13.0946C13.2602 7.13996 13.3946 7.00556 13.3946 6.83998V6.23996C13.3946 5.34267 12.3095 4.73999 10.6946 4.73999ZM12.7947 6.53999H12.1946C12.0291 6.53999 11.8947 6.67439 11.8947 6.83998V9.53997H9.49464V6.83998C9.49464 6.67439 9.36024 6.53999 9.19465 6.53999H8.59464V6.24C8.59464 5.80382 9.33053 5.34 10.6946 5.34C12.0587 5.34 12.7946 5.80382 12.7946 6.24V6.53999H12.7947Z" fill="#7D879C"/>
<path d="M12.7946 4.73999C12.3947 4.73999 12.0197 4.77778 11.6804 4.85217C11.5427 4.88248 11.4446 5.00426 11.4446 5.14527C11.4446 5.28628 11.5427 5.40806 11.6804 5.43837C12.3572 5.58655 12.7946 5.90127 12.7946 6.23996V6.53995H12.1946C12.029 6.53995 11.8946 6.67435 11.8946 6.83994V9.83992C11.8946 10.0055 12.029 10.1399 12.1946 10.1399H14.2946C14.4602 10.1399 14.5946 10.0055 14.5946 9.83992V7.13993H15.1946C15.3602 7.13993 15.4946 7.00553 15.4946 6.83994V6.23993C15.4946 5.34267 14.4095 4.73999 12.7946 4.73999ZM14.8946 6.53999H14.2946C14.129 6.53999 13.9946 6.67439 13.9946 6.83998V9.53997H12.4946V7.13996H13.0946C13.2602 7.13996 13.3946 7.00556 13.3946 6.83998V6.23996C13.3946 5.89498 13.2281 5.58687 12.9242 5.34148C14.2052 5.36967 14.8946 5.81756 14.8946 6.23996V6.53999Z" fill="#7D879C"/>
<path d="M14.8946 4.73999C14.4947 4.73999 14.1197 4.77778 13.7804 4.85217C13.6427 4.88248 13.5446 5.00426 13.5446 5.14527C13.5446 5.28628 13.6427 5.40806 13.7804 5.43837C14.4572 5.58655 14.8946 5.90127 14.8946 6.23996V6.53995H14.2946C14.129 6.53995 13.9946 6.67435 13.9946 6.83994V9.83992C13.9946 10.0055 14.129 10.1399 14.2946 10.1399H16.3946C16.5602 10.1399 16.6946 10.0055 16.6946 9.83992V7.13993H17.2946C17.4602 7.13993 17.5946 7.00553 17.5946 6.83994V6.23993C17.5946 5.34267 16.5095 4.73999 14.8946 4.73999ZM16.9946 6.53999H16.3946C16.229 6.53999 16.0946 6.67439 16.0946 6.83998V9.53997H14.5946V7.13996H15.1946C15.3602 7.13996 15.4946 7.00556 15.4946 6.83998V6.23996C15.4946 5.89498 15.3281 5.58687 15.0242 5.34148C16.3052 5.36967 16.9946 5.81756 16.9946 6.23996V6.53999Z" fill="#7D879C"/>
<path d="M10.6946 3.54004C10.5291 3.54004 10.3947 3.67444 10.3947 3.84003C10.3947 4.00561 10.5291 4.14002 10.6946 4.14002C10.8599 4.14002 10.9946 4.2747 10.9946 4.44C10.9946 4.60531 10.8599 4.73999 10.6946 4.73999C10.5291 4.73999 10.3947 4.87439 10.3947 5.03998C10.3947 5.20557 10.5291 5.33997 10.6946 5.33997C11.1908 5.33997 11.5946 4.93616 11.5946 4.43997C11.5946 3.94377 11.1908 3.54004 10.6946 3.54004Z" fill="#7D879C"/>
<path d="M13.0946 1.73999C12.929 1.73999 12.7946 1.87439 12.7946 2.03998V3.83998C12.7946 4.00557 12.929 4.13997 13.0946 4.13997C13.2602 4.13997 13.3946 4.00557 13.3946 3.83998V2.03998C13.3946 1.87439 13.2602 1.73999 13.0946 1.73999Z" fill="#7D879C"/>
<path d="M13.0946 3.54004C12.929 3.54004 12.7946 3.67444 12.7946 3.84003C12.7946 4.00561 12.929 4.14002 13.0946 4.14002C13.2599 4.14002 13.3946 4.2747 13.3946 4.44C13.3946 4.60531 13.2599 4.73999 13.0946 4.73999C12.929 4.73999 12.7946 4.87439 12.7946 5.03998C12.7946 5.20557 12.929 5.33997 13.0946 5.33997C13.5908 5.33997 13.9946 4.93616 13.9946 4.43997C13.9946 3.94377 13.5908 3.54004 13.0946 3.54004Z" fill="#7D879C"/>
<path d="M15.4946 1.73999C15.329 1.73999 15.1946 1.87439 15.1946 2.03998V3.83998C15.1946 4.00557 15.329 4.13997 15.4946 4.13997C15.6602 4.13997 15.7946 4.00557 15.7946 3.83998V2.03998C15.7946 1.87439 15.6602 1.73999 15.4946 1.73999Z" fill="#7D879C"/>
<path d="M15.4946 3.54004C15.329 3.54004 15.1946 3.67444 15.1946 3.84003C15.1946 4.00561 15.329 4.14002 15.4946 4.14002C15.6599 4.14002 15.7946 4.2747 15.7946 4.44C15.7946 4.60531 15.6599 4.73999 15.4946 4.73999C15.329 4.73999 15.1946 4.87439 15.1946 5.03998C15.1946 5.20557 15.329 5.33997 15.4946 5.33997C15.9908 5.33997 16.3946 4.93616 16.3946 4.43997C16.3946 3.94377 15.9908 3.54004 15.4946 3.54004Z" fill="#7D879C"/>
<path d="M17.5946 11.9401H6.79462C6.62903 11.9401 6.49463 12.0745 6.49463 12.2401V13.44C6.49463 13.6056 6.62903 13.74 6.79462 13.74H17.5946C17.7602 13.74 17.8946 13.6056 17.8946 13.44V12.2401C17.8946 12.0745 17.7602 11.9401 17.5946 11.9401ZM17.2946 13.1401H7.09461V12.54H17.2946V13.1401H17.2946Z" fill="#7D879C"/>
<path d="M16.9946 14.3401H7.99463C7.82904 14.3401 7.69464 14.4745 7.69464 14.6401V17.0401C7.69464 17.2057 7.82904 17.3401 7.99463 17.3401H16.9946C17.1602 17.3401 17.2946 17.2057 17.2946 17.0401V14.6401C17.2946 14.4745 17.1602 14.3401 16.9946 14.3401ZM16.6946 16.7401H8.29465V14.9401H16.6946V16.7401Z" fill="#7D879C"/>
</g>
<defs>
<clipPath id="clip0_9470_85055">
<rect width="18" height="18" fill="white" transform="translate(0.494629 0.540039)"/>
</clipPath>
</defs>
</svg>
