<svg width="19" height="19" viewBox="0 0 19 19" fill="none" xmlns="http://www.w3.org/2000/svg">
<g clip-path="url(#clip0_10062_47464)">
<path d="M16.9931 4.23573H13.1847C13.6807 3.79589 13.9941 3.15449 13.9941 2.44099C13.9941 0.436631 11.6719 -0.676962 10.1091 0.557227C9.97908 0.659867 9.95693 0.848464 10.0596 0.978432C10.1623 1.10848 10.3509 1.13056 10.4808 1.02792C11.6505 0.104233 13.3943 0.935585 13.3943 2.44099C13.3943 3.392 12.6527 4.17252 11.7174 4.23573H9.79558V2.44096C9.79558 1.11803 8.71933 0.0417789 7.39641 0.0417789C6.07349 0.0417789 4.99723 1.11803 4.99723 2.44096C4.99723 3.15449 5.31066 3.79585 5.80669 4.23569H1.99826C1.17145 4.23569 0.498779 4.90836 0.498779 5.73517V7.28103C0.498779 8.03141 1.05288 8.65475 1.77334 8.76361V16.5407C1.77334 17.3675 2.44601 18.0402 3.27283 18.0402H15.7185C16.5454 18.0402 17.218 17.3675 17.218 16.5407V10.0883C17.218 9.92271 17.0838 9.78843 16.9181 9.78843C16.7525 9.78843 16.6182 9.92271 16.6182 10.0883V16.5408C16.6182 17.0368 16.2146 17.4405 15.7185 17.4405H8.44605V8.78055H10.5453V16.3612C10.5453 16.5268 10.6796 16.6611 10.8452 16.6611C11.0108 16.6611 11.1451 16.5268 11.1451 16.3612V8.78055H14.4815C14.6471 8.78055 14.7814 8.64627 14.7814 8.48066C14.7814 8.31504 14.6471 8.18076 14.4815 8.18076H12.4947V4.83552H16.9931C17.4892 4.83552 17.8928 5.23911 17.8928 5.73521V7.28107C17.8928 7.77717 17.4892 8.18076 16.9931 8.18076H16.4121C16.2464 8.18076 16.1122 8.31504 16.1122 8.48066C16.1122 8.64627 16.2464 8.78055 16.4121 8.78055H16.9931C17.8199 8.78055 18.4926 8.10788 18.4926 7.28107V5.73521C18.4926 4.9084 17.8199 4.23573 16.9931 4.23573ZM5.59703 2.44096C5.59703 1.44878 6.4042 0.641573 7.39641 0.641573C8.38862 0.641573 9.19579 1.44878 9.19579 2.44096V4.23569H7.27398C6.33875 4.17252 5.59703 3.39197 5.59703 2.44096ZM7.84625 17.4405H3.27283C2.77676 17.4405 2.37314 17.0368 2.37314 16.5408V8.78055H7.84625V17.4405ZM11.8949 8.18076H1.99826C1.5022 8.18076 1.09857 7.77717 1.09857 7.28107V5.73521C1.09857 5.23911 1.5022 4.83552 1.99826 4.83552H6.49672V7.23935C6.49672 7.40496 6.631 7.53924 6.79661 7.53924C6.96223 7.53924 7.09651 7.40496 7.09651 7.23935V4.83552H11.8949V8.18076Z" fill="#7D879C"/>
</g>
<defs>
<clipPath id="clip0_10062_47464">
<rect width="18" height="18" fill="white" transform="translate(0.494629 0.0400391)"/>
</clipPath>
</defs>
</svg>
